<svg width="45" height="45" viewBox="0 0 45 45" fill="none" xmlns="http://www.w3.org/2000/svg">
<path d="M45 22.5C45 10.0736 34.9264 0 22.5 0C10.0736 0 0 10.0736 0 22.5C0 34.9264 10.0736 45 22.5 45C34.9264 45 45 34.9264 45 22.5Z" fill="#FFDC00"/>
<path d="M22.4998 36.355C23.2529 36.3529 23.9746 36.0528 24.5071 35.5203C25.0396 34.9878 25.3397 34.2661 25.3418 33.513H19.6578C19.6577 33.8863 19.7311 34.2559 19.8739 34.6007C20.0167 34.9456 20.226 35.259 20.4899 35.5229C20.7539 35.7868 21.0672 35.9962 21.4121 36.1389C21.757 36.2817 22.1266 36.3551 22.4998 36.355ZM31.0258 27.829V20.729C31.0258 16.367 28.6958 12.715 24.6318 11.748V10.777C24.6318 10.2117 24.4073 9.66954 24.0075 9.26981C23.6078 8.87008 23.0656 8.64551 22.5003 8.64551C21.935 8.64551 21.3929 8.87008 20.9931 9.26981C20.5934 9.66954 20.3688 10.2117 20.3688 10.777V11.746C16.2908 12.712 13.9748 16.346 13.9748 20.727V27.827L11.1318 30.671V32.092H33.8678V30.671L31.0258 27.829Z" fill="white"/>
</svg>
