<svg width="21" height="14" viewBox="0 0 21 14" fill="none" xmlns="http://www.w3.org/2000/svg">
<path d="M11.2177 4.11992H1.01979C0.458905 4.11992 0 4.58341 0 5.1499C0 5.71639 0.458905 6.17988 1.01979 6.17988H11.2177C11.7786 6.17988 12.2375 5.71639 12.2375 5.1499C12.2375 4.58341 11.7786 4.11992 11.2177 4.11992ZM11.2177 0H1.01979C0.458905 0 0 0.463491 0 1.02998C0 1.59647 0.458905 2.05996 1.01979 2.05996H11.2177C11.7786 2.05996 12.2375 1.59647 12.2375 1.02998C12.2375 0.463491 11.7786 0 11.2177 0ZM1.01979 10.2998H7.13852C7.69941 10.2998 8.15831 9.83631 8.15831 9.26982C8.15831 8.70333 7.69941 8.23984 7.13852 8.23984H1.01979C0.458905 8.23984 0 8.70333 0 9.26982C0 9.83631 0.458905 10.2998 1.01979 10.2998ZM20.6099 6.39617L20.7017 6.48887C21.0994 6.89057 21.0994 7.53945 20.7017 7.94114L15.0113 13.6987C14.6136 14.1004 13.9711 14.1004 13.5734 13.6987L10.4222 10.5161C10.0245 10.1144 10.0245 9.46552 10.4222 9.06382L10.514 8.97112C10.9117 8.56943 11.5542 8.56943 11.9519 8.97112L14.2974 11.3401L19.172 6.40647C19.5595 5.99448 20.2122 5.99448 20.6099 6.39617Z" fill="black"/>
</svg>
