<svg width="426" height="213" viewBox="0 0 426 213" fill="none" xmlns="http://www.w3.org/2000/svg">
<g filter="url(#filter0_d_356_897)">
<rect x="6" y="6" width="414" height="200.65" rx="15.4182" fill="url(#paint0_linear_356_897)"/>
</g>
<path d="M30.669 144.27C29.373 144.27 28.269 143.988 27.357 143.424C26.445 142.854 25.746 142.062 25.26 141.048C24.78 140.034 24.54 138.858 24.54 137.52C24.54 136.182 24.78 135.006 25.26 133.992C25.746 132.978 26.445 132.189 27.357 131.625C28.269 131.055 29.373 130.77 30.669 130.77C31.959 130.77 33.06 131.055 33.972 131.625C34.89 132.189 35.589 132.978 36.069 133.992C36.549 135.006 36.789 136.182 36.789 137.52C36.789 138.858 36.549 140.034 36.069 141.048C35.589 142.062 34.89 142.854 33.972 143.424C33.06 143.988 31.959 144.27 30.669 144.27ZM30.669 142.479C31.587 142.491 32.349 142.29 32.955 141.876C33.567 141.456 34.026 140.874 34.332 140.13C34.638 139.38 34.791 138.51 34.791 137.52C34.791 136.53 34.638 135.666 34.332 134.928C34.026 134.184 33.567 133.605 32.955 133.191C32.349 132.777 31.587 132.567 30.669 132.561C29.751 132.549 28.986 132.75 28.374 133.164C27.768 133.578 27.312 134.16 27.006 134.91C26.7 135.66 26.544 136.53 26.538 137.52C26.532 138.51 26.682 139.377 26.988 140.121C27.294 140.859 27.753 141.435 28.365 141.849C28.983 142.263 29.751 142.473 30.669 142.479ZM45.4062 144V139.221C45.4062 138.843 45.3732 138.456 45.3072 138.06C45.2472 137.658 45.1272 137.286 44.9472 136.944C44.7732 136.602 44.5242 136.326 44.2002 136.116C43.8822 135.906 43.4652 135.801 42.9492 135.801C42.6132 135.801 42.2952 135.858 41.9952 135.972C41.6952 136.08 41.4312 136.257 41.2032 136.503C40.9812 136.749 40.8042 137.073 40.6722 137.475C40.5462 137.877 40.4832 138.366 40.4832 138.942L39.3132 138.501C39.3132 137.619 39.4782 136.842 39.8082 136.17C40.1382 135.492 40.6122 134.964 41.2302 134.586C41.8482 134.208 42.5952 134.019 43.4712 134.019C44.1432 134.019 44.7072 134.127 45.1632 134.343C45.6192 134.559 45.9882 134.844 46.2702 135.198C46.5582 135.546 46.7772 135.927 46.9272 136.341C47.0772 136.755 47.1792 137.16 47.2332 137.556C47.2872 137.952 47.3142 138.3 47.3142 138.6V144H45.4062ZM38.5752 144V134.28H40.2582V137.088H40.4832V144H38.5752ZM49.8384 144V130.77H51.7194V144H49.8384ZM55.7361 148.32L57.6171 143.199L57.6441 144.711L53.4051 134.28H55.3671L58.5351 142.335H57.9591L60.9831 134.28H62.8911L57.5271 148.32H55.7361ZM68.7955 144V133.938C68.7955 133.692 68.8045 133.431 68.8225 133.155C68.8405 132.873 68.8915 132.597 68.9755 132.327C69.0655 132.051 69.2125 131.799 69.4165 131.571C69.6625 131.301 69.9325 131.109 70.2265 130.995C70.5205 130.881 70.8115 130.815 71.0995 130.797C71.3935 130.779 71.6635 130.77 71.9095 130.77H73.1335V132.318H71.9995C71.5555 132.318 71.2225 132.429 71.0005 132.651C70.7845 132.867 70.6765 133.176 70.6765 133.578V144H68.7955ZM67.1845 135.792V134.28H73.1335V135.792H67.1845ZM78.4361 144.27C77.4641 144.27 76.6211 144.051 75.9071 143.613C75.1931 143.175 74.6411 142.572 74.2511 141.804C73.8671 141.03 73.6751 140.139 73.6751 139.131C73.6751 138.117 73.8731 137.226 74.2691 136.458C74.6651 135.684 75.2201 135.084 75.9341 134.658C76.6481 134.226 77.4821 134.01 78.4361 134.01C79.4081 134.01 80.2511 134.229 80.9651 134.667C81.6791 135.105 82.2311 135.708 82.6211 136.476C83.0111 137.244 83.2061 138.129 83.2061 139.131C83.2061 140.145 83.0081 141.039 82.6121 141.813C82.2221 142.581 81.6701 143.184 80.9561 143.622C80.2421 144.054 79.4021 144.27 78.4361 144.27ZM78.4361 142.497C79.3661 142.497 80.0591 142.185 80.5151 141.561C80.9771 140.931 81.2081 140.121 81.2081 139.131C81.2081 138.117 80.9741 137.307 80.5061 136.701C80.0441 136.089 79.3541 135.783 78.4361 135.783C77.8061 135.783 77.2871 135.927 76.8791 136.215C76.4711 136.497 76.1681 136.89 75.9701 137.394C75.7721 137.892 75.6731 138.471 75.6731 139.131C75.6731 140.151 75.9071 140.967 76.3751 141.579C76.8431 142.191 77.5301 142.497 78.4361 142.497ZM85.1838 144V134.28H86.8578V136.638L86.6238 136.332C86.7438 136.02 86.8998 135.735 87.0918 135.477C87.2838 135.213 87.5058 134.997 87.7578 134.829C88.0038 134.649 88.2768 134.511 88.5768 134.415C88.8828 134.313 89.1948 134.253 89.5128 134.235C89.8308 134.211 90.1368 134.226 90.4308 134.28V136.044C90.1128 135.96 89.7588 135.936 89.3688 135.972C88.9848 136.008 88.6308 136.131 88.3068 136.341C88.0008 136.539 87.7578 136.779 87.5778 137.061C87.4038 137.343 87.2778 137.658 87.1998 138.006C87.1218 138.348 87.0828 138.711 87.0828 139.095V144H85.1838ZM94.8483 144L99.0603 131.04H101.769L105.981 144H104.028L100.149 132.174H100.635L96.8013 144H94.8483ZM97.0353 141.075V139.311H103.803V141.075H97.0353ZM112.159 144.27C111.229 144.27 110.449 144.045 109.819 143.595C109.189 143.139 108.712 142.524 108.388 141.75C108.064 140.976 107.902 140.103 107.902 139.131C107.902 138.159 108.061 137.286 108.379 136.512C108.703 135.738 109.177 135.129 109.801 134.685C110.431 134.235 111.205 134.01 112.123 134.01C113.035 134.01 113.821 134.235 114.481 134.685C115.147 135.129 115.66 135.738 116.02 136.512C116.38 137.28 116.56 138.153 116.56 139.131C116.56 140.103 116.38 140.979 116.02 141.759C115.666 142.533 115.159 143.145 114.499 143.595C113.845 144.045 113.065 144.27 112.159 144.27ZM107.587 148.32V134.28H109.261V141.273H109.477V148.32H107.587ZM111.898 142.569C112.498 142.569 112.993 142.416 113.383 142.11C113.779 141.804 114.073 141.393 114.265 140.877C114.463 140.355 114.562 139.773 114.562 139.131C114.562 138.495 114.463 137.919 114.265 137.403C114.073 136.887 113.776 136.476 113.374 136.17C112.972 135.864 112.459 135.711 111.835 135.711C111.247 135.711 110.761 135.855 110.377 136.143C109.999 136.431 109.717 136.833 109.531 137.349C109.351 137.865 109.261 138.459 109.261 139.131C109.261 139.803 109.351 140.397 109.531 140.913C109.711 141.429 109.996 141.834 110.386 142.128C110.776 142.422 111.28 142.569 111.898 142.569ZM121.292 144.27C120.572 144.27 119.969 144.138 119.483 143.874C118.997 143.604 118.628 143.25 118.376 142.812C118.13 142.368 118.007 141.882 118.007 141.354C118.007 140.862 118.094 140.43 118.268 140.058C118.442 139.686 118.7 139.371 119.042 139.113C119.384 138.849 119.804 138.636 120.302 138.474C120.734 138.348 121.223 138.237 121.769 138.141C122.315 138.045 122.888 137.955 123.488 137.871C124.094 137.787 124.694 137.703 125.288 137.619L124.604 137.997C124.616 137.235 124.454 136.671 124.118 136.305C123.788 135.933 123.218 135.747 122.408 135.747C121.898 135.747 121.43 135.867 121.004 136.107C120.578 136.341 120.281 136.731 120.113 137.277L118.358 136.737C118.598 135.903 119.054 135.24 119.726 134.748C120.404 134.256 121.304 134.01 122.426 134.01C123.296 134.01 124.052 134.16 124.694 134.46C125.342 134.754 125.816 135.222 126.116 135.864C126.272 136.182 126.368 136.518 126.404 136.872C126.44 137.226 126.458 137.607 126.458 138.015V144H124.793V141.777L125.117 142.065C124.715 142.809 124.202 143.364 123.578 143.73C122.96 144.09 122.198 144.27 121.292 144.27ZM121.625 142.731C122.159 142.731 122.618 142.638 123.002 142.452C123.386 142.26 123.695 142.017 123.929 141.723C124.163 141.429 124.316 141.123 124.388 140.805C124.49 140.517 124.547 140.193 124.559 139.833C124.577 139.473 124.586 139.185 124.586 138.969L125.198 139.194C124.604 139.284 124.064 139.365 123.578 139.437C123.092 139.509 122.651 139.581 122.255 139.653C121.865 139.719 121.517 139.8 121.211 139.896C120.953 139.986 120.722 140.094 120.518 140.22C120.32 140.346 120.161 140.499 120.041 140.679C119.927 140.859 119.87 141.078 119.87 141.336C119.87 141.588 119.933 141.822 120.059 142.038C120.185 142.248 120.377 142.416 120.635 142.542C120.893 142.668 121.223 142.731 121.625 142.731ZM128.795 144V134.28H130.469V136.638L130.235 136.332C130.355 136.02 130.511 135.735 130.703 135.477C130.895 135.213 131.117 134.997 131.369 134.829C131.615 134.649 131.888 134.511 132.188 134.415C132.494 134.313 132.806 134.253 133.124 134.235C133.442 134.211 133.748 134.226 134.042 134.28V136.044C133.724 135.96 133.37 135.936 132.98 135.972C132.596 136.008 132.242 136.131 131.918 136.341C131.612 136.539 131.369 136.779 131.189 137.061C131.015 137.343 130.889 137.658 130.811 138.006C130.733 138.348 130.694 138.711 130.694 139.095V144H128.795ZM141.318 144C140.706 144.12 140.106 144.171 139.518 144.153C138.93 144.135 138.405 144.021 137.943 143.811C137.481 143.601 137.133 143.271 136.899 142.821C136.689 142.419 136.575 142.011 136.557 141.597C136.545 141.177 136.539 140.703 136.539 140.175V131.58H138.429V140.085C138.429 140.475 138.432 140.814 138.438 141.102C138.45 141.39 138.513 141.633 138.627 141.831C138.843 142.203 139.185 142.416 139.653 142.47C140.127 142.518 140.682 142.497 141.318 142.407V144ZM134.676 135.792V134.28H141.318V135.792H134.676ZM155.013 144L155.022 137.943C155.022 137.241 154.842 136.695 154.482 136.305C154.122 135.909 153.648 135.711 153.06 135.711C152.7 135.711 152.37 135.795 152.07 135.963C151.776 136.125 151.536 136.371 151.35 136.701C151.17 137.025 151.08 137.433 151.08 137.925L150.171 137.466C150.159 136.782 150.303 136.182 150.603 135.666C150.909 135.15 151.323 134.751 151.845 134.469C152.367 134.181 152.952 134.037 153.6 134.037C154.65 134.037 155.463 134.352 156.039 134.982C156.615 135.612 156.903 136.449 156.903 137.493L156.894 144H155.013ZM143.358 144V134.28H145.032V137.088H145.248V144H143.358ZM149.19 144L149.199 137.979C149.199 137.271 149.019 136.716 148.659 136.314C148.305 135.912 147.828 135.711 147.228 135.711C146.634 135.711 146.154 135.915 145.788 136.323C145.428 136.731 145.248 137.265 145.248 137.925L144.348 137.349C144.348 136.713 144.501 136.146 144.807 135.648C145.113 135.15 145.527 134.757 146.049 134.469C146.571 134.181 147.162 134.037 147.822 134.037C148.512 134.037 149.1 134.184 149.586 134.478C150.072 134.766 150.441 135.171 150.693 135.693C150.951 136.215 151.08 136.821 151.08 137.511L151.071 144H149.19ZM163.428 144.27C162.462 144.27 161.613 144.06 160.881 143.64C160.155 143.214 159.588 142.623 159.18 141.867C158.778 141.105 158.577 140.223 158.577 139.221C158.577 138.159 158.775 137.238 159.171 136.458C159.573 135.678 160.131 135.075 160.845 134.649C161.559 134.223 162.39 134.01 163.338 134.01C164.328 134.01 165.171 134.241 165.867 134.703C166.563 135.159 167.082 135.81 167.424 136.656C167.772 137.502 167.91 138.507 167.838 139.671H165.957V138.987C165.945 137.859 165.729 137.025 165.309 136.485C164.895 135.945 164.262 135.675 163.41 135.675C162.468 135.675 161.76 135.972 161.286 136.566C160.812 137.16 160.575 138.018 160.575 139.14C160.575 140.208 160.812 141.036 161.286 141.624C161.76 142.206 162.444 142.497 163.338 142.497C163.926 142.497 164.433 142.365 164.859 142.101C165.291 141.831 165.627 141.447 165.867 140.949L167.712 141.534C167.334 142.404 166.761 143.079 165.993 143.559C165.225 144.033 164.37 144.27 163.428 144.27ZM159.963 139.671V138.204H166.902V139.671H159.963ZM176.416 144V139.221C176.416 138.843 176.383 138.456 176.317 138.06C176.257 137.658 176.137 137.286 175.957 136.944C175.783 136.602 175.534 136.326 175.21 136.116C174.892 135.906 174.475 135.801 173.959 135.801C173.623 135.801 173.305 135.858 173.005 135.972C172.705 136.08 172.441 136.257 172.213 136.503C171.991 136.749 171.814 137.073 171.682 137.475C171.556 137.877 171.493 138.366 171.493 138.942L170.323 138.501C170.323 137.619 170.488 136.842 170.818 136.17C171.148 135.492 171.622 134.964 172.24 134.586C172.858 134.208 173.605 134.019 174.481 134.019C175.153 134.019 175.717 134.127 176.173 134.343C176.629 134.559 176.998 134.844 177.28 135.198C177.568 135.546 177.787 135.927 177.937 136.341C178.087 136.755 178.189 137.16 178.243 137.556C178.297 137.952 178.324 138.3 178.324 138.6V144H176.416ZM169.585 144V134.28H171.268V137.088H171.493V144H169.585ZM186.23 144C185.618 144.12 185.018 144.171 184.43 144.153C183.842 144.135 183.317 144.021 182.855 143.811C182.393 143.601 182.045 143.271 181.811 142.821C181.601 142.419 181.487 142.011 181.469 141.597C181.457 141.177 181.451 140.703 181.451 140.175V131.58H183.341V140.085C183.341 140.475 183.344 140.814 183.35 141.102C183.362 141.39 183.425 141.633 183.539 141.831C183.755 142.203 184.097 142.416 184.565 142.47C185.039 142.518 185.594 142.497 186.23 142.407V144ZM179.588 135.792V134.28H186.23V135.792H179.588ZM191.997 144.261C190.815 144.261 189.852 144 189.108 143.478C188.364 142.956 187.908 142.221 187.74 141.273L189.666 140.976C189.786 141.48 190.062 141.879 190.494 142.173C190.932 142.461 191.475 142.605 192.123 142.605C192.711 142.605 193.17 142.485 193.5 142.245C193.836 142.005 194.004 141.675 194.004 141.255C194.004 141.009 193.944 140.811 193.824 140.661C193.71 140.505 193.467 140.358 193.095 140.22C192.723 140.082 192.156 139.911 191.394 139.707C190.56 139.491 189.897 139.26 189.405 139.014C188.919 138.762 188.571 138.471 188.361 138.141C188.157 137.805 188.055 137.4 188.055 136.926C188.055 136.338 188.211 135.825 188.523 135.387C188.835 134.949 189.273 134.61 189.837 134.37C190.407 134.13 191.073 134.01 191.835 134.01C192.579 134.01 193.242 134.127 193.824 134.361C194.406 134.595 194.877 134.928 195.237 135.36C195.597 135.786 195.813 136.287 195.885 136.863L193.959 137.214C193.893 136.746 193.674 136.377 193.302 136.107C192.93 135.837 192.447 135.69 191.853 135.666C191.283 135.642 190.821 135.738 190.467 135.954C190.113 136.164 189.936 136.455 189.936 136.827C189.936 137.043 190.002 137.226 190.134 137.376C190.272 137.526 190.536 137.67 190.926 137.808C191.316 137.946 191.892 138.111 192.654 138.303C193.47 138.513 194.118 138.747 194.598 139.005C195.078 139.257 195.42 139.56 195.624 139.914C195.834 140.262 195.939 140.685 195.939 141.183C195.939 142.143 195.588 142.896 194.886 143.442C194.19 143.988 193.227 144.261 191.997 144.261ZM205.79 144.27C205.064 144.27 204.386 144.165 203.756 143.955C203.126 143.739 202.598 143.403 202.172 142.947C201.842 142.581 201.596 142.179 201.434 141.741C201.278 141.297 201.191 140.826 201.173 140.328C201.173 139.842 201.242 139.371 201.38 138.915C201.524 138.453 201.749 138.042 202.055 137.682C202.193 137.514 202.346 137.37 202.514 137.25C202.682 137.124 202.85 137.013 203.018 136.917C202.634 136.497 202.343 136.098 202.145 135.72C201.947 135.336 201.848 134.883 201.848 134.361C201.848 133.629 202.04 132.972 202.424 132.39C202.808 131.802 203.333 131.379 203.999 131.121C204.305 130.995 204.617 130.911 204.935 130.869C205.253 130.821 205.562 130.797 205.862 130.797C206.402 130.797 206.924 130.875 207.428 131.031C207.932 131.187 208.364 131.442 208.724 131.796C208.952 132.006 209.144 132.243 209.3 132.507C209.462 132.771 209.585 133.041 209.669 133.317L207.815 133.749C207.713 133.461 207.545 133.218 207.311 133.02C207.113 132.846 206.882 132.729 206.618 132.669C206.36 132.603 206.102 132.57 205.844 132.57C205.418 132.57 205.034 132.651 204.692 132.813C204.38 132.963 204.146 133.17 203.99 133.434C203.834 133.692 203.756 134.004 203.756 134.37C203.756 134.694 203.813 134.955 203.927 135.153C204.041 135.351 204.194 135.558 204.386 135.774C204.5 135.9 204.635 136.035 204.791 136.179C204.953 136.323 205.118 136.473 205.286 136.629L208.814 139.914C208.826 139.782 208.835 139.641 208.841 139.491C208.847 139.341 208.85 139.197 208.85 139.059L208.841 137.376H210.524V139.599C210.524 139.977 210.512 140.319 210.488 140.625C210.47 140.925 210.434 141.171 210.38 141.363L212 142.866L210.785 144.171L209.48 142.929C209.204 143.205 208.895 143.439 208.553 143.631C208.211 143.817 207.866 143.955 207.518 144.045C207.224 144.135 206.933 144.195 206.645 144.225C206.363 144.255 206.078 144.27 205.79 144.27ZM205.844 142.47C206.084 142.47 206.306 142.458 206.51 142.434C206.714 142.404 206.909 142.35 207.095 142.272C207.347 142.17 207.551 142.065 207.707 141.957C207.869 141.849 208.004 141.744 208.112 141.642L204.422 138.258C204.236 138.324 204.062 138.411 203.9 138.519C203.744 138.621 203.609 138.741 203.495 138.879C203.357 139.053 203.252 139.257 203.18 139.491C203.114 139.719 203.084 139.965 203.09 140.229C203.09 140.517 203.135 140.781 203.225 141.021C203.321 141.255 203.444 141.465 203.594 141.651C203.834 141.939 204.167 142.149 204.593 142.281C205.025 142.407 205.442 142.47 205.844 142.47ZM217.055 144V131.04H222.149C222.971 131.04 223.661 131.208 224.219 131.544C224.777 131.88 225.197 132.315 225.479 132.849C225.761 133.377 225.902 133.935 225.902 134.523C225.902 135.237 225.725 135.849 225.371 136.359C225.023 136.869 224.552 137.217 223.958 137.403L223.94 136.962C224.768 137.166 225.404 137.565 225.848 138.159C226.292 138.747 226.514 139.434 226.514 140.22C226.514 140.982 226.361 141.645 226.055 142.209C225.755 142.773 225.314 143.214 224.732 143.532C224.156 143.844 223.457 144 222.635 144H217.055ZM218.963 142.209H222.347C222.773 142.209 223.154 142.128 223.49 141.966C223.832 141.804 224.099 141.573 224.291 141.273C224.489 140.967 224.588 140.604 224.588 140.184C224.588 139.794 224.501 139.443 224.327 139.131C224.159 138.813 223.913 138.564 223.589 138.384C223.271 138.198 222.896 138.105 222.464 138.105H218.963V142.209ZM218.963 136.332H222.122C222.47 136.332 222.782 136.263 223.058 136.125C223.34 135.981 223.562 135.777 223.724 135.513C223.892 135.243 223.976 134.919 223.976 134.541C223.976 134.037 223.808 133.623 223.472 133.299C223.136 132.975 222.686 132.813 222.122 132.813H218.963V136.332ZM231.968 144.261C231.296 144.261 230.732 144.153 230.276 143.937C229.82 143.721 229.448 143.439 229.16 143.091C228.878 142.737 228.662 142.353 228.512 141.939C228.362 141.525 228.26 141.12 228.206 140.724C228.152 140.328 228.125 139.98 228.125 139.68V134.28H230.033V139.059C230.033 139.437 230.063 139.827 230.123 140.229C230.189 140.625 230.309 140.994 230.483 141.336C230.663 141.678 230.912 141.954 231.23 142.164C231.554 142.374 231.974 142.479 232.49 142.479C232.826 142.479 233.144 142.425 233.444 142.317C233.744 142.203 234.005 142.023 234.227 141.777C234.455 141.531 234.632 141.207 234.758 140.805C234.89 140.403 234.956 139.914 234.956 139.338L236.126 139.779C236.126 140.661 235.961 141.441 235.631 142.119C235.301 142.791 234.827 143.316 234.209 143.694C233.591 144.072 232.844 144.261 231.968 144.261ZM235.181 144V141.192H234.956V134.28H236.855V144H235.181ZM239.559 132.687V130.86H241.44V132.687H239.559ZM239.559 144V134.28H241.44V144H239.559ZM244.323 144V130.77H246.204V144H244.323ZM252.767 144.27C251.861 144.27 251.078 144.045 250.418 143.595C249.764 143.145 249.257 142.533 248.897 141.759C248.543 140.979 248.366 140.103 248.366 139.131C248.366 138.153 248.546 137.28 248.906 136.512C249.266 135.738 249.776 135.129 250.436 134.685C251.102 134.235 251.891 134.01 252.803 134.01C253.721 134.01 254.492 134.235 255.116 134.685C255.746 135.129 256.22 135.738 256.538 136.512C256.862 137.286 257.024 138.159 257.024 139.131C257.024 140.103 256.862 140.976 256.538 141.75C256.214 142.524 255.737 143.139 255.107 143.595C254.477 144.045 253.697 144.27 252.767 144.27ZM253.028 142.569C253.646 142.569 254.15 142.422 254.54 142.128C254.93 141.834 255.215 141.429 255.395 140.913C255.575 140.397 255.665 139.803 255.665 139.131C255.665 138.459 255.572 137.865 255.386 137.349C255.206 136.833 254.924 136.431 254.54 136.143C254.162 135.855 253.679 135.711 253.091 135.711C252.467 135.711 251.954 135.864 251.552 136.17C251.15 136.476 250.85 136.887 250.652 137.403C250.46 137.919 250.364 138.495 250.364 139.131C250.364 139.773 250.46 140.355 250.652 140.877C250.85 141.393 251.144 141.804 251.534 142.11C251.93 142.416 252.428 142.569 253.028 142.569ZM255.665 144V137.007H255.449V131.04H257.339V144H255.665ZM264.169 144.27C263.203 144.27 262.354 144.06 261.622 143.64C260.896 143.214 260.329 142.623 259.921 141.867C259.519 141.105 259.318 140.223 259.318 139.221C259.318 138.159 259.516 137.238 259.912 136.458C260.314 135.678 260.872 135.075 261.586 134.649C262.3 134.223 263.131 134.01 264.079 134.01C265.069 134.01 265.912 134.241 266.608 134.703C267.304 135.159 267.823 135.81 268.165 136.656C268.513 137.502 268.651 138.507 268.579 139.671H266.698V138.987C266.686 137.859 266.47 137.025 266.05 136.485C265.636 135.945 265.003 135.675 264.151 135.675C263.209 135.675 262.501 135.972 262.027 136.566C261.553 137.16 261.316 138.018 261.316 139.14C261.316 140.208 261.553 141.036 262.027 141.624C262.501 142.206 263.185 142.497 264.079 142.497C264.667 142.497 265.174 142.365 265.6 142.101C266.032 141.831 266.368 141.447 266.608 140.949L268.453 141.534C268.075 142.404 267.502 143.079 266.734 143.559C265.966 144.033 265.111 144.27 264.169 144.27ZM260.704 139.671V138.204H267.643V139.671H260.704ZM270.598 144V134.28H272.272V136.638L272.038 136.332C272.158 136.02 272.314 135.735 272.506 135.477C272.698 135.213 272.92 134.997 273.172 134.829C273.418 134.649 273.691 134.511 273.991 134.415C274.297 134.313 274.609 134.253 274.927 134.235C275.245 134.211 275.551 134.226 275.845 134.28V136.044C275.527 135.96 275.173 135.936 274.783 135.972C274.399 136.008 274.045 136.131 273.721 136.341C273.415 136.539 273.172 136.779 272.992 137.061C272.818 137.343 272.692 137.658 272.614 138.006C272.536 138.348 272.497 138.711 272.497 139.095V144H270.598ZM281.162 144V131.04H288.839V132.921H283.043V136.575H287.759V138.465H283.043V144H281.162ZM290.641 144V130.77H292.522V144H290.641ZM299.446 144.27C298.474 144.27 297.631 144.051 296.917 143.613C296.203 143.175 295.651 142.572 295.261 141.804C294.877 141.03 294.685 140.139 294.685 139.131C294.685 138.117 294.883 137.226 295.279 136.458C295.675 135.684 296.23 135.084 296.944 134.658C297.658 134.226 298.492 134.01 299.446 134.01C300.418 134.01 301.261 134.229 301.975 134.667C302.689 135.105 303.241 135.708 303.631 136.476C304.021 137.244 304.216 138.129 304.216 139.131C304.216 140.145 304.018 141.039 303.622 141.813C303.232 142.581 302.68 143.184 301.966 143.622C301.252 144.054 300.412 144.27 299.446 144.27ZM299.446 142.497C300.376 142.497 301.069 142.185 301.525 141.561C301.987 140.931 302.218 140.121 302.218 139.131C302.218 138.117 301.984 137.307 301.516 136.701C301.054 136.089 300.364 135.783 299.446 135.783C298.816 135.783 298.297 135.927 297.889 136.215C297.481 136.497 297.178 136.89 296.98 137.394C296.782 137.892 296.683 138.471 296.683 139.131C296.683 140.151 296.917 140.967 297.385 141.579C297.853 142.191 298.54 142.497 299.446 142.497ZM310.415 144.27C309.443 144.27 308.6 144.051 307.886 143.613C307.172 143.175 306.62 142.572 306.23 141.804C305.846 141.03 305.654 140.139 305.654 139.131C305.654 138.117 305.852 137.226 306.248 136.458C306.644 135.684 307.199 135.084 307.913 134.658C308.627 134.226 309.461 134.01 310.415 134.01C311.387 134.01 312.23 134.229 312.944 134.667C313.658 135.105 314.21 135.708 314.6 136.476C314.99 137.244 315.185 138.129 315.185 139.131C315.185 140.145 314.987 141.039 314.591 141.813C314.201 142.581 313.649 143.184 312.935 143.622C312.221 144.054 311.381 144.27 310.415 144.27ZM310.415 142.497C311.345 142.497 312.038 142.185 312.494 141.561C312.956 140.931 313.187 140.121 313.187 139.131C313.187 138.117 312.953 137.307 312.485 136.701C312.023 136.089 311.333 135.783 310.415 135.783C309.785 135.783 309.266 135.927 308.858 136.215C308.45 136.497 308.147 136.89 307.949 137.394C307.751 137.892 307.652 138.471 307.652 139.131C307.652 140.151 307.886 140.967 308.354 141.579C308.822 142.191 309.509 142.497 310.415 142.497ZM317.162 144V134.28H318.836V136.638L318.602 136.332C318.722 136.02 318.878 135.735 319.07 135.477C319.262 135.213 319.484 134.997 319.736 134.829C319.982 134.649 320.255 134.511 320.555 134.415C320.861 134.313 321.173 134.253 321.491 134.235C321.809 134.211 322.115 134.226 322.409 134.28V136.044C322.091 135.96 321.737 135.936 321.347 135.972C320.963 136.008 320.609 136.131 320.285 136.341C319.979 136.539 319.736 136.779 319.556 137.061C319.382 137.343 319.256 137.658 319.178 138.006C319.1 138.348 319.061 138.711 319.061 139.095V144H317.162ZM327.907 144V131.04H329.788V144H327.907ZM339.312 144V139.221C339.312 138.843 339.279 138.456 339.213 138.06C339.153 137.658 339.033 137.286 338.853 136.944C338.679 136.602 338.43 136.326 338.106 136.116C337.788 135.906 337.371 135.801 336.855 135.801C336.519 135.801 336.201 135.858 335.901 135.972C335.601 136.08 335.337 136.257 335.109 136.503C334.887 136.749 334.71 137.073 334.578 137.475C334.452 137.877 334.389 138.366 334.389 138.942L333.219 138.501C333.219 137.619 333.384 136.842 333.714 136.17C334.044 135.492 334.518 134.964 335.136 134.586C335.754 134.208 336.501 134.019 337.377 134.019C338.049 134.019 338.613 134.127 339.069 134.343C339.525 134.559 339.894 134.844 340.176 135.198C340.464 135.546 340.683 135.927 340.833 136.341C340.983 136.755 341.085 137.16 341.139 137.556C341.193 137.952 341.22 138.3 341.22 138.6V144H339.312ZM332.481 144V134.28H334.164V137.088H334.389V144H332.481ZM349.127 144C348.515 144.12 347.915 144.171 347.327 144.153C346.739 144.135 346.214 144.021 345.752 143.811C345.29 143.601 344.942 143.271 344.708 142.821C344.498 142.419 344.384 142.011 344.366 141.597C344.354 141.177 344.348 140.703 344.348 140.175V131.58H346.238V140.085C346.238 140.475 346.241 140.814 346.247 141.102C346.259 141.39 346.322 141.633 346.436 141.831C346.652 142.203 346.994 142.416 347.462 142.47C347.936 142.518 348.491 142.497 349.127 142.407V144ZM342.485 135.792V134.28H349.127V135.792H342.485ZM355.048 144.27C354.082 144.27 353.233 144.06 352.501 143.64C351.775 143.214 351.208 142.623 350.8 141.867C350.398 141.105 350.197 140.223 350.197 139.221C350.197 138.159 350.395 137.238 350.791 136.458C351.193 135.678 351.751 135.075 352.465 134.649C353.179 134.223 354.01 134.01 354.958 134.01C355.948 134.01 356.791 134.241 357.487 134.703C358.183 135.159 358.702 135.81 359.044 136.656C359.392 137.502 359.53 138.507 359.458 139.671H357.577V138.987C357.565 137.859 357.349 137.025 356.929 136.485C356.515 135.945 355.882 135.675 355.03 135.675C354.088 135.675 353.38 135.972 352.906 136.566C352.432 137.16 352.195 138.018 352.195 139.14C352.195 140.208 352.432 141.036 352.906 141.624C353.38 142.206 354.064 142.497 354.958 142.497C355.546 142.497 356.053 142.365 356.479 142.101C356.911 141.831 357.247 141.447 357.487 140.949L359.332 141.534C358.954 142.404 358.381 143.079 357.613 143.559C356.845 144.033 355.99 144.27 355.048 144.27ZM351.583 139.671V138.204H358.522V139.671H351.583ZM361.477 144V134.28H363.151V136.638L362.917 136.332C363.037 136.02 363.193 135.735 363.385 135.477C363.577 135.213 363.799 134.997 364.051 134.829C364.297 134.649 364.57 134.511 364.87 134.415C365.176 134.313 365.488 134.253 365.806 134.235C366.124 134.211 366.43 134.226 366.724 134.28V136.044C366.406 135.96 366.052 135.936 365.662 135.972C365.278 136.008 364.924 136.131 364.6 136.341C364.294 136.539 364.051 136.779 363.871 137.061C363.697 137.343 363.571 137.658 363.493 138.006C363.415 138.348 363.376 138.711 363.376 139.095V144H361.477ZM368.618 132.687V130.86H370.499V132.687H368.618ZM368.618 144V134.28H370.499V144H368.618ZM377.422 144.27C376.45 144.27 375.607 144.051 374.893 143.613C374.179 143.175 373.627 142.572 373.237 141.804C372.853 141.03 372.661 140.139 372.661 139.131C372.661 138.117 372.859 137.226 373.255 136.458C373.651 135.684 374.206 135.084 374.92 134.658C375.634 134.226 376.468 134.01 377.422 134.01C378.394 134.01 379.237 134.229 379.951 134.667C380.665 135.105 381.217 135.708 381.607 136.476C381.997 137.244 382.192 138.129 382.192 139.131C382.192 140.145 381.994 141.039 381.598 141.813C381.208 142.581 380.656 143.184 379.942 143.622C379.228 144.054 378.388 144.27 377.422 144.27ZM377.422 142.497C378.352 142.497 379.045 142.185 379.501 141.561C379.963 140.931 380.194 140.121 380.194 139.131C380.194 138.117 379.96 137.307 379.492 136.701C379.03 136.089 378.34 135.783 377.422 135.783C376.792 135.783 376.273 135.927 375.865 136.215C375.457 136.497 375.154 136.89 374.956 137.394C374.758 137.892 374.659 138.471 374.659 139.131C374.659 140.151 374.893 140.967 375.361 141.579C375.829 142.191 376.516 142.497 377.422 142.497ZM384.17 144V134.28H385.844V136.638L385.61 136.332C385.73 136.02 385.886 135.735 386.078 135.477C386.27 135.213 386.492 134.997 386.744 134.829C386.99 134.649 387.263 134.511 387.563 134.415C387.869 134.313 388.181 134.253 388.499 134.235C388.817 134.211 389.123 134.226 389.417 134.28V136.044C389.099 135.96 388.745 135.936 388.355 135.972C387.971 136.008 387.617 136.131 387.293 136.341C386.987 136.539 386.744 136.779 386.564 137.061C386.39 137.343 386.264 137.658 386.186 138.006C386.108 138.348 386.069 138.711 386.069 139.095V144H384.17ZM25.26 169V156.04H30.498C30.624 156.04 30.78 156.046 30.966 156.058C31.152 156.064 31.329 156.082 31.497 156.112C32.217 156.226 32.817 156.472 33.297 156.85C33.783 157.228 34.146 157.705 34.386 158.281C34.626 158.857 34.746 159.493 34.746 160.189C34.746 160.891 34.626 161.53 34.386 162.106C34.146 162.682 33.783 163.159 33.297 163.537C32.817 163.915 32.217 164.161 31.497 164.275C31.329 164.299 31.149 164.317 30.957 164.329C30.771 164.341 30.618 164.347 30.498 164.347H27.141V169H25.26ZM27.141 162.565H30.426C30.546 162.565 30.678 162.559 30.822 162.547C30.972 162.535 31.113 162.514 31.245 162.484C31.629 162.394 31.938 162.229 32.172 161.989C32.406 161.743 32.574 161.461 32.676 161.143C32.778 160.825 32.829 160.507 32.829 160.189C32.829 159.871 32.778 159.556 32.676 159.244C32.574 158.926 32.406 158.647 32.172 158.407C31.938 158.161 31.629 157.993 31.245 157.903C31.113 157.867 30.972 157.843 30.822 157.831C30.678 157.819 30.546 157.813 30.426 157.813H27.141V162.565ZM36.5452 169V159.28H38.2192V161.638L37.9852 161.332C38.1052 161.02 38.2612 160.735 38.4532 160.477C38.6452 160.213 38.8672 159.997 39.1192 159.829C39.3652 159.649 39.6382 159.511 39.9382 159.415C40.2442 159.313 40.5562 159.253 40.8742 159.235C41.1922 159.211 41.4982 159.226 41.7922 159.28V161.044C41.4742 160.96 41.1202 160.936 40.7302 160.972C40.3462 161.008 39.9922 161.131 39.6682 161.341C39.3622 161.539 39.1192 161.779 38.9392 162.061C38.7652 162.343 38.6392 162.658 38.5612 163.006C38.4832 163.348 38.4442 163.711 38.4442 164.095V169H36.5452ZM47.5513 169.27C46.5793 169.27 45.7363 169.051 45.0223 168.613C44.3083 168.175 43.7563 167.572 43.3663 166.804C42.9823 166.03 42.7903 165.139 42.7903 164.131C42.7903 163.117 42.9883 162.226 43.3843 161.458C43.7803 160.684 44.3353 160.084 45.0493 159.658C45.7633 159.226 46.5973 159.01 47.5513 159.01C48.5233 159.01 49.3663 159.229 50.0803 159.667C50.7943 160.105 51.3463 160.708 51.7363 161.476C52.1263 162.244 52.3213 163.129 52.3213 164.131C52.3213 165.145 52.1233 166.039 51.7273 166.813C51.3373 167.581 50.7853 168.184 50.0713 168.622C49.3573 169.054 48.5173 169.27 47.5513 169.27ZM47.5513 167.497C48.4813 167.497 49.1743 167.185 49.6303 166.561C50.0923 165.931 50.3233 165.121 50.3233 164.131C50.3233 163.117 50.0893 162.307 49.6213 161.701C49.1593 161.089 48.4693 160.783 47.5513 160.783C46.9213 160.783 46.4023 160.927 45.9943 161.215C45.5863 161.497 45.2833 161.89 45.0853 162.394C44.8873 162.892 44.7883 163.471 44.7883 164.131C44.7883 165.151 45.0223 165.967 45.4903 166.579C45.9583 167.191 46.6453 167.497 47.5513 167.497ZM52.8591 173.32V171.538H53.3541C53.8521 171.538 54.2151 171.418 54.4431 171.178C54.6771 170.938 54.7941 170.569 54.7941 170.071V159.28H56.6841V170.836C56.6841 171.628 56.4651 172.24 56.0271 172.672C55.5951 173.104 54.9741 173.32 54.1641 173.32H52.8591ZM54.7941 157.687V155.86H56.6841V157.687H54.7941ZM63.5671 169.27C62.6011 169.27 61.7521 169.06 61.0201 168.64C60.2941 168.214 59.7271 167.623 59.3191 166.867C58.9171 166.105 58.7161 165.223 58.7161 164.221C58.7161 163.159 58.9141 162.238 59.3101 161.458C59.7121 160.678 60.2701 160.075 60.9841 159.649C61.6981 159.223 62.5291 159.01 63.4771 159.01C64.4671 159.01 65.3101 159.241 66.0061 159.703C66.7021 160.159 67.2211 160.81 67.5631 161.656C67.9111 162.502 68.0491 163.507 67.9771 164.671H66.0961V163.987C66.0841 162.859 65.8681 162.025 65.4481 161.485C65.0341 160.945 64.4011 160.675 63.5491 160.675C62.6071 160.675 61.8991 160.972 61.4251 161.566C60.9511 162.16 60.7141 163.018 60.7141 164.14C60.7141 165.208 60.9511 166.036 61.4251 166.624C61.8991 167.206 62.5831 167.497 63.4771 167.497C64.0651 167.497 64.5721 167.365 64.9981 167.101C65.4301 166.831 65.7661 166.447 66.0061 165.949L67.8511 166.534C67.4731 167.404 66.9001 168.079 66.1321 168.559C65.3641 169.033 64.5091 169.27 63.5671 169.27ZM60.1021 164.671V163.204H67.0411V164.671H60.1021ZM74.1543 169.27C73.1583 169.27 72.3123 169.048 71.6163 168.604C70.9203 168.16 70.3863 167.551 70.0143 166.777C69.6483 166.003 69.4623 165.124 69.4563 164.14C69.4623 163.138 69.6543 162.253 70.0323 161.485C70.4103 160.711 70.9503 160.105 71.6523 159.667C72.3543 159.229 73.1973 159.01 74.1813 159.01C75.2433 159.01 76.1493 159.274 76.8993 159.802C77.6553 160.33 78.1533 161.053 78.3933 161.971L76.5213 162.511C76.3353 161.965 76.0293 161.542 75.6033 161.242C75.1833 160.936 74.7003 160.783 74.1543 160.783C73.5363 160.783 73.0293 160.93 72.6333 161.224C72.2373 161.512 71.9433 161.908 71.7513 162.412C71.5593 162.916 71.4603 163.492 71.4543 164.14C71.4603 165.142 71.6883 165.952 72.1383 166.57C72.5943 167.188 73.2663 167.497 74.1543 167.497C74.7603 167.497 75.2493 167.359 75.6213 167.083C75.9993 166.801 76.2873 166.399 76.4853 165.877L78.3933 166.327C78.0753 167.275 77.5503 168.004 76.8183 168.514C76.0863 169.018 75.1983 169.27 74.1543 169.27ZM85.7888 169C85.1768 169.12 84.5768 169.171 83.9888 169.153C83.4008 169.135 82.8758 169.021 82.4138 168.811C81.9518 168.601 81.6038 168.271 81.3698 167.821C81.1598 167.419 81.0458 167.011 81.0278 166.597C81.0158 166.177 81.0098 165.703 81.0098 165.175V156.58H82.8998V165.085C82.8998 165.475 82.9028 165.814 82.9088 166.102C82.9208 166.39 82.9838 166.633 83.0978 166.831C83.3138 167.203 83.6558 167.416 84.1238 167.47C84.5978 167.518 85.1528 167.497 85.7888 167.407V169ZM79.1468 160.792V159.28H85.7888V160.792H79.1468ZM91.5551 169.261C90.3731 169.261 89.4101 169 88.6661 168.478C87.9221 167.956 87.4661 167.221 87.2981 166.273L89.2241 165.976C89.3441 166.48 89.6201 166.879 90.0521 167.173C90.4901 167.461 91.0331 167.605 91.6811 167.605C92.2691 167.605 92.7281 167.485 93.0581 167.245C93.3941 167.005 93.5621 166.675 93.5621 166.255C93.5621 166.009 93.5021 165.811 93.3821 165.661C93.2681 165.505 93.0251 165.358 92.6531 165.22C92.2811 165.082 91.7141 164.911 90.9521 164.707C90.1181 164.491 89.4551 164.26 88.9631 164.014C88.4771 163.762 88.1291 163.471 87.9191 163.141C87.7151 162.805 87.6131 162.4 87.6131 161.926C87.6131 161.338 87.7691 160.825 88.0811 160.387C88.3931 159.949 88.8311 159.61 89.3951 159.37C89.9651 159.13 90.6311 159.01 91.3931 159.01C92.1371 159.01 92.8001 159.127 93.3821 159.361C93.9641 159.595 94.4351 159.928 94.7951 160.36C95.1551 160.786 95.3711 161.287 95.4431 161.863L93.5171 162.214C93.4511 161.746 93.2321 161.377 92.8601 161.107C92.4881 160.837 92.0051 160.69 91.4111 160.666C90.8411 160.642 90.3791 160.738 90.0251 160.954C89.6711 161.164 89.4941 161.455 89.4941 161.827C89.4941 162.043 89.5601 162.226 89.6921 162.376C89.8301 162.526 90.0941 162.67 90.4841 162.808C90.8741 162.946 91.4501 163.111 92.2121 163.303C93.0281 163.513 93.6761 163.747 94.1561 164.005C94.6361 164.257 94.9781 164.56 95.1821 164.914C95.3921 165.262 95.4971 165.685 95.4971 166.183C95.4971 167.143 95.1461 167.896 94.4441 168.442C93.7481 168.988 92.7851 169.261 91.5551 169.261ZM97.8125 169V167.011H99.8015V169H97.8125Z" fill="white"/>
<path d="M27.7727 65H24.8182L33.3636 41.7273H36.2727L44.8182 65H41.8636L34.9091 45.4091H34.7273L27.7727 65ZM28.8636 55.9091H40.7727V58.4091H28.8636V55.9091ZM54.5767 47.5455V49.8182H45.5312V47.5455H54.5767ZM48.1676 43.3636H50.8494V60C50.8494 60.7576 50.9593 61.3258 51.179 61.7045C51.4063 62.0758 51.6941 62.3258 52.0426 62.4545C52.3987 62.5758 52.7737 62.6364 53.1676 62.6364C53.4631 62.6364 53.7055 62.6212 53.8949 62.5909C54.0843 62.553 54.2358 62.5227 54.3494 62.5L54.8949 64.9091C54.7131 64.9773 54.4593 65.0455 54.1335 65.1136C53.8078 65.1894 53.3949 65.2273 52.8949 65.2273C52.1373 65.2273 51.3949 65.0644 50.6676 64.7386C49.9479 64.4129 49.3494 63.9167 48.8722 63.25C48.4025 62.5833 48.1676 61.7424 48.1676 60.7273V43.3636ZM76.8835 41.7273H79.7017V58.3636C79.7017 59.8485 79.429 61.1098 78.8835 62.1477C78.3381 63.1856 77.5691 63.9735 76.5767 64.5114C75.5843 65.0492 74.4138 65.3182 73.0653 65.3182C71.7926 65.3182 70.66 65.0871 69.6676 64.625C68.6752 64.1553 67.8949 63.4886 67.3267 62.625C66.7585 61.7614 66.4744 60.7348 66.4744 59.5455H69.2472C69.2472 60.2045 69.41 60.7803 69.7358 61.2727C70.0691 61.7576 70.5237 62.1364 71.0994 62.4091C71.6752 62.6818 72.3305 62.8182 73.0653 62.8182C73.8759 62.8182 74.5653 62.6477 75.1335 62.3068C75.7017 61.9659 76.1335 61.4659 76.429 60.8068C76.732 60.1402 76.8835 59.3258 76.8835 58.3636V41.7273ZM95.9858 57.8636V47.5455H98.6676V65H95.9858V62.0455H95.804C95.3949 62.9318 94.7585 63.6856 93.8949 64.3068C93.0313 64.9205 91.9403 65.2273 90.6222 65.2273C89.5312 65.2273 88.5616 64.9886 87.7131 64.5114C86.8646 64.0265 86.1979 63.2992 85.7131 62.3295C85.2282 61.3523 84.9858 60.1212 84.9858 58.6364V47.5455H87.6676V58.4545C87.6676 59.7273 88.0237 60.7424 88.7358 61.5C89.4555 62.2576 90.3722 62.6364 91.4858 62.6364C92.1525 62.6364 92.8305 62.4659 93.5199 62.125C94.2169 61.7841 94.8002 61.2614 95.2699 60.5568C95.7472 59.8523 95.9858 58.9545 95.9858 57.8636ZM115.943 51.4545L113.534 52.1364C113.383 51.7348 113.159 51.3447 112.864 50.9659C112.576 50.5795 112.182 50.2614 111.682 50.0114C111.182 49.7614 110.542 49.6364 109.761 49.6364C108.693 49.6364 107.803 49.8826 107.091 50.375C106.386 50.8598 106.034 51.4773 106.034 52.2273C106.034 52.8939 106.277 53.4205 106.761 53.8068C107.246 54.1932 108.004 54.5152 109.034 54.7727L111.625 55.4091C113.186 55.7879 114.348 56.3674 115.114 57.1477C115.879 57.9205 116.261 58.9167 116.261 60.1364C116.261 61.1364 115.973 62.0303 115.398 62.8182C114.83 63.6061 114.034 64.2273 113.011 64.6818C111.989 65.1364 110.799 65.3636 109.443 65.3636C107.663 65.3636 106.189 64.9773 105.023 64.2045C103.856 63.4318 103.117 62.303 102.807 60.8182L105.352 60.1818C105.595 61.1212 106.053 61.8258 106.727 62.2955C107.409 62.7652 108.299 63 109.398 63C110.648 63 111.64 62.7348 112.375 62.2045C113.117 61.6667 113.489 61.0227 113.489 60.2727C113.489 59.6667 113.277 59.1591 112.852 58.75C112.428 58.3333 111.777 58.0227 110.898 57.8182L107.989 57.1364C106.39 56.7576 105.216 56.1705 104.466 55.375C103.723 54.572 103.352 53.5682 103.352 52.3636C103.352 51.3788 103.629 50.5076 104.182 49.75C104.742 48.9924 105.504 48.3977 106.466 47.9659C107.436 47.5341 108.534 47.3182 109.761 47.3182C111.489 47.3182 112.845 47.697 113.83 48.4545C114.822 49.2121 115.527 50.2121 115.943 51.4545ZM127.889 47.5455V49.8182H118.844V47.5455H127.889ZM121.48 43.3636H124.162V60C124.162 60.7576 124.272 61.3258 124.491 61.7045C124.719 62.0758 125.007 62.3258 125.355 62.4545C125.711 62.5758 126.086 62.6364 126.48 62.6364C126.776 62.6364 127.018 62.6212 127.207 62.5909C127.397 62.553 127.548 62.5227 127.662 62.5L128.207 64.9091C128.026 64.9773 127.772 65.0455 127.446 65.1136C127.12 65.1894 126.707 65.2273 126.207 65.2273C125.45 65.2273 124.707 65.0644 123.98 64.7386C123.26 64.4129 122.662 63.9167 122.185 63.25C121.715 62.5833 121.48 61.7424 121.48 60.7273V43.3636ZM154.361 47.4091L153.554 50.3864H138.474L139.293 47.4091H154.361ZM146.781 65L138.827 55.4318L138.815 52.9091H142.747C143.687 52.9091 144.471 52.7538 145.099 52.4432C145.736 52.125 146.217 51.6818 146.543 51.1136C146.876 50.5379 147.043 49.8636 147.043 49.0909C147.043 47.9318 146.702 47 146.02 46.2955C145.338 45.5909 144.247 45.2386 142.747 45.2386H138.474L139.361 41.7273H142.747C144.656 41.7273 146.236 42.0227 147.486 42.6136C148.743 43.197 149.683 44.0227 150.304 45.0909C150.933 46.1591 151.247 47.4091 151.247 48.8409C151.247 50.1061 151.016 51.2348 150.554 52.2273C150.092 53.2197 149.365 54.0341 148.372 54.6705C147.38 55.3068 146.08 55.7311 144.474 55.9432L144.338 55.9886L151.52 64.7955V65H146.781ZM154.384 41.7273L153.554 44.75L141.327 44.7045L142.156 41.7273H154.384ZM157.054 60.6818V57.3295L166.929 41.7273H169.724V46.5H168.02L161.372 57.0341V57.2159H175.156V60.6818H157.054ZM168.156 65V59.6591L168.202 58.1591V41.7273H172.179V65H168.156ZM186.866 41.4091C187.98 41.4167 189.063 41.6136 190.116 42C191.177 42.3788 192.132 43 192.98 43.8636C193.829 44.7197 194.503 45.8674 195.003 47.3068C195.503 48.7462 195.753 50.5265 195.753 52.6477C195.76 54.6477 195.548 56.4356 195.116 58.0114C194.692 59.5795 194.082 60.9053 193.287 61.9886C192.491 63.072 191.533 63.8977 190.412 64.4659C189.291 65.0341 188.029 65.3182 186.628 65.3182C185.158 65.3182 183.855 65.0303 182.719 64.4545C181.59 63.8788 180.677 63.0909 179.98 62.0909C179.283 61.0909 178.855 59.947 178.696 58.6591H182.844C183.056 59.5833 183.488 60.3182 184.139 60.8636C184.798 61.4015 185.628 61.6705 186.628 61.6705C188.241 61.6705 189.484 60.9697 190.355 59.5682C191.226 58.1667 191.662 56.2197 191.662 53.7273H191.503C191.132 54.3939 190.651 54.9697 190.06 55.4545C189.469 55.9318 188.798 56.2992 188.048 56.5568C187.306 56.8144 186.518 56.9432 185.685 56.9432C184.321 56.9432 183.094 56.6174 182.003 55.9659C180.92 55.3144 180.06 54.4205 179.423 53.2841C178.795 52.1477 178.476 50.8485 178.469 49.3864C178.469 47.8712 178.817 46.5114 179.514 45.3068C180.219 44.0947 181.2 43.1402 182.457 42.4432C183.715 41.7386 185.185 41.3939 186.866 41.4091ZM186.878 44.8182C186.06 44.8182 185.321 45.0189 184.662 45.4205C184.01 45.8144 183.495 46.3523 183.116 47.0341C182.745 47.7083 182.56 48.4621 182.56 49.2955C182.567 50.1212 182.753 50.8712 183.116 51.5455C183.488 52.2197 183.991 52.7538 184.628 53.1477C185.272 53.5417 186.007 53.7386 186.832 53.7386C187.446 53.7386 188.018 53.6212 188.548 53.3864C189.079 53.1515 189.541 52.8258 189.935 52.4091C190.336 51.9848 190.647 51.5038 190.866 50.9659C191.094 50.428 191.204 49.8598 191.196 49.2614C191.196 48.4659 191.007 47.7311 190.628 47.0568C190.257 46.3826 189.745 45.8409 189.094 45.4318C188.45 45.0227 187.711 44.8182 186.878 44.8182ZM207.616 41.4091C208.73 41.4167 209.813 41.6136 210.866 42C211.927 42.3788 212.882 43 213.73 43.8636C214.579 44.7197 215.253 45.8674 215.753 47.3068C216.253 48.7462 216.503 50.5265 216.503 52.6477C216.51 54.6477 216.298 56.4356 215.866 58.0114C215.442 59.5795 214.832 60.9053 214.037 61.9886C213.241 63.072 212.283 63.8977 211.162 64.4659C210.041 65.0341 208.779 65.3182 207.378 65.3182C205.908 65.3182 204.605 65.0303 203.469 64.4545C202.34 63.8788 201.427 63.0909 200.73 62.0909C200.033 61.0909 199.605 59.947 199.446 58.6591H203.594C203.806 59.5833 204.238 60.3182 204.889 60.8636C205.548 61.4015 206.378 61.6705 207.378 61.6705C208.991 61.6705 210.234 60.9697 211.105 59.5682C211.976 58.1667 212.412 56.2197 212.412 53.7273H212.253C211.882 54.3939 211.401 54.9697 210.81 55.4545C210.219 55.9318 209.548 56.2992 208.798 56.5568C208.056 56.8144 207.268 56.9432 206.435 56.9432C205.071 56.9432 203.844 56.6174 202.753 55.9659C201.67 55.3144 200.81 54.4205 200.173 53.2841C199.545 52.1477 199.226 50.8485 199.219 49.3864C199.219 47.8712 199.567 46.5114 200.264 45.3068C200.969 44.0947 201.95 43.1402 203.207 42.4432C204.465 41.7386 205.935 41.3939 207.616 41.4091ZM207.628 44.8182C206.81 44.8182 206.071 45.0189 205.412 45.4205C204.76 45.8144 204.245 46.3523 203.866 47.0341C203.495 47.7083 203.31 48.4621 203.31 49.2955C203.317 50.1212 203.503 50.8712 203.866 51.5455C204.238 52.2197 204.741 52.7538 205.378 53.1477C206.022 53.5417 206.757 53.7386 207.582 53.7386C208.196 53.7386 208.768 53.6212 209.298 53.3864C209.829 53.1515 210.291 52.8258 210.685 52.4091C211.086 51.9848 211.397 51.5038 211.616 50.9659C211.844 50.428 211.954 49.8598 211.946 49.2614C211.946 48.4659 211.757 47.7311 211.378 47.0568C211.007 46.3826 210.495 45.8409 209.844 45.4318C209.2 45.0227 208.461 44.8182 207.628 44.8182ZM229.832 40.6364L222.332 68.5H218.73L226.23 40.6364H229.832ZM243.037 53.6136V57H232.56V53.6136H243.037Z" fill="white"/>
<path d="M29.9574 99.1818V100.716H24.4091V99.1818H29.9574ZM25.9304 109V98.044C25.9304 97.4304 26.0646 96.9212 26.3331 96.5163C26.6016 96.1072 26.9574 95.8026 27.4006 95.6023C27.8438 95.3977 28.3253 95.2955 28.8452 95.2955C29.2287 95.2955 29.5568 95.3274 29.8295 95.3913C30.1023 95.451 30.3047 95.5064 30.4368 95.5575L29.9893 97.1044C29.8999 97.0788 29.7848 97.049 29.6442 97.0149C29.5036 96.9766 29.3331 96.9574 29.1328 96.9574C28.6683 96.9574 28.3359 97.0724 28.1357 97.3026C27.9396 97.5327 27.8416 97.8651 27.8416 98.2997V109H25.9304ZM35.6783 109.198C34.7578 109.198 33.9545 108.987 33.2685 108.565C32.5824 108.143 32.0497 107.553 31.6705 106.795C31.2912 106.036 31.1016 105.15 31.1016 104.136C31.1016 103.117 31.2912 102.227 31.6705 101.464C32.0497 100.701 32.5824 100.109 33.2685 99.6868C33.9545 99.2649 34.7578 99.054 35.6783 99.054C36.5987 99.054 37.402 99.2649 38.0881 99.6868C38.7741 100.109 39.3068 100.701 39.6861 101.464C40.0653 102.227 40.255 103.117 40.255 104.136C40.255 105.15 40.0653 106.036 39.6861 106.795C39.3068 107.553 38.7741 108.143 38.0881 108.565C37.402 108.987 36.5987 109.198 35.6783 109.198ZM35.6847 107.594C36.2813 107.594 36.7756 107.436 37.1676 107.121C37.5597 106.805 37.8494 106.386 38.0369 105.862C38.2287 105.337 38.3246 104.76 38.3246 104.129C38.3246 103.503 38.2287 102.928 38.0369 102.403C37.8494 101.875 37.5597 101.451 37.1676 101.131C36.7756 100.812 36.2813 100.652 35.6847 100.652C35.0838 100.652 34.5852 100.812 34.1889 101.131C33.7969 101.451 33.505 101.875 33.3132 102.403C33.1257 102.928 33.032 103.503 33.032 104.129C33.032 104.76 33.1257 105.337 33.3132 105.862C33.505 106.386 33.7969 106.805 34.1889 107.121C34.5852 107.436 35.0838 107.594 35.6847 107.594ZM42.3883 109V99.1818H44.2356V100.741H44.3379C44.5169 100.213 44.8322 99.7976 45.2839 99.495C45.7399 99.1882 46.2555 99.0348 46.8308 99.0348C46.9501 99.0348 47.0907 99.0391 47.2527 99.0476C47.4189 99.0561 47.5488 99.0668 47.6426 99.0795V100.908C47.5659 100.886 47.4295 100.863 47.2335 100.837C47.0375 100.808 46.8414 100.793 46.6454 100.793C46.1937 100.793 45.791 100.888 45.4373 101.08C45.0879 101.268 44.8109 101.53 44.6064 101.866C44.4018 102.199 44.2995 102.578 44.2995 103.004V109H42.3883ZM56.9174 109.217C56.2953 109.217 55.7328 109.102 55.2299 108.872C54.7271 108.638 54.3287 108.299 54.0346 107.856C53.7449 107.413 53.6 106.869 53.6 106.226C53.6 105.672 53.7065 105.216 53.9196 104.858C54.1326 104.5 54.4203 104.217 54.7825 104.008C55.1447 103.799 55.5495 103.641 55.997 103.535C56.4444 103.428 56.9004 103.347 57.3649 103.292C57.9529 103.224 58.4302 103.168 58.7967 103.126C59.1632 103.079 59.4295 103.004 59.5957 102.902C59.7619 102.8 59.845 102.634 59.845 102.403V102.359C59.845 101.8 59.6873 101.368 59.372 101.061C59.0609 100.754 58.5964 100.601 57.9785 100.601C57.335 100.601 56.8279 100.744 56.4572 101.029C56.0907 101.31 55.8372 101.624 55.6966 101.969L53.9004 101.56C54.1135 100.963 54.4245 100.482 54.8336 100.115C55.247 99.7443 55.7221 99.4759 56.2591 99.3097C56.796 99.1392 57.3606 99.054 57.9529 99.054C58.345 99.054 58.7605 99.1009 59.1994 99.1946C59.6426 99.2841 60.0559 99.4503 60.4395 99.6932C60.8272 99.9361 61.1447 100.283 61.3919 100.735C61.639 101.183 61.7626 101.764 61.7626 102.48V109H59.8961V107.658H59.8194C59.6958 107.905 59.5105 108.148 59.2633 108.386C59.0162 108.625 58.6987 108.823 58.3109 108.981C57.9231 109.138 57.4586 109.217 56.9174 109.217ZM57.3329 107.683C57.8613 107.683 58.313 107.579 58.688 107.37C59.0673 107.161 59.3549 106.888 59.551 106.552C59.7512 106.211 59.8514 105.847 59.8514 105.459V104.193C59.7832 104.261 59.6511 104.325 59.4551 104.385C59.2633 104.44 59.0439 104.489 58.7967 104.532C58.5495 104.57 58.3088 104.607 58.0744 104.641C57.84 104.67 57.644 104.696 57.4863 104.717C57.1156 104.764 56.7768 104.843 56.47 104.954C56.1674 105.065 55.9245 105.224 55.7413 105.433C55.5623 105.638 55.4728 105.911 55.4728 106.251C55.4728 106.724 55.6475 107.082 55.997 107.325C56.3464 107.564 56.7917 107.683 57.3329 107.683ZM68.7715 106.443V104.845L74.4284 95.9091H75.6877V98.2614H74.8887L70.8425 104.666V104.768H78.5961V106.443H68.7715ZM74.9782 109V105.957L74.9909 105.229V95.9091H76.8638V109H74.9782ZM85.1447 109.179C84.3436 109.179 83.6234 109.026 82.9842 108.719C82.3493 108.408 81.8422 107.982 81.4629 107.44C81.0836 106.899 80.8812 106.281 80.8556 105.587H82.7733C82.8201 106.149 83.0694 106.612 83.5211 106.974C83.9728 107.336 84.514 107.517 85.1447 107.517C85.6475 107.517 86.0929 107.402 86.4806 107.172C86.8727 106.938 87.1795 106.616 87.4011 106.207C87.627 105.798 87.7399 105.331 87.7399 104.807C87.7399 104.274 87.6248 103.799 87.3947 103.381C87.1646 102.964 86.8471 102.636 86.4423 102.397C86.0417 102.158 85.5815 102.037 85.0616 102.033C84.6653 102.033 84.2669 102.101 83.8663 102.237C83.4657 102.374 83.1419 102.553 82.8947 102.774L81.0858 102.506L81.8208 95.9091H89.0183V97.603H83.4636L83.0481 101.266H83.1248C83.3805 101.018 83.7193 100.812 84.1412 100.646C84.5673 100.479 85.0233 100.396 85.5091 100.396C86.3059 100.396 87.0154 100.586 87.6376 100.965C88.264 101.344 88.7562 101.862 89.1142 102.518C89.4764 103.17 89.6554 103.92 89.6511 104.768C89.6554 105.616 89.4636 106.373 89.0758 107.038C88.6923 107.702 88.1596 108.227 87.4778 108.61C86.8002 108.989 86.0225 109.179 85.1447 109.179ZM96.775 109V99.1818H98.6096V100.78H98.731C98.9355 100.239 99.2701 99.8168 99.7346 99.5142C100.199 99.2074 100.755 99.054 101.403 99.054C102.059 99.054 102.609 99.2074 103.052 99.5142C103.499 99.821 103.83 100.243 104.043 100.78H104.145C104.379 100.256 104.752 99.8381 105.264 99.527C105.775 99.2116 106.384 99.054 107.092 99.054C107.982 99.054 108.709 99.3331 109.271 99.8913C109.838 100.45 110.122 101.291 110.122 102.416V109H108.21V102.595C108.21 101.93 108.029 101.449 107.667 101.151C107.305 100.852 106.872 100.703 106.369 100.703C105.747 100.703 105.264 100.895 104.919 101.278C104.573 101.658 104.401 102.146 104.401 102.742V109H102.496V102.474C102.496 101.941 102.33 101.513 101.997 101.189C101.665 100.865 101.232 100.703 100.7 100.703C100.338 100.703 100.003 100.799 99.6962 100.991C99.3936 101.178 99.1486 101.44 98.9611 101.777C98.7779 102.114 98.6863 102.504 98.6863 102.947V109H96.775ZM112.683 109V99.1818H114.594V109H112.683ZM113.648 97.6669C113.316 97.6669 113.031 97.5561 112.792 97.3345C112.558 97.1087 112.44 96.8402 112.44 96.5291C112.44 96.2138 112.558 95.9453 112.792 95.7237C113.031 95.4979 113.316 95.3849 113.648 95.3849C113.981 95.3849 114.264 95.4979 114.499 95.7237C114.737 95.9453 114.857 96.2138 114.857 96.5291C114.857 96.8402 114.737 97.1087 114.499 97.3345C114.264 97.5561 113.981 97.6669 113.648 97.6669ZM119.077 103.17V109H117.166V99.1818H119V100.78H119.122C119.347 100.26 119.701 99.8423 120.183 99.527C120.669 99.2116 121.28 99.054 122.017 99.054C122.686 99.054 123.272 99.1946 123.775 99.4759C124.278 99.7528 124.668 100.166 124.945 100.716C125.222 101.266 125.36 101.945 125.36 102.755V109H123.449V102.985C123.449 102.273 123.264 101.717 122.893 101.317C122.522 100.912 122.013 100.71 121.365 100.71C120.922 100.71 120.528 100.805 120.183 100.997C119.842 101.189 119.571 101.47 119.371 101.841C119.175 102.207 119.077 102.651 119.077 103.17ZM135.281 101.579L133.548 101.886C133.476 101.664 133.361 101.453 133.203 101.253C133.05 101.053 132.841 100.888 132.577 100.761C132.313 100.633 131.982 100.569 131.586 100.569C131.045 100.569 130.593 100.69 130.231 100.933C129.869 101.172 129.688 101.481 129.688 101.86C129.688 102.188 129.809 102.452 130.052 102.653C130.295 102.853 130.687 103.017 131.228 103.145L132.788 103.503C133.691 103.712 134.365 104.033 134.808 104.468C135.251 104.903 135.472 105.467 135.472 106.162C135.472 106.75 135.302 107.274 134.961 107.734C134.624 108.19 134.154 108.548 133.548 108.808C132.948 109.068 132.251 109.198 131.458 109.198C130.359 109.198 129.462 108.964 128.767 108.495C128.073 108.022 127.646 107.351 127.489 106.482L129.336 106.2C129.451 106.682 129.688 107.046 130.046 107.293C130.404 107.536 130.87 107.658 131.445 107.658C132.072 107.658 132.573 107.528 132.948 107.268C133.323 107.004 133.51 106.682 133.51 106.303C133.51 105.996 133.395 105.738 133.165 105.529C132.939 105.32 132.592 105.163 132.123 105.056L130.461 104.692C129.545 104.483 128.867 104.151 128.428 103.695C127.994 103.239 127.776 102.661 127.776 101.962C127.776 101.383 127.938 100.876 128.262 100.441C128.586 100.006 129.034 99.6676 129.605 99.4247C130.176 99.1776 130.83 99.054 131.567 99.054C132.628 99.054 133.463 99.2841 134.073 99.7443C134.682 100.2 135.085 100.812 135.281 101.579ZM146.473 109.198C145.523 109.198 144.705 108.983 144.019 108.553C143.337 108.118 142.813 107.519 142.446 106.756C142.08 105.994 141.896 105.12 141.896 104.136C141.896 103.138 142.084 102.259 142.459 101.496C142.834 100.729 143.362 100.13 144.044 99.6996C144.726 99.2692 145.529 99.054 146.454 99.054C147.2 99.054 147.865 99.1925 148.448 99.4695C149.032 99.7422 149.503 100.126 149.861 100.62C150.223 101.114 150.438 101.692 150.507 102.352H148.646C148.544 101.892 148.31 101.496 147.943 101.163C147.581 100.831 147.095 100.665 146.486 100.665C145.953 100.665 145.487 100.805 145.086 101.087C144.69 101.364 144.381 101.76 144.159 102.276C143.938 102.787 143.827 103.392 143.827 104.091C143.827 104.807 143.936 105.425 144.153 105.945C144.37 106.464 144.677 106.867 145.073 107.153C145.474 107.438 145.945 107.581 146.486 107.581C146.848 107.581 147.176 107.515 147.47 107.383C147.769 107.246 148.018 107.053 148.218 106.801C148.423 106.55 148.566 106.247 148.646 105.893H150.507C150.438 106.528 150.232 107.095 149.887 107.594C149.541 108.092 149.079 108.484 148.499 108.77C147.924 109.055 147.249 109.198 146.473 109.198ZM155.408 109.217C154.786 109.217 154.223 109.102 153.72 108.872C153.217 108.638 152.819 108.299 152.525 107.856C152.235 107.413 152.09 106.869 152.09 106.226C152.09 105.672 152.197 105.216 152.41 104.858C152.623 104.5 152.911 104.217 153.273 104.008C153.635 103.799 154.04 103.641 154.487 103.535C154.935 103.428 155.391 103.347 155.855 103.292C156.443 103.224 156.92 103.168 157.287 103.126C157.653 103.079 157.92 103.004 158.086 102.902C158.252 102.8 158.335 102.634 158.335 102.403V102.359C158.335 101.8 158.178 101.368 157.862 101.061C157.551 100.754 157.087 100.601 156.469 100.601C155.825 100.601 155.318 100.744 154.947 101.029C154.581 101.31 154.327 101.624 154.187 101.969L152.391 101.56C152.604 100.963 152.915 100.482 153.324 100.115C153.737 99.7443 154.212 99.4759 154.749 99.3097C155.286 99.1392 155.851 99.054 156.443 99.054C156.835 99.054 157.251 99.1009 157.69 99.1946C158.133 99.2841 158.546 99.4503 158.93 99.6932C159.317 99.9361 159.635 100.283 159.882 100.735C160.129 101.183 160.253 101.764 160.253 102.48V109H158.386V107.658H158.31C158.186 107.905 158.001 108.148 157.754 108.386C157.506 108.625 157.189 108.823 156.801 108.981C156.413 109.138 155.949 109.217 155.408 109.217ZM155.823 107.683C156.352 107.683 156.803 107.579 157.178 107.37C157.558 107.161 157.845 106.888 158.041 106.552C158.241 106.211 158.342 105.847 158.342 105.459V104.193C158.273 104.261 158.141 104.325 157.945 104.385C157.754 104.44 157.534 104.489 157.287 104.532C157.04 104.57 156.799 104.607 156.565 104.641C156.33 104.67 156.134 104.696 155.977 104.717C155.606 104.764 155.267 104.843 154.96 104.954C154.658 105.065 154.415 105.224 154.232 105.433C154.053 105.638 153.963 105.911 153.963 106.251C153.963 106.724 154.138 107.082 154.487 107.325C154.837 107.564 155.282 107.683 155.823 107.683ZM164.71 95.9091V109H162.798V95.9091H164.71ZM169.192 95.9091V109H167.281V95.9091H169.192ZM177.083 103.567C177.083 101.964 177.294 100.49 177.716 99.1435C178.138 97.7969 178.754 96.5547 179.563 95.4169H181.315C180.999 95.8388 180.705 96.3565 180.433 96.9702C180.16 97.5838 179.921 98.2571 179.717 98.9901C179.512 99.7187 179.352 100.475 179.237 101.259C179.122 102.039 179.065 102.808 179.065 103.567C179.065 104.581 179.165 105.608 179.365 106.648C179.565 107.687 179.836 108.653 180.177 109.543C180.518 110.434 180.897 111.161 181.315 111.723H179.563C178.754 110.585 178.138 109.343 177.716 107.996C177.294 106.65 177.083 105.173 177.083 103.567ZM191.941 106.801V98.1591H193.661V106.801H191.941ZM188.483 103.337V101.624H197.125V103.337H188.483ZM205.023 95.9091V109H203.041V97.8906H202.964L199.832 99.9361V98.044L203.099 95.9091H205.023ZM212.885 109.179C212.084 109.179 211.364 109.026 210.724 108.719C210.089 108.408 209.582 107.982 209.203 107.44C208.824 106.899 208.621 106.281 208.596 105.587H210.513C210.56 106.149 210.81 106.612 211.261 106.974C211.713 107.336 212.254 107.517 212.885 107.517C213.388 107.517 213.833 107.402 214.221 107.172C214.613 106.938 214.92 106.616 215.141 106.207C215.367 105.798 215.48 105.331 215.48 104.807C215.48 104.274 215.365 103.799 215.135 103.381C214.905 102.964 214.587 102.636 214.183 102.397C213.782 102.158 213.322 102.037 212.802 102.033C212.406 102.033 212.007 102.101 211.607 102.237C211.206 102.374 210.882 102.553 210.635 102.774L208.826 102.506L209.561 95.9091H216.759V97.603H211.204L210.788 101.266H210.865C211.121 101.018 211.46 100.812 211.881 100.646C212.308 100.479 212.763 100.396 213.249 100.396C214.046 100.396 214.756 100.586 215.378 100.965C216.004 101.344 216.496 101.862 216.854 102.518C217.217 103.17 217.396 103.92 217.391 104.768C217.396 105.616 217.204 106.373 216.816 107.038C216.433 107.702 215.9 108.227 215.218 108.61C214.54 108.989 213.763 109.179 212.885 109.179ZM224.515 109V99.1818H226.35V100.78H226.471C226.676 100.239 227.01 99.8168 227.475 99.5142C227.939 99.2074 228.495 99.054 229.143 99.054C229.799 99.054 230.349 99.2074 230.792 99.5142C231.24 99.821 231.57 100.243 231.783 100.78H231.885C232.12 100.256 232.493 99.8381 233.004 99.527C233.515 99.2116 234.125 99.054 234.832 99.054C235.723 99.054 236.449 99.3331 237.012 99.8913C237.578 100.45 237.862 101.291 237.862 102.416V109H235.951V102.595C235.951 101.93 235.77 101.449 235.407 101.151C235.045 100.852 234.613 100.703 234.11 100.703C233.488 100.703 233.004 100.895 232.659 101.278C232.314 101.658 232.141 102.146 232.141 102.742V109H230.236V102.474C230.236 101.941 230.07 101.513 229.738 101.189C229.405 100.865 228.973 100.703 228.44 100.703C228.078 100.703 227.743 100.799 227.436 100.991C227.134 101.178 226.889 101.44 226.701 101.777C226.518 102.114 226.426 102.504 226.426 102.947V109H224.515ZM240.423 109V99.1818H242.335V109H240.423ZM241.389 97.6669C241.056 97.6669 240.771 97.5561 240.532 97.3345C240.298 97.1087 240.181 96.8402 240.181 96.5291C240.181 96.2138 240.298 95.9453 240.532 95.7237C240.771 95.4979 241.056 95.3849 241.389 95.3849C241.721 95.3849 242.004 95.4979 242.239 95.7237C242.477 95.9453 242.597 96.2138 242.597 96.5291C242.597 96.8402 242.477 97.1087 242.239 97.3345C242.004 97.5561 241.721 97.6669 241.389 97.6669ZM246.817 103.17V109H244.906V99.1818H246.74V100.78H246.862C247.088 100.26 247.441 99.8423 247.923 99.527C248.409 99.2116 249.02 99.054 249.757 99.054C250.426 99.054 251.012 99.1946 251.515 99.4759C252.018 99.7528 252.408 100.166 252.685 100.716C252.962 101.266 253.1 101.945 253.1 102.755V109H251.189V102.985C251.189 102.273 251.004 101.717 250.633 101.317C250.262 100.912 249.753 100.71 249.105 100.71C248.662 100.71 248.268 100.805 247.923 100.997C247.582 101.189 247.311 101.47 247.111 101.841C246.915 102.207 246.817 102.651 246.817 103.17ZM263.021 101.579L261.289 101.886C261.216 101.664 261.101 101.453 260.944 101.253C260.79 101.053 260.581 100.888 260.317 100.761C260.053 100.633 259.723 100.569 259.326 100.569C258.785 100.569 258.333 100.69 257.971 100.933C257.609 101.172 257.428 101.481 257.428 101.86C257.428 102.188 257.549 102.452 257.792 102.653C258.035 102.853 258.427 103.017 258.968 103.145L260.528 103.503C261.431 103.712 262.105 104.033 262.548 104.468C262.991 104.903 263.213 105.467 263.213 106.162C263.213 106.75 263.042 107.274 262.701 107.734C262.365 108.19 261.894 108.548 261.289 108.808C260.688 109.068 259.991 109.198 259.199 109.198C258.099 109.198 257.202 108.964 256.507 108.495C255.813 108.022 255.387 107.351 255.229 106.482L257.076 106.2C257.191 106.682 257.428 107.046 257.786 107.293C258.144 107.536 258.61 107.658 259.186 107.658C259.812 107.658 260.313 107.528 260.688 107.268C261.063 107.004 261.25 106.682 261.25 106.303C261.25 105.996 261.135 105.738 260.905 105.529C260.679 105.32 260.332 105.163 259.863 105.056L258.201 104.692C257.285 104.483 256.608 104.151 256.169 103.695C255.734 103.239 255.517 102.661 255.517 101.962C255.517 101.383 255.679 100.876 256.002 100.441C256.326 100.006 256.774 99.6676 257.345 99.4247C257.916 99.1776 258.57 99.054 259.307 99.054C260.368 99.054 261.203 99.2841 261.813 99.7443C262.422 100.2 262.825 100.812 263.021 101.579ZM273.753 109.192C272.961 109.192 272.253 108.989 271.631 108.585C271.013 108.175 270.527 107.594 270.174 106.839C269.824 106.081 269.65 105.171 269.65 104.11C269.65 103.049 269.826 102.141 270.18 101.387C270.538 100.633 271.028 100.055 271.65 99.6548C272.272 99.2543 272.978 99.054 273.766 99.054C274.375 99.054 274.865 99.1562 275.236 99.3608C275.611 99.5611 275.901 99.7955 276.105 100.064C276.314 100.332 276.476 100.569 276.591 100.773H276.706V95.9091H278.618V109H276.751V107.472H276.591C276.476 107.681 276.31 107.92 276.093 108.188C275.88 108.457 275.586 108.691 275.211 108.891C274.836 109.092 274.35 109.192 273.753 109.192ZM274.175 107.562C274.725 107.562 275.189 107.417 275.569 107.127C275.952 106.833 276.242 106.426 276.438 105.906C276.638 105.386 276.738 104.781 276.738 104.091C276.738 103.409 276.64 102.812 276.444 102.301C276.248 101.79 275.961 101.391 275.581 101.106C275.202 100.82 274.733 100.678 274.175 100.678C273.6 100.678 273.12 100.827 272.737 101.125C272.353 101.423 272.064 101.83 271.868 102.346C271.676 102.862 271.58 103.443 271.58 104.091C271.58 104.747 271.678 105.337 271.874 105.862C272.07 106.386 272.36 106.801 272.743 107.108C273.131 107.411 273.608 107.562 274.175 107.562ZM281.345 109V99.1818H283.257V109H281.345ZM282.311 97.6669C281.978 97.6669 281.693 97.5561 281.454 97.3345C281.22 97.1087 281.102 96.8402 281.102 96.5291C281.102 96.2138 281.22 95.9453 281.454 95.7237C281.693 95.4979 281.978 95.3849 282.311 95.3849C282.643 95.3849 282.926 95.4979 283.161 95.7237C283.399 95.9453 283.519 96.2138 283.519 96.5291C283.519 96.8402 283.399 97.1087 283.161 97.3345C282.926 97.5561 282.643 97.6669 282.311 97.6669ZM293.185 101.579L291.453 101.886C291.38 101.664 291.265 101.453 291.108 101.253C290.954 101.053 290.745 100.888 290.481 100.761C290.217 100.633 289.887 100.569 289.49 100.569C288.949 100.569 288.498 100.69 288.135 100.933C287.773 101.172 287.592 101.481 287.592 101.86C287.592 102.188 287.713 102.452 287.956 102.653C288.199 102.853 288.591 103.017 289.132 103.145L290.692 103.503C291.596 103.712 292.269 104.033 292.712 104.468C293.155 104.903 293.377 105.467 293.377 106.162C293.377 106.75 293.206 107.274 292.865 107.734C292.529 108.19 292.058 108.548 291.453 108.808C290.852 109.068 290.155 109.198 289.363 109.198C288.263 109.198 287.366 108.964 286.672 108.495C285.977 108.022 285.551 107.351 285.393 106.482L287.24 106.2C287.355 106.682 287.592 107.046 287.95 107.293C288.308 107.536 288.775 107.658 289.35 107.658C289.976 107.658 290.477 107.528 290.852 107.268C291.227 107.004 291.414 106.682 291.414 106.303C291.414 105.996 291.299 105.738 291.069 105.529C290.843 105.32 290.496 105.163 290.027 105.056L288.365 104.692C287.449 104.483 286.772 104.151 286.333 103.695C285.898 103.239 285.681 102.661 285.681 101.962C285.681 101.383 285.843 100.876 286.167 100.441C286.49 100.006 286.938 99.6676 287.509 99.4247C288.08 99.1776 288.734 99.054 289.471 99.054C290.532 99.054 291.368 99.2841 291.977 99.7443C292.586 100.2 292.989 100.812 293.185 101.579ZM299.614 109.198C298.664 109.198 297.845 108.983 297.159 108.553C296.477 108.118 295.953 107.519 295.587 106.756C295.22 105.994 295.037 105.12 295.037 104.136C295.037 103.138 295.225 102.259 295.6 101.496C295.975 100.729 296.503 100.13 297.185 99.6996C297.867 99.2692 298.67 99.054 299.595 99.054C300.34 99.054 301.005 99.1925 301.589 99.4695C302.173 99.7422 302.644 100.126 303.002 100.62C303.364 101.114 303.579 101.692 303.647 102.352H301.787C301.685 101.892 301.45 101.496 301.084 101.163C300.722 100.831 300.236 100.665 299.627 100.665C299.094 100.665 298.627 100.805 298.227 101.087C297.83 101.364 297.521 101.76 297.3 102.276C297.078 102.787 296.968 103.392 296.968 104.091C296.968 104.807 297.076 105.425 297.294 105.945C297.511 106.464 297.818 106.867 298.214 107.153C298.615 107.438 299.085 107.581 299.627 107.581C299.989 107.581 300.317 107.515 300.611 107.383C300.909 107.246 301.159 107.053 301.359 106.801C301.563 106.55 301.706 106.247 301.787 105.893H303.647C303.579 106.528 303.372 107.095 303.027 107.594C302.682 108.092 302.22 108.484 301.64 108.77C301.065 109.055 300.389 109.198 299.614 109.198ZM311.911 104.928V99.1818H313.828V109H311.949V107.3H311.847C311.621 107.824 311.259 108.261 310.76 108.61C310.266 108.955 309.65 109.128 308.913 109.128C308.282 109.128 307.724 108.989 307.238 108.712C306.756 108.431 306.377 108.016 306.1 107.466C305.827 106.916 305.691 106.237 305.691 105.427V99.1818H307.602V105.197C307.602 105.866 307.788 106.398 308.158 106.795C308.529 107.191 309.011 107.389 309.603 107.389C309.961 107.389 310.317 107.3 310.67 107.121C311.028 106.942 311.325 106.671 311.559 106.309C311.798 105.947 311.915 105.487 311.911 104.928ZM323.753 101.579L322.021 101.886C321.949 101.664 321.834 101.453 321.676 101.253C321.523 101.053 321.314 100.888 321.05 100.761C320.785 100.633 320.455 100.569 320.059 100.569C319.518 100.569 319.066 100.69 318.704 100.933C318.341 101.172 318.16 101.481 318.16 101.86C318.16 102.188 318.282 102.452 318.525 102.653C318.768 102.853 319.16 103.017 319.701 103.145L321.26 103.503C322.164 103.712 322.837 104.033 323.28 104.468C323.724 104.903 323.945 105.467 323.945 106.162C323.945 106.75 323.775 107.274 323.434 107.734C323.097 108.19 322.626 108.548 322.021 108.808C321.42 109.068 320.724 109.198 319.931 109.198C318.831 109.198 317.934 108.964 317.24 108.495C316.545 108.022 316.119 107.351 315.961 106.482L317.809 106.2C317.924 106.682 318.16 107.046 318.518 107.293C318.876 107.536 319.343 107.658 319.918 107.658C320.545 107.658 321.045 107.528 321.42 107.268C321.795 107.004 321.983 106.682 321.983 106.303C321.983 105.996 321.868 105.738 321.638 105.529C321.412 105.32 321.064 105.163 320.596 105.056L318.934 104.692C318.018 104.483 317.34 104.151 316.901 103.695C316.466 103.239 316.249 102.661 316.249 101.962C316.249 101.383 316.411 100.876 316.735 100.441C317.059 100.006 317.506 99.6676 318.077 99.4247C318.648 99.1776 319.302 99.054 320.04 99.054C321.101 99.054 321.936 99.2841 322.545 99.7443C323.155 100.2 323.557 100.812 323.753 101.579ZM333.404 101.579L331.672 101.886C331.599 101.664 331.484 101.453 331.326 101.253C331.173 101.053 330.964 100.888 330.7 100.761C330.436 100.633 330.105 100.569 329.709 100.569C329.168 100.569 328.716 100.69 328.354 100.933C327.992 101.172 327.811 101.481 327.811 101.86C327.811 102.188 327.932 102.452 328.175 102.653C328.418 102.853 328.81 103.017 329.351 103.145L330.911 103.503C331.814 103.712 332.488 104.033 332.931 104.468C333.374 104.903 333.596 105.467 333.596 106.162C333.596 106.75 333.425 107.274 333.084 107.734C332.748 108.19 332.277 108.548 331.672 108.808C331.071 109.068 330.374 109.198 329.581 109.198C328.482 109.198 327.585 108.964 326.89 108.495C326.196 108.022 325.77 107.351 325.612 106.482L327.459 106.2C327.574 106.682 327.811 107.046 328.169 107.293C328.527 107.536 328.993 107.658 329.569 107.658C330.195 107.658 330.696 107.528 331.071 107.268C331.446 107.004 331.633 106.682 331.633 106.303C331.633 105.996 331.518 105.738 331.288 105.529C331.062 105.32 330.715 105.163 330.246 105.056L328.584 104.692C327.668 104.483 326.99 104.151 326.551 103.695C326.117 103.239 325.9 102.661 325.9 101.962C325.9 101.383 326.061 100.876 326.385 100.441C326.709 100.006 327.157 99.6676 327.728 99.4247C328.299 99.1776 328.953 99.054 329.69 99.054C330.751 99.054 331.586 99.2841 332.196 99.7443C332.805 100.2 333.208 100.812 333.404 101.579ZM335.697 109V99.1818H337.608V109H335.697ZM336.662 97.6669C336.33 97.6669 336.044 97.5561 335.806 97.3345C335.571 97.1087 335.454 96.8402 335.454 96.5291C335.454 96.2138 335.571 95.9453 335.806 95.7237C336.044 95.4979 336.33 95.3849 336.662 95.3849C336.994 95.3849 337.278 95.4979 337.512 95.7237C337.751 95.9453 337.87 96.2138 337.87 96.5291C337.87 96.8402 337.751 97.1087 337.512 97.3345C337.278 97.5561 336.994 97.6669 336.662 97.6669ZM344.315 109.198C343.395 109.198 342.591 108.987 341.905 108.565C341.219 108.143 340.686 107.553 340.307 106.795C339.928 106.036 339.738 105.15 339.738 104.136C339.738 103.117 339.928 102.227 340.307 101.464C340.686 100.701 341.219 100.109 341.905 99.6868C342.591 99.2649 343.395 99.054 344.315 99.054C345.235 99.054 346.039 99.2649 346.725 99.6868C347.411 100.109 347.944 100.701 348.323 101.464C348.702 102.227 348.892 103.117 348.892 104.136C348.892 105.15 348.702 106.036 348.323 106.795C347.944 107.553 347.411 108.143 346.725 108.565C346.039 108.987 345.235 109.198 344.315 109.198ZM344.321 107.594C344.918 107.594 345.412 107.436 345.804 107.121C346.196 106.805 346.486 106.386 346.674 105.862C346.865 105.337 346.961 104.76 346.961 104.129C346.961 103.503 346.865 102.928 346.674 102.403C346.486 101.875 346.196 101.451 345.804 101.131C345.412 100.812 344.918 100.652 344.321 100.652C343.721 100.652 343.222 100.812 342.826 101.131C342.434 101.451 342.142 101.875 341.95 102.403C341.762 102.928 341.669 103.503 341.669 104.129C341.669 104.76 341.762 105.337 341.95 105.862C342.142 106.386 342.434 106.805 342.826 107.121C343.222 107.436 343.721 107.594 344.321 107.594ZM352.936 103.17V109H351.025V99.1818H352.86V100.78H352.981C353.207 100.26 353.561 99.8423 354.042 99.527C354.528 99.2116 355.139 99.054 355.877 99.054C356.546 99.054 357.132 99.1946 357.634 99.4759C358.137 99.7528 358.527 100.166 358.804 100.716C359.081 101.266 359.22 101.945 359.22 102.755V109H357.308V102.985C357.308 102.273 357.123 101.717 356.752 101.317C356.382 100.912 355.872 100.71 355.225 100.71C354.781 100.71 354.387 100.805 354.042 100.997C353.701 101.189 353.431 101.47 353.23 101.841C353.034 102.207 352.936 102.651 352.936 103.17ZM371.13 99.1818V100.716H365.767V99.1818H371.13ZM367.205 96.8295H369.116V106.117C369.116 106.488 369.172 106.767 369.282 106.955C369.393 107.138 369.536 107.263 369.711 107.332C369.89 107.396 370.083 107.428 370.292 107.428C370.446 107.428 370.58 107.417 370.695 107.396C370.81 107.374 370.9 107.357 370.963 107.344L371.309 108.923C371.198 108.966 371.04 109.009 370.836 109.051C370.631 109.098 370.375 109.124 370.069 109.128C369.566 109.136 369.097 109.047 368.662 108.859C368.228 108.672 367.876 108.382 367.608 107.99C367.339 107.598 367.205 107.106 367.205 106.513V96.8295ZM373.244 109V99.1818H375.155V109H373.244ZM374.209 97.6669C373.877 97.6669 373.591 97.5561 373.352 97.3345C373.118 97.1087 373.001 96.8402 373.001 96.5291C373.001 96.2138 373.118 95.9453 373.352 95.7237C373.591 95.4979 373.877 95.3849 374.209 95.3849C374.541 95.3849 374.825 95.4979 375.059 95.7237C375.298 95.9453 375.417 96.2138 375.417 96.5291C375.417 96.8402 375.298 97.1087 375.059 97.3345C374.825 97.5561 374.541 97.6669 374.209 97.6669ZM377.726 109V99.1818H379.561V100.78H379.682C379.887 100.239 380.221 99.8168 380.686 99.5142C381.15 99.2074 381.706 99.054 382.354 99.054C383.01 99.054 383.56 99.2074 384.003 99.5142C384.451 99.821 384.781 100.243 384.994 100.78H385.096C385.331 100.256 385.703 99.8381 386.215 99.527C386.726 99.2116 387.336 99.054 388.043 99.054C388.934 99.054 389.66 99.3331 390.223 99.8913C390.789 100.45 391.073 101.291 391.073 102.416V109H389.162V102.595C389.162 101.93 388.98 101.449 388.618 101.151C388.256 100.852 387.824 100.703 387.321 100.703C386.699 100.703 386.215 100.895 385.87 101.278C385.525 101.658 385.352 102.146 385.352 102.742V109H383.447V102.474C383.447 101.941 383.281 101.513 382.949 101.189C382.616 100.865 382.184 100.703 381.651 100.703C381.289 100.703 380.954 100.799 380.647 100.991C380.345 101.178 380.1 101.44 379.912 101.777C379.729 102.114 379.637 102.504 379.637 102.947V109H377.726ZM397.866 109.198C396.899 109.198 396.066 108.991 395.367 108.578C394.672 108.161 394.135 107.575 393.756 106.82C393.381 106.062 393.193 105.173 393.193 104.155C393.193 103.149 393.381 102.263 393.756 101.496C394.135 100.729 394.664 100.13 395.341 99.6996C396.023 99.2692 396.82 99.054 397.732 99.054C398.286 99.054 398.823 99.1456 399.343 99.3288C399.862 99.5121 400.329 99.7997 400.742 100.192C401.156 100.584 401.482 101.093 401.72 101.719C401.959 102.342 402.078 103.098 402.078 103.989V104.666H394.274V103.234H400.205C400.205 102.732 400.103 102.286 399.899 101.898C399.694 101.506 399.406 101.197 399.036 100.972C398.669 100.746 398.239 100.633 397.744 100.633C397.208 100.633 396.739 100.765 396.338 101.029C395.942 101.289 395.635 101.63 395.418 102.052C395.205 102.469 395.098 102.923 395.098 103.413V104.532C395.098 105.188 395.213 105.746 395.443 106.207C395.678 106.667 396.004 107.018 396.421 107.261C396.839 107.5 397.327 107.619 397.885 107.619C398.247 107.619 398.578 107.568 398.876 107.466C399.174 107.359 399.432 107.202 399.649 106.993C399.867 106.784 400.033 106.526 400.148 106.219L401.957 106.545C401.812 107.078 401.552 107.545 401.177 107.945C400.806 108.342 400.34 108.651 399.777 108.872C399.219 109.089 398.582 109.198 397.866 109.198ZM407.874 103.567C407.874 105.173 407.663 106.65 407.241 107.996C406.82 109.343 406.204 110.585 405.394 111.723H403.643C403.958 111.301 404.252 110.783 404.525 110.17C404.798 109.556 405.036 108.885 405.241 108.156C405.445 107.423 405.605 106.665 405.72 105.881C405.835 105.097 405.893 104.325 405.893 103.567C405.893 102.557 405.793 101.532 405.592 100.492C405.392 99.4524 405.121 98.4872 404.781 97.5966C404.44 96.706 404.06 95.9794 403.643 95.4169H405.394C406.204 96.5547 406.82 97.7969 407.241 99.1435C407.663 100.49 407.874 101.964 407.874 103.567Z" fill="white"/>
<defs>
<filter id="filter0_d_356_897" x="0.289537" y="0.289537" width="425.421" height="212.071" filterUnits="userSpaceOnUse" color-interpolation-filters="sRGB">
<feFlood flood-opacity="0" result="BackgroundImageFix"/>
<feColorMatrix in="SourceAlpha" type="matrix" values="0 0 0 0 0 0 0 0 0 0 0 0 0 0 0 0 0 0 127 0" result="hardAlpha"/>
<feOffset/>
<feGaussianBlur stdDeviation="2.85523"/>
<feComposite in2="hardAlpha" operator="out"/>
<feColorMatrix type="matrix" values="0 0 0 0 0 0 0 0 0 0 0 0 0 0 0 0 0 0 0.1 0"/>
<feBlend mode="normal" in2="BackgroundImageFix" result="effect1_dropShadow_356_897"/>
<feBlend mode="normal" in="SourceGraphic" in2="effect1_dropShadow_356_897" result="shape"/>
</filter>
<linearGradient id="paint0_linear_356_897" x1="5.99999" y1="12.548" x2="207.717" y2="211.993" gradientUnits="userSpaceOnUse">
<stop offset="0.0212929" stop-color="#3B5998"/>
<stop offset="1" stop-color="#3A6BD1"/>
</linearGradient>
</defs>
</svg>
