<svg width="52" height="47" viewBox="0 0 52 47" fill="none" xmlns="http://www.w3.org/2000/svg">
<path d="M49.1364 8.54545H24.8203L21.1372 1.18355C20.9602 0.828337 20.6877 0.529455 20.3504 0.320407C20.013 0.111359 19.6241 0.000410052 19.2273 0L2.13636 0C1.56976 0 1.02637 0.225081 0.625726 0.625726C0.225081 1.02637 0 1.56976 0 2.13636L0 38.4545C0 40.7209 0.900322 42.8945 2.50291 44.4971C4.10549 46.0997 6.27906 47 8.54545 47H42.7273C44.9937 47 47.1672 46.0997 48.7698 44.4971C50.3724 42.8945 51.2727 40.7209 51.2727 38.4545V10.6818C51.2727 10.1152 51.0476 9.57183 50.647 9.17118C50.2464 8.77054 49.703 8.54545 49.1364 8.54545Z" fill="#212121"/>
</svg>
