<svg width="23" height="19" viewBox="0 0 23 19" fill="none" xmlns="http://www.w3.org/2000/svg">
<path d="M0.125 2.77088C0.125 1.24135 1.4003 0 2.97165 0H20.0515C21.6229 0 22.8982 1.24135 22.8982 2.77088V6.23368C22.6047 6.03105 22.281 5.87352 21.9384 5.76659L21.2715 5.56076V2.77088C21.2715 2.45593 21.143 2.15388 20.9142 1.93118C20.6854 1.70847 20.3751 1.58336 20.0515 1.58336H2.97165C2.64808 1.58336 2.33777 1.70847 2.10898 1.93118C1.88019 2.15388 1.75165 2.45593 1.75165 2.77088V13.0627C1.75165 13.7182 2.29821 14.2502 2.97165 14.2502H6.63162V12.6669C6.63162 12.2469 6.803 11.8442 7.10805 11.5473C7.41311 11.2503 7.82686 11.0835 8.25827 11.0835H14.7649C15.1963 11.0835 15.6101 11.2503 15.9151 11.5473C16.2202 11.8442 16.3915 12.2469 16.3915 12.6669V12.9915C15.9078 12.9831 15.4296 13.0928 15.0006 13.3105C14.5716 13.5281 14.2054 13.8468 13.9353 14.2376L13.1529 15.3554L13.0358 15.5454L13.0146 15.5803C12.9693 15.6627 12.928 15.7473 12.891 15.8336H2.97165C2.21667 15.8336 1.49261 15.5417 0.958763 15.022C0.424914 14.5024 0.125 13.7976 0.125 13.0627V2.77088ZM22.768 8.71639C22.8526 9.08056 22.8965 9.46374 22.8982 9.86433V9.90866C22.8933 11.2925 22.3858 12.887 21.3756 14.6904C21.1641 15.0704 20.9494 15.4251 20.7298 15.7544C19.5961 17.466 18.3744 18.5205 17.0634 18.9196C16.7648 19.0094 16.4478 19.0243 16.1418 18.9628C15.8358 18.9013 15.5507 18.7655 15.3131 18.5681L15.1829 18.4525L14.6803 17.9616C14.4683 17.7493 14.3313 17.4767 14.2892 17.1835C14.2471 16.8902 14.302 16.5916 14.4461 16.3308L14.5209 16.2136L15.2805 15.1274C15.4059 14.9454 15.5784 14.7988 15.7806 14.7026C15.9829 14.6064 16.2077 14.564 16.4322 14.5796C16.481 14.5827 16.5314 14.5907 16.5819 14.6002L16.7152 14.6366L18.1158 15.091C18.6754 14.6793 19.1406 14.16 19.5147 13.5361C19.822 13.0338 20.0347 12.482 20.1426 11.9069L20.1833 11.6314L19.017 10.5547C18.8282 10.3763 18.6939 10.1504 18.629 9.90224C18.5641 9.65404 18.5711 9.39318 18.6493 9.14865L18.6981 9.01406L19.2284 7.79963C19.3376 7.53054 19.5399 7.30701 19.8004 7.16767C20.0608 7.02832 20.3631 6.98191 20.655 7.03645L20.7803 7.06811L21.4423 7.27395C22.1011 7.47979 22.6037 8.02763 22.7664 8.71481L22.768 8.71639ZM14.7649 6.33344C14.7649 7.1733 14.4221 7.97877 13.812 8.57264C13.2019 9.16652 12.3744 9.50015 11.5116 9.50015C10.6488 9.50015 9.82126 9.16652 9.21114 8.57264C8.60103 7.97877 8.25827 7.1733 8.25827 6.33344C8.25827 5.49357 8.60103 4.6881 9.21114 4.09423C9.82126 3.50035 10.6488 3.16672 11.5116 3.16672C12.3744 3.16672 13.2019 3.50035 13.812 4.09423C14.4221 4.6881 14.7649 5.49357 14.7649 6.33344V6.33344Z" fill="white"/>
</svg>
