<svg width="46" height="47" viewBox="0 0 46 47" fill="none" xmlns="http://www.w3.org/2000/svg">
<g clip-path="url(#clip0_356_7382)">
<path d="M39.8358 14.718C40.5749 13.9681 40.5749 12.7567 39.8358 12.0068L34.4729 6.56535C33.7338 5.81546 32.54 5.81546 31.8009 6.56535L23.2923 15.1987L15.9206 7.71902C14.4425 6.21924 12.0358 6.21924 10.5577 7.71902L6.95714 11.3723C5.47902 12.8721 5.47902 15.314 6.95714 16.8138L14.3288 24.2935L5.78223 32.9653V41.1179H13.8171L22.3826 32.4269L29.7543 39.9066C31.5546 41.7332 33.9802 41.0602 35.1172 39.9066L38.7177 36.2533C40.1959 34.7535 40.1959 32.3115 38.7177 30.8118L31.3461 23.3321L39.8358 14.718ZM9.64808 14.0835L13.2297 10.4302L15.6364 12.8721L13.4002 15.1602L16.0722 17.8714L18.3273 15.5832L20.6013 17.8906L17.0008 21.5439L9.64808 14.0835ZM30.9292 28.389L28.6741 30.6772L31.3461 33.3883L33.6012 31.1002L36.0079 33.5421L32.4073 37.1954L25.0357 29.7158L28.6362 26.0625L30.9292 28.389ZM12.2443 37.2723H9.57228V34.5612L27.7835 16.0832L30.247 18.5828L30.4554 18.7943L12.2443 37.2723ZM30.4554 13.3528L33.1274 10.6417L35.7994 13.3528L33.1274 16.0639L30.4554 13.3528Z" fill="#3B5998"/>
</g>
<defs>
<clipPath id="clip0_356_7382">
<rect width="45.4806" height="46.147" fill="white" transform="translate(0.097168 0.740234)"/>
</clipPath>
</defs>
</svg>
