<svg width="73" height="12" viewBox="0 0 73 12" fill="none" xmlns="http://www.w3.org/2000/svg">
<path d="M73 6.00001L68 3.11325L68 8.88676L73 6.00001ZM-4.37114e-08 6.5L3.04167 6.5L3.04167 5.5L4.37114e-08 5.5L-4.37114e-08 6.5ZM9.125 6.5L15.2083 6.5L15.2083 5.5L9.125 5.5L9.125 6.5ZM21.2917 6.5L27.375 6.5L27.375 5.5L21.2917 5.5L21.2917 6.5ZM33.4583 6.5L39.5417 6.5L39.5417 5.5L33.4583 5.5L33.4583 6.5ZM45.625 6.5L51.7083 6.5L51.7083 5.5L45.625 5.5L45.625 6.5ZM57.7917 6.50001L63.875 6.50001L63.875 5.50001L57.7917 5.50001L57.7917 6.50001ZM73 6.00001L63 0.226503L63 11.7735L73 6.00001ZM-8.74228e-08 7L3.04167 7L3.04167 5L8.74228e-08 5L-8.74228e-08 7ZM9.125 7L15.2083 7L15.2083 5L9.125 5L9.125 7ZM21.2917 7L27.375 7L27.375 5L21.2917 5L21.2917 7ZM33.4583 7L39.5417 7L39.5417 5L33.4583 5L33.4583 7ZM45.625 7L51.7083 7L51.7083 5L45.625 5L45.625 7ZM57.7917 7.00001L63.875 7.00001L63.875 5.00001L57.7917 5.00001L57.7917 7.00001Z" fill="#3D3C3C"/>
</svg>
