<svg width="47" height="47" viewBox="0 0 47 47" fill="none" xmlns="http://www.w3.org/2000/svg">
<g clip-path="url(#clip0_356_7393)">
<path d="M36.9273 4.15625H9.90564C7.78252 4.15625 6.04541 5.89336 6.04541 8.01648V35.0381C6.04541 37.1613 7.78252 38.8984 9.90564 38.8984H17.6261L23.4165 44.6887L29.2068 38.8984H36.9273C39.0504 38.8984 40.7875 37.1613 40.7875 35.0381V8.01648C40.7875 5.89336 39.0504 4.15625 36.9273 4.15625ZM36.9273 35.0381H27.6048L26.4661 36.1769L23.4165 39.2265L20.3476 36.1576L19.2281 35.0381H9.90564V8.01648H36.9273V35.0381ZM23.4165 33.108L27.0451 25.1559L34.9972 21.5273L27.0451 17.8987L23.4165 9.9466L19.7878 17.8987L11.8358 21.5273L19.7878 25.1559L23.4165 33.108Z" fill="#3B5998"/>
</g>
<defs>
<clipPath id="clip0_356_7393">
<rect width="46.3228" height="46.3228" fill="white" transform="translate(0.254883 0.295898)"/>
</clipPath>
</defs>
</svg>
