<svg width="336" height="168" viewBox="0 0 336 168" fill="none" xmlns="http://www.w3.org/2000/svg">
<g filter="url(#filter0_d_356_897)">
<rect x="5" y="5" width="326" height="158" rx="12.1409" fill="url(#paint0_linear_356_897)"/>
</g>
<rect x="23" y="116" width="293" height="29" rx="2.69799" fill="white"/>
<path d="M27.446 98.18C26.582 98.18 25.846 97.992 25.238 97.616C24.63 97.236 24.164 96.708 23.84 96.032C23.52 95.356 23.36 94.572 23.36 93.68C23.36 92.788 23.52 92.004 23.84 91.328C24.164 90.652 24.63 90.126 25.238 89.75C25.846 89.37 26.582 89.18 27.446 89.18C28.306 89.18 29.04 89.37 29.648 89.75C30.26 90.126 30.726 90.652 31.046 91.328C31.366 92.004 31.526 92.788 31.526 93.68C31.526 94.572 31.366 95.356 31.046 96.032C30.726 96.708 30.26 97.236 29.648 97.616C29.04 97.992 28.306 98.18 27.446 98.18ZM27.446 96.986C28.058 96.994 28.566 96.86 28.97 96.584C29.378 96.304 29.684 95.916 29.888 95.42C30.092 94.92 30.194 94.34 30.194 93.68C30.194 93.02 30.092 92.444 29.888 91.952C29.684 91.456 29.378 91.07 28.97 90.794C28.566 90.518 28.058 90.378 27.446 90.374C26.834 90.366 26.324 90.5 25.916 90.776C25.512 91.052 25.208 91.44 25.004 91.94C24.8 92.44 24.696 93.02 24.692 93.68C24.688 94.34 24.788 94.918 24.992 95.414C25.196 95.906 25.502 96.29 25.91 96.566C26.322 96.842 26.834 96.982 27.446 96.986ZM37.2708 98V94.814C37.2708 94.562 37.2488 94.304 37.2048 94.04C37.1648 93.772 37.0848 93.524 36.9648 93.296C36.8488 93.068 36.6828 92.884 36.4668 92.744C36.2548 92.604 35.9768 92.534 35.6328 92.534C35.4088 92.534 35.1968 92.572 34.9968 92.648C34.7968 92.72 34.6208 92.838 34.4688 93.002C34.3208 93.166 34.2028 93.382 34.1148 93.65C34.0308 93.918 33.9888 94.244 33.9888 94.628L33.2088 94.334C33.2088 93.746 33.3188 93.228 33.5388 92.78C33.7588 92.328 34.0748 91.976 34.4868 91.724C34.8988 91.472 35.3968 91.346 35.9808 91.346C36.4288 91.346 36.8048 91.418 37.1088 91.562C37.4128 91.706 37.6588 91.896 37.8468 92.132C38.0388 92.364 38.1848 92.618 38.2848 92.894C38.3848 93.17 38.4528 93.44 38.4888 93.704C38.5248 93.968 38.5428 94.2 38.5428 94.4V98H37.2708ZM32.7168 98V91.52H33.8388V93.392H33.9888V98H32.7168ZM40.2256 98V89.18H41.4796V98H40.2256ZM44.1574 100.88L45.4114 97.466L45.4294 98.474L42.6034 91.52H43.9114L46.0234 96.89H45.6394L47.6554 91.52H48.9274L45.3514 100.88H44.1574ZM52.8637 98V91.292C52.8637 91.128 52.8697 90.954 52.8817 90.77C52.8937 90.582 52.9277 90.398 52.9837 90.218C53.0437 90.034 53.1417 89.866 53.2777 89.714C53.4417 89.534 53.6217 89.406 53.8177 89.33C54.0137 89.254 54.2077 89.21 54.3997 89.198C54.5957 89.186 54.7757 89.18 54.9397 89.18H55.7557V90.212H54.9997C54.7037 90.212 54.4817 90.286 54.3337 90.434C54.1897 90.578 54.1177 90.784 54.1177 91.052V98H52.8637ZM51.7897 92.528V91.52H55.7557V92.528H51.7897ZM59.2907 98.18C58.6427 98.18 58.0807 98.034 57.6047 97.742C57.1287 97.45 56.7607 97.048 56.5007 96.536C56.2447 96.02 56.1167 95.426 56.1167 94.754C56.1167 94.078 56.2487 93.484 56.5127 92.972C56.7767 92.456 57.1467 92.056 57.6227 91.772C58.0987 91.484 58.6547 91.34 59.2907 91.34C59.9387 91.34 60.5007 91.486 60.9767 91.778C61.4527 92.07 61.8207 92.472 62.0807 92.984C62.3407 93.496 62.4707 94.086 62.4707 94.754C62.4707 95.43 62.3387 96.026 62.0747 96.542C61.8147 97.054 61.4467 97.456 60.9707 97.748C60.4947 98.036 59.9347 98.18 59.2907 98.18ZM59.2907 96.998C59.9107 96.998 60.3727 96.79 60.6767 96.374C60.9847 95.954 61.1387 95.414 61.1387 94.754C61.1387 94.078 60.9827 93.538 60.6707 93.134C60.3627 92.726 59.9027 92.522 59.2907 92.522C58.8707 92.522 58.5247 92.618 58.2527 92.81C57.9807 92.998 57.7787 93.26 57.6467 93.596C57.5147 93.928 57.4487 94.314 57.4487 94.754C57.4487 95.434 57.6047 95.978 57.9167 96.386C58.2287 96.794 58.6867 96.998 59.2907 96.998ZM63.7892 98V91.52H64.9052V93.092L64.7492 92.888C64.8292 92.68 64.9332 92.49 65.0612 92.318C65.1892 92.142 65.3372 91.998 65.5052 91.886C65.6692 91.766 65.8512 91.674 66.0512 91.61C66.2552 91.542 66.4632 91.502 66.6752 91.49C66.8872 91.474 67.0912 91.484 67.2872 91.52V92.696C67.0752 92.64 66.8392 92.624 66.5792 92.648C66.3232 92.672 66.0872 92.754 65.8712 92.894C65.6672 93.026 65.5052 93.186 65.3852 93.374C65.2692 93.562 65.1852 93.772 65.1332 94.004C65.0812 94.232 65.0552 94.474 65.0552 94.73V98H63.7892ZM70.2322 98L73.0402 89.36H74.8462L77.6542 98H76.3522L73.7662 90.116H74.0902L71.5342 98H70.2322ZM71.6902 96.05V94.874H76.2022V96.05H71.6902ZM81.7726 98.18C81.1526 98.18 80.6326 98.03 80.2126 97.73C79.7926 97.426 79.4746 97.016 79.2586 96.5C79.0426 95.984 78.9346 95.402 78.9346 94.754C78.9346 94.106 79.0406 93.524 79.2526 93.008C79.4686 92.492 79.7846 92.086 80.2006 91.79C80.6206 91.49 81.1366 91.34 81.7486 91.34C82.3566 91.34 82.8806 91.49 83.3206 91.79C83.7646 92.086 84.1066 92.492 84.3466 93.008C84.5866 93.52 84.7066 94.102 84.7066 94.754C84.7066 95.402 84.5866 95.986 84.3466 96.506C84.1106 97.022 83.7726 97.43 83.3326 97.73C82.8966 98.03 82.3766 98.18 81.7726 98.18ZM78.7246 100.88V91.52H79.8406V96.182H79.9846V100.88H78.7246ZM81.5986 97.046C81.9986 97.046 82.3286 96.944 82.5886 96.74C82.8526 96.536 83.0486 96.262 83.1766 95.918C83.3086 95.57 83.3746 95.182 83.3746 94.754C83.3746 94.33 83.3086 93.946 83.1766 93.602C83.0486 93.258 82.8506 92.984 82.5826 92.78C82.3146 92.576 81.9726 92.474 81.5566 92.474C81.1646 92.474 80.8406 92.57 80.5846 92.762C80.3326 92.954 80.1446 93.222 80.0206 93.566C79.9006 93.91 79.8406 94.306 79.8406 94.754C79.8406 95.202 79.9006 95.598 80.0206 95.942C80.1406 96.286 80.3306 96.556 80.5906 96.752C80.8506 96.948 81.1866 97.046 81.5986 97.046ZM87.8614 98.18C87.3814 98.18 86.9794 98.092 86.6554 97.916C86.3314 97.736 86.0854 97.5 85.9174 97.208C85.7534 96.912 85.6714 96.588 85.6714 96.236C85.6714 95.908 85.7294 95.62 85.8454 95.372C85.9614 95.124 86.1334 94.914 86.3614 94.742C86.5894 94.566 86.8694 94.424 87.2014 94.316C87.4894 94.232 87.8154 94.158 88.1794 94.094C88.5434 94.03 88.9254 93.97 89.3254 93.914C89.7294 93.858 90.1294 93.802 90.5254 93.746L90.0694 93.998C90.0774 93.49 89.9694 93.114 89.7454 92.87C89.5254 92.622 89.1454 92.498 88.6054 92.498C88.2654 92.498 87.9534 92.578 87.6694 92.738C87.3854 92.894 87.1874 93.154 87.0754 93.518L85.9054 93.158C86.0654 92.602 86.3694 92.16 86.8174 91.832C87.2694 91.504 87.8694 91.34 88.6174 91.34C89.1974 91.34 89.7014 91.44 90.1294 91.64C90.5614 91.836 90.8774 92.148 91.0774 92.576C91.1814 92.788 91.2454 93.012 91.2694 93.248C91.2934 93.484 91.3054 93.738 91.3054 94.01V98H90.1954V96.518L90.4114 96.71C90.1434 97.206 89.8014 97.576 89.3854 97.82C88.9734 98.06 88.4654 98.18 87.8614 98.18ZM88.0834 97.154C88.4394 97.154 88.7454 97.092 89.0014 96.968C89.2574 96.84 89.4634 96.678 89.6194 96.482C89.7754 96.286 89.8774 96.082 89.9254 95.87C89.9934 95.678 90.0314 95.462 90.0394 95.222C90.0514 94.982 90.0574 94.79 90.0574 94.646L90.4654 94.796C90.0694 94.856 89.7094 94.91 89.3854 94.958C89.0614 95.006 88.7674 95.054 88.5034 95.102C88.2434 95.146 88.0114 95.2 87.8074 95.264C87.6354 95.324 87.4814 95.396 87.3454 95.48C87.2134 95.564 87.1074 95.666 87.0274 95.786C86.9514 95.906 86.9134 96.052 86.9134 96.224C86.9134 96.392 86.9554 96.548 87.0394 96.692C87.1234 96.832 87.2514 96.944 87.4234 97.028C87.5954 97.112 87.8154 97.154 88.0834 97.154ZM92.8634 98V91.52H93.9794V93.092L93.8234 92.888C93.9034 92.68 94.0074 92.49 94.1354 92.318C94.2634 92.142 94.4114 91.998 94.5794 91.886C94.7434 91.766 94.9254 91.674 95.1254 91.61C95.3294 91.542 95.5374 91.502 95.7494 91.49C95.9614 91.474 96.1654 91.484 96.3614 91.52V92.696C96.1494 92.64 95.9134 92.624 95.6534 92.648C95.3974 92.672 95.1614 92.754 94.9454 92.894C94.7414 93.026 94.5794 93.186 94.4594 93.374C94.3434 93.562 94.2594 93.772 94.2074 94.004C94.1554 94.232 94.1294 94.474 94.1294 94.73V98H92.8634ZM101.212 98C100.804 98.08 100.404 98.114 100.012 98.102C99.6201 98.09 99.2701 98.014 98.9621 97.874C98.6541 97.734 98.4221 97.514 98.2661 97.214C98.1261 96.946 98.0501 96.674 98.0381 96.398C98.0301 96.118 98.0261 95.802 98.0261 95.45V89.72H99.2861V95.39C99.2861 95.65 99.2881 95.876 99.2921 96.068C99.3001 96.26 99.3421 96.422 99.4181 96.554C99.5621 96.802 99.7901 96.944 100.102 96.98C100.418 97.012 100.788 96.998 101.212 96.938V98ZM96.7841 92.528V91.52H101.212V92.528H96.7841ZM110.342 98L110.348 93.962C110.348 93.494 110.228 93.13 109.988 92.87C109.748 92.606 109.432 92.474 109.04 92.474C108.8 92.474 108.58 92.53 108.38 92.642C108.184 92.75 108.024 92.914 107.9 93.134C107.78 93.35 107.72 93.622 107.72 93.95L107.114 93.644C107.106 93.188 107.202 92.788 107.402 92.444C107.606 92.1 107.882 91.834 108.23 91.646C108.578 91.454 108.968 91.358 109.4 91.358C110.1 91.358 110.642 91.568 111.026 91.988C111.41 92.408 111.602 92.966 111.602 93.662L111.596 98H110.342ZM102.572 98V91.52H103.688V93.392H103.832V98H102.572ZM106.46 98L106.466 93.986C106.466 93.514 106.346 93.144 106.106 92.876C105.87 92.608 105.552 92.474 105.152 92.474C104.756 92.474 104.436 92.61 104.192 92.882C103.952 93.154 103.832 93.51 103.832 93.95L103.232 93.566C103.232 93.142 103.334 92.764 103.538 92.432C103.742 92.1 104.018 91.838 104.366 91.646C104.714 91.454 105.108 91.358 105.548 91.358C106.008 91.358 106.4 91.456 106.724 91.652C107.048 91.844 107.294 92.114 107.462 92.462C107.634 92.81 107.72 93.214 107.72 93.674L107.714 98H106.46ZM115.952 98.18C115.308 98.18 114.742 98.04 114.254 97.76C113.77 97.476 113.392 97.082 113.12 96.578C112.852 96.07 112.718 95.482 112.718 94.814C112.718 94.106 112.85 93.492 113.114 92.972C113.382 92.452 113.754 92.05 114.23 91.766C114.706 91.482 115.26 91.34 115.892 91.34C116.552 91.34 117.114 91.494 117.578 91.802C118.042 92.106 118.388 92.54 118.616 93.104C118.848 93.668 118.94 94.338 118.892 95.114H117.638V94.658C117.63 93.906 117.486 93.35 117.206 92.99C116.93 92.63 116.508 92.45 115.94 92.45C115.312 92.45 114.84 92.648 114.524 93.044C114.208 93.44 114.05 94.012 114.05 94.76C114.05 95.472 114.208 96.024 114.524 96.416C114.84 96.804 115.296 96.998 115.892 96.998C116.284 96.998 116.622 96.91 116.906 96.734C117.194 96.554 117.418 96.298 117.578 95.966L118.808 96.356C118.556 96.936 118.174 97.386 117.662 97.706C117.15 98.022 116.58 98.18 115.952 98.18ZM113.642 95.114V94.136H118.268V95.114H113.642ZM124.611 98V94.814C124.611 94.562 124.589 94.304 124.545 94.04C124.505 93.772 124.425 93.524 124.305 93.296C124.189 93.068 124.023 92.884 123.807 92.744C123.595 92.604 123.317 92.534 122.973 92.534C122.749 92.534 122.537 92.572 122.337 92.648C122.137 92.72 121.961 92.838 121.809 93.002C121.661 93.166 121.543 93.382 121.455 93.65C121.371 93.918 121.329 94.244 121.329 94.628L120.549 94.334C120.549 93.746 120.659 93.228 120.879 92.78C121.099 92.328 121.415 91.976 121.827 91.724C122.239 91.472 122.737 91.346 123.321 91.346C123.769 91.346 124.145 91.418 124.449 91.562C124.753 91.706 124.999 91.896 125.187 92.132C125.379 92.364 125.525 92.618 125.625 92.894C125.725 93.17 125.793 93.44 125.829 93.704C125.865 93.968 125.883 94.2 125.883 94.4V98H124.611ZM120.057 98V91.52H121.179V93.392H121.329V98H120.057ZM131.153 98C130.745 98.08 130.345 98.114 129.953 98.102C129.561 98.09 129.211 98.014 128.903 97.874C128.595 97.734 128.363 97.514 128.207 97.214C128.067 96.946 127.991 96.674 127.979 96.398C127.971 96.118 127.967 95.802 127.967 95.45V89.72H129.227V95.39C129.227 95.65 129.229 95.876 129.233 96.068C129.241 96.26 129.283 96.422 129.359 96.554C129.503 96.802 129.731 96.944 130.043 96.98C130.359 97.012 130.729 96.998 131.153 96.938V98ZM126.725 92.528V91.52H131.153V92.528H126.725ZM134.998 98.174C134.21 98.174 133.568 98 133.072 97.652C132.576 97.304 132.272 96.814 132.16 96.182L133.444 95.984C133.524 96.32 133.708 96.586 133.996 96.782C134.288 96.974 134.65 97.07 135.082 97.07C135.474 97.07 135.78 96.99 136 96.83C136.224 96.67 136.336 96.45 136.336 96.17C136.336 96.006 136.296 95.874 136.216 95.774C136.14 95.67 135.978 95.572 135.73 95.48C135.482 95.388 135.104 95.274 134.596 95.138C134.04 94.994 133.598 94.84 133.27 94.676C132.946 94.508 132.714 94.314 132.574 94.094C132.438 93.87 132.37 93.6 132.37 93.284C132.37 92.892 132.474 92.55 132.682 92.258C132.89 91.966 133.182 91.74 133.558 91.58C133.938 91.42 134.382 91.34 134.89 91.34C135.386 91.34 135.828 91.418 136.216 91.574C136.604 91.73 136.918 91.952 137.158 92.24C137.398 92.524 137.542 92.858 137.59 93.242L136.306 93.476C136.262 93.164 136.116 92.918 135.868 92.738C135.62 92.558 135.298 92.46 134.902 92.444C134.522 92.428 134.214 92.492 133.978 92.636C133.742 92.776 133.624 92.97 133.624 93.218C133.624 93.362 133.668 93.484 133.756 93.584C133.848 93.684 134.024 93.78 134.284 93.872C134.544 93.964 134.928 94.074 135.436 94.202C135.98 94.342 136.412 94.498 136.732 94.67C137.052 94.838 137.28 95.04 137.416 95.276C137.556 95.508 137.626 95.79 137.626 96.122C137.626 96.762 137.392 97.264 136.924 97.628C136.46 97.992 135.818 98.174 134.998 98.174ZM144.194 98.18C143.71 98.18 143.258 98.11 142.838 97.97C142.418 97.826 142.066 97.602 141.782 97.298C141.562 97.054 141.398 96.786 141.29 96.494C141.186 96.198 141.128 95.884 141.116 95.552C141.116 95.228 141.162 94.914 141.254 94.61C141.35 94.302 141.5 94.028 141.704 93.788C141.796 93.676 141.898 93.58 142.01 93.5C142.122 93.416 142.234 93.342 142.346 93.278C142.09 92.998 141.896 92.732 141.764 92.48C141.632 92.224 141.566 91.922 141.566 91.574C141.566 91.086 141.694 90.648 141.95 90.26C142.206 89.868 142.556 89.586 143 89.414C143.204 89.33 143.412 89.274 143.624 89.246C143.836 89.214 144.042 89.198 144.242 89.198C144.602 89.198 144.95 89.25 145.286 89.354C145.622 89.458 145.91 89.628 146.15 89.864C146.302 90.004 146.43 90.162 146.534 90.338C146.642 90.514 146.724 90.694 146.78 90.878L145.544 91.166C145.476 90.974 145.364 90.812 145.208 90.68C145.076 90.564 144.922 90.486 144.746 90.446C144.574 90.402 144.402 90.38 144.23 90.38C143.946 90.38 143.69 90.434 143.462 90.542C143.254 90.642 143.098 90.78 142.994 90.956C142.89 91.128 142.838 91.336 142.838 91.58C142.838 91.796 142.876 91.97 142.952 92.102C143.028 92.234 143.13 92.372 143.258 92.516C143.334 92.6 143.424 92.69 143.528 92.786C143.636 92.882 143.746 92.982 143.858 93.086L146.21 95.276C146.218 95.188 146.224 95.094 146.228 94.994C146.232 94.894 146.234 94.798 146.234 94.706L146.228 93.584H147.35V95.066C147.35 95.318 147.342 95.546 147.326 95.75C147.314 95.95 147.29 96.114 147.254 96.242L148.334 97.244L147.524 98.114L146.654 97.286C146.47 97.47 146.264 97.626 146.036 97.754C145.808 97.878 145.578 97.97 145.346 98.03C145.15 98.09 144.956 98.13 144.764 98.15C144.576 98.17 144.386 98.18 144.194 98.18ZM144.23 96.98C144.39 96.98 144.538 96.972 144.674 96.956C144.81 96.936 144.94 96.9 145.064 96.848C145.232 96.78 145.368 96.71 145.472 96.638C145.58 96.566 145.67 96.496 145.742 96.428L143.282 94.172C143.158 94.216 143.042 94.274 142.934 94.346C142.83 94.414 142.74 94.494 142.664 94.586C142.572 94.702 142.502 94.838 142.454 94.994C142.41 95.146 142.39 95.31 142.394 95.486C142.394 95.678 142.424 95.854 142.484 96.014C142.548 96.17 142.63 96.31 142.73 96.434C142.89 96.626 143.112 96.766 143.396 96.854C143.684 96.938 143.962 96.98 144.23 96.98ZM151.703 98V89.36H155.099C155.647 89.36 156.107 89.472 156.479 89.696C156.851 89.92 157.131 90.21 157.319 90.566C157.507 90.918 157.601 91.29 157.601 91.682C157.601 92.158 157.483 92.566 157.247 92.906C157.015 93.246 156.701 93.478 156.305 93.602L156.293 93.308C156.845 93.444 157.269 93.71 157.565 94.106C157.861 94.498 158.009 94.956 158.009 95.48C158.009 95.988 157.907 96.43 157.703 96.806C157.503 97.182 157.209 97.476 156.821 97.688C156.437 97.896 155.971 98 155.423 98H151.703ZM152.975 96.806H155.231C155.515 96.806 155.769 96.752 155.993 96.644C156.221 96.536 156.399 96.382 156.527 96.182C156.659 95.978 156.725 95.736 156.725 95.456C156.725 95.196 156.667 94.962 156.551 94.754C156.439 94.542 156.275 94.376 156.059 94.256C155.847 94.132 155.597 94.07 155.309 94.07H152.975V96.806ZM152.975 92.888H155.081C155.313 92.888 155.521 92.842 155.705 92.75C155.893 92.654 156.041 92.518 156.149 92.342C156.261 92.162 156.317 91.946 156.317 91.694C156.317 91.358 156.205 91.082 155.981 90.866C155.757 90.65 155.457 90.542 155.081 90.542H152.975V92.888ZM161.645 98.174C161.197 98.174 160.821 98.102 160.517 97.958C160.213 97.814 159.965 97.626 159.773 97.394C159.585 97.158 159.441 96.902 159.341 96.626C159.241 96.35 159.173 96.08 159.137 95.816C159.101 95.552 159.083 95.32 159.083 95.12V91.52H160.355V94.706C160.355 94.958 160.375 95.218 160.415 95.486C160.459 95.75 160.539 95.996 160.655 96.224C160.775 96.452 160.941 96.636 161.153 96.776C161.369 96.916 161.649 96.986 161.993 96.986C162.217 96.986 162.429 96.95 162.629 96.878C162.829 96.802 163.003 96.682 163.151 96.518C163.303 96.354 163.421 96.138 163.505 95.87C163.593 95.602 163.637 95.276 163.637 94.892L164.417 95.186C164.417 95.774 164.307 96.294 164.087 96.746C163.867 97.194 163.551 97.544 163.139 97.796C162.727 98.048 162.229 98.174 161.645 98.174ZM163.787 98V96.128H163.637V91.52H164.903V98H163.787ZM166.706 90.458V89.24H167.96V90.458H166.706ZM166.706 98V91.52H167.96V98H166.706ZM169.882 98V89.18H171.136V98H169.882ZM175.512 98.18C174.908 98.18 174.386 98.03 173.946 97.73C173.51 97.43 173.172 97.022 172.932 96.506C172.696 95.986 172.578 95.402 172.578 94.754C172.578 94.102 172.698 93.52 172.938 93.008C173.178 92.492 173.518 92.086 173.958 91.79C174.402 91.49 174.928 91.34 175.536 91.34C176.148 91.34 176.662 91.49 177.078 91.79C177.498 92.086 177.814 92.492 178.026 93.008C178.242 93.524 178.35 94.106 178.35 94.754C178.35 95.402 178.242 95.984 178.026 96.5C177.81 97.016 177.492 97.426 177.072 97.73C176.652 98.03 176.132 98.18 175.512 98.18ZM175.686 97.046C176.098 97.046 176.434 96.948 176.694 96.752C176.954 96.556 177.144 96.286 177.264 95.942C177.384 95.598 177.444 95.202 177.444 94.754C177.444 94.306 177.382 93.91 177.258 93.566C177.138 93.222 176.95 92.954 176.694 92.762C176.442 92.57 176.12 92.474 175.728 92.474C175.312 92.474 174.97 92.576 174.702 92.78C174.434 92.984 174.234 93.258 174.102 93.602C173.974 93.946 173.91 94.33 173.91 94.754C173.91 95.182 173.974 95.57 174.102 95.918C174.234 96.262 174.43 96.536 174.69 96.74C174.954 96.944 175.286 97.046 175.686 97.046ZM177.444 98V93.338H177.3V89.36H178.56V98H177.444ZM183.112 98.18C182.468 98.18 181.902 98.04 181.414 97.76C180.93 97.476 180.552 97.082 180.28 96.578C180.012 96.07 179.878 95.482 179.878 94.814C179.878 94.106 180.01 93.492 180.274 92.972C180.542 92.452 180.914 92.05 181.39 91.766C181.866 91.482 182.42 91.34 183.052 91.34C183.712 91.34 184.274 91.494 184.738 91.802C185.202 92.106 185.548 92.54 185.776 93.104C186.008 93.668 186.1 94.338 186.052 95.114H184.798V94.658C184.79 93.906 184.646 93.35 184.366 92.99C184.09 92.63 183.668 92.45 183.1 92.45C182.472 92.45 182 92.648 181.684 93.044C181.368 93.44 181.21 94.012 181.21 94.76C181.21 95.472 181.368 96.024 181.684 96.416C182 96.804 182.456 96.998 183.052 96.998C183.444 96.998 183.782 96.91 184.066 96.734C184.354 96.554 184.578 96.298 184.738 95.966L185.968 96.356C185.716 96.936 185.334 97.386 184.822 97.706C184.31 98.022 183.74 98.18 183.112 98.18ZM180.802 95.114V94.136H185.428V95.114H180.802ZM187.399 98V91.52H188.515V93.092L188.359 92.888C188.439 92.68 188.543 92.49 188.671 92.318C188.799 92.142 188.947 91.998 189.115 91.886C189.279 91.766 189.461 91.674 189.661 91.61C189.865 91.542 190.073 91.502 190.285 91.49C190.497 91.474 190.701 91.484 190.897 91.52V92.696C190.685 92.64 190.449 92.624 190.189 92.648C189.933 92.672 189.697 92.754 189.481 92.894C189.277 93.026 189.115 93.186 188.995 93.374C188.879 93.562 188.795 93.772 188.743 94.004C188.691 94.232 188.665 94.474 188.665 94.73V98H187.399ZM194.442 98V89.36H199.56V90.614H195.696V93.05H198.84V94.31H195.696V98H194.442ZM200.761 98V89.18H202.015V98H200.761ZM206.631 98.18C205.983 98.18 205.421 98.034 204.945 97.742C204.469 97.45 204.101 97.048 203.841 96.536C203.585 96.02 203.457 95.426 203.457 94.754C203.457 94.078 203.589 93.484 203.853 92.972C204.117 92.456 204.487 92.056 204.963 91.772C205.439 91.484 205.995 91.34 206.631 91.34C207.279 91.34 207.841 91.486 208.317 91.778C208.793 92.07 209.161 92.472 209.421 92.984C209.681 93.496 209.811 94.086 209.811 94.754C209.811 95.43 209.679 96.026 209.415 96.542C209.155 97.054 208.787 97.456 208.311 97.748C207.835 98.036 207.275 98.18 206.631 98.18ZM206.631 96.998C207.251 96.998 207.713 96.79 208.017 96.374C208.325 95.954 208.479 95.414 208.479 94.754C208.479 94.078 208.323 93.538 208.011 93.134C207.703 92.726 207.243 92.522 206.631 92.522C206.211 92.522 205.865 92.618 205.593 92.81C205.321 92.998 205.119 93.26 204.987 93.596C204.855 93.928 204.789 94.314 204.789 94.754C204.789 95.434 204.945 95.978 205.257 96.386C205.569 96.794 206.027 96.998 206.631 96.998ZM213.943 98.18C213.295 98.18 212.733 98.034 212.257 97.742C211.781 97.45 211.413 97.048 211.153 96.536C210.897 96.02 210.769 95.426 210.769 94.754C210.769 94.078 210.901 93.484 211.165 92.972C211.429 92.456 211.799 92.056 212.275 91.772C212.751 91.484 213.307 91.34 213.943 91.34C214.591 91.34 215.153 91.486 215.629 91.778C216.105 92.07 216.473 92.472 216.733 92.984C216.993 93.496 217.123 94.086 217.123 94.754C217.123 95.43 216.991 96.026 216.727 96.542C216.467 97.054 216.099 97.456 215.623 97.748C215.147 98.036 214.587 98.18 213.943 98.18ZM213.943 96.998C214.563 96.998 215.025 96.79 215.329 96.374C215.637 95.954 215.791 95.414 215.791 94.754C215.791 94.078 215.635 93.538 215.323 93.134C215.015 92.726 214.555 92.522 213.943 92.522C213.523 92.522 213.177 92.618 212.905 92.81C212.633 92.998 212.431 93.26 212.299 93.596C212.167 93.928 212.101 94.314 212.101 94.754C212.101 95.434 212.257 95.978 212.569 96.386C212.881 96.794 213.339 96.998 213.943 96.998ZM218.442 98V91.52H219.558V93.092L219.402 92.888C219.482 92.68 219.586 92.49 219.714 92.318C219.842 92.142 219.99 91.998 220.158 91.886C220.322 91.766 220.504 91.674 220.704 91.61C220.908 91.542 221.116 91.502 221.328 91.49C221.54 91.474 221.744 91.484 221.94 91.52V92.696C221.728 92.64 221.492 92.624 221.232 92.648C220.976 92.672 220.74 92.754 220.524 92.894C220.32 93.026 220.158 93.186 220.038 93.374C219.922 93.562 219.838 93.772 219.786 94.004C219.734 94.232 219.708 94.474 219.708 94.73V98H218.442ZM225.605 98V89.36H226.859V98H225.605ZM233.208 98V94.814C233.208 94.562 233.186 94.304 233.142 94.04C233.102 93.772 233.022 93.524 232.902 93.296C232.786 93.068 232.62 92.884 232.404 92.744C232.192 92.604 231.914 92.534 231.57 92.534C231.346 92.534 231.134 92.572 230.934 92.648C230.734 92.72 230.558 92.838 230.406 93.002C230.258 93.166 230.14 93.382 230.052 93.65C229.968 93.918 229.926 94.244 229.926 94.628L229.146 94.334C229.146 93.746 229.256 93.228 229.476 92.78C229.696 92.328 230.012 91.976 230.424 91.724C230.836 91.472 231.334 91.346 231.918 91.346C232.366 91.346 232.742 91.418 233.046 91.562C233.35 91.706 233.596 91.896 233.784 92.132C233.976 92.364 234.122 92.618 234.222 92.894C234.322 93.17 234.39 93.44 234.426 93.704C234.462 93.968 234.48 94.2 234.48 94.4V98H233.208ZM228.654 98V91.52H229.776V93.392H229.926V98H228.654ZM239.751 98C239.343 98.08 238.943 98.114 238.551 98.102C238.159 98.09 237.809 98.014 237.501 97.874C237.193 97.734 236.961 97.514 236.805 97.214C236.665 96.946 236.589 96.674 236.577 96.398C236.569 96.118 236.565 95.802 236.565 95.45V89.72H237.825V95.39C237.825 95.65 237.827 95.876 237.831 96.068C237.839 96.26 237.881 96.422 237.957 96.554C238.101 96.802 238.329 96.944 238.641 96.98C238.957 97.012 239.327 96.998 239.751 96.938V98ZM235.323 92.528V91.52H239.751V92.528H235.323ZM243.698 98.18C243.054 98.18 242.488 98.04 242 97.76C241.516 97.476 241.138 97.082 240.866 96.578C240.598 96.07 240.464 95.482 240.464 94.814C240.464 94.106 240.596 93.492 240.86 92.972C241.128 92.452 241.5 92.05 241.976 91.766C242.452 91.482 243.006 91.34 243.638 91.34C244.298 91.34 244.86 91.494 245.324 91.802C245.788 92.106 246.134 92.54 246.362 93.104C246.594 93.668 246.686 94.338 246.638 95.114H245.384V94.658C245.376 93.906 245.232 93.35 244.952 92.99C244.676 92.63 244.254 92.45 243.686 92.45C243.058 92.45 242.586 92.648 242.27 93.044C241.954 93.44 241.796 94.012 241.796 94.76C241.796 95.472 241.954 96.024 242.27 96.416C242.586 96.804 243.042 96.998 243.638 96.998C244.03 96.998 244.368 96.91 244.652 96.734C244.94 96.554 245.164 96.298 245.324 95.966L246.554 96.356C246.302 96.936 245.92 97.386 245.408 97.706C244.896 98.022 244.326 98.18 243.698 98.18ZM241.388 95.114V94.136H246.014V95.114H241.388ZM247.985 98V91.52H249.101V93.092L248.945 92.888C249.025 92.68 249.129 92.49 249.257 92.318C249.385 92.142 249.533 91.998 249.701 91.886C249.865 91.766 250.047 91.674 250.247 91.61C250.451 91.542 250.659 91.502 250.871 91.49C251.083 91.474 251.287 91.484 251.483 91.52V92.696C251.271 92.64 251.035 92.624 250.775 92.648C250.519 92.672 250.283 92.754 250.067 92.894C249.863 93.026 249.701 93.186 249.581 93.374C249.465 93.562 249.381 93.772 249.329 94.004C249.277 94.232 249.251 94.474 249.251 94.73V98H247.985ZM252.745 90.458V89.24H253.999V90.458H252.745ZM252.745 98V91.52H253.999V98H252.745ZM258.615 98.18C257.967 98.18 257.405 98.034 256.929 97.742C256.453 97.45 256.085 97.048 255.825 96.536C255.569 96.02 255.441 95.426 255.441 94.754C255.441 94.078 255.573 93.484 255.837 92.972C256.101 92.456 256.471 92.056 256.947 91.772C257.423 91.484 257.979 91.34 258.615 91.34C259.263 91.34 259.825 91.486 260.301 91.778C260.777 92.07 261.145 92.472 261.405 92.984C261.665 93.496 261.795 94.086 261.795 94.754C261.795 95.43 261.663 96.026 261.399 96.542C261.139 97.054 260.771 97.456 260.295 97.748C259.819 98.036 259.259 98.18 258.615 98.18ZM258.615 96.998C259.235 96.998 259.697 96.79 260.001 96.374C260.309 95.954 260.463 95.414 260.463 94.754C260.463 94.078 260.307 93.538 259.995 93.134C259.687 92.726 259.227 92.522 258.615 92.522C258.195 92.522 257.849 92.618 257.577 92.81C257.305 92.998 257.103 93.26 256.971 93.596C256.839 93.928 256.773 94.314 256.773 94.754C256.773 95.434 256.929 95.978 257.241 96.386C257.553 96.794 258.011 96.998 258.615 96.998ZM263.113 98V91.52H264.229V93.092L264.073 92.888C264.153 92.68 264.257 92.49 264.385 92.318C264.513 92.142 264.661 91.998 264.829 91.886C264.993 91.766 265.175 91.674 265.375 91.61C265.579 91.542 265.787 91.502 265.999 91.49C266.211 91.474 266.415 91.484 266.611 91.52V92.696C266.399 92.64 266.163 92.624 265.903 92.648C265.647 92.672 265.411 92.754 265.195 92.894C264.991 93.026 264.829 93.186 264.709 93.374C264.593 93.562 264.509 93.772 264.457 94.004C264.405 94.232 264.379 94.474 264.379 94.73V98H263.113ZM270.156 98V89.36H273.648C273.732 89.36 273.836 89.364 273.96 89.372C274.084 89.376 274.202 89.388 274.314 89.408C274.794 89.484 275.194 89.648 275.514 89.9C275.838 90.152 276.08 90.47 276.24 90.854C276.4 91.238 276.48 91.662 276.48 92.126C276.48 92.594 276.4 93.02 276.24 93.404C276.08 93.788 275.838 94.106 275.514 94.358C275.194 94.61 274.794 94.774 274.314 94.85C274.202 94.866 274.082 94.878 273.954 94.886C273.83 94.894 273.728 94.898 273.648 94.898H271.41V98H270.156ZM271.41 93.71H273.6C273.68 93.71 273.768 93.706 273.864 93.698C273.964 93.69 274.058 93.676 274.146 93.656C274.402 93.596 274.608 93.486 274.764 93.326C274.92 93.162 275.032 92.974 275.1 92.762C275.168 92.55 275.202 92.338 275.202 92.126C275.202 91.914 275.168 91.704 275.1 91.496C275.032 91.284 274.92 91.098 274.764 90.938C274.608 90.774 274.402 90.662 274.146 90.602C274.058 90.578 273.964 90.562 273.864 90.554C273.768 90.546 273.68 90.542 273.6 90.542H271.41V93.71ZM277.68 98V91.52H278.796V93.092L278.64 92.888C278.72 92.68 278.824 92.49 278.952 92.318C279.08 92.142 279.228 91.998 279.396 91.886C279.56 91.766 279.742 91.674 279.942 91.61C280.146 91.542 280.354 91.502 280.566 91.49C280.778 91.474 280.982 91.484 281.178 91.52V92.696C280.966 92.64 280.73 92.624 280.47 92.648C280.214 92.672 279.978 92.754 279.762 92.894C279.558 93.026 279.396 93.186 279.276 93.374C279.16 93.562 279.076 93.772 279.024 94.004C278.972 94.232 278.946 94.474 278.946 94.73V98H277.68ZM285.017 98.18C284.369 98.18 283.807 98.034 283.331 97.742C282.855 97.45 282.487 97.048 282.227 96.536C281.971 96.02 281.843 95.426 281.843 94.754C281.843 94.078 281.975 93.484 282.239 92.972C282.503 92.456 282.873 92.056 283.349 91.772C283.825 91.484 284.381 91.34 285.017 91.34C285.665 91.34 286.227 91.486 286.703 91.778C287.179 92.07 287.547 92.472 287.807 92.984C288.067 93.496 288.197 94.086 288.197 94.754C288.197 95.43 288.065 96.026 287.801 96.542C287.541 97.054 287.173 97.456 286.697 97.748C286.221 98.036 285.661 98.18 285.017 98.18ZM285.017 96.998C285.637 96.998 286.099 96.79 286.403 96.374C286.711 95.954 286.865 95.414 286.865 94.754C286.865 94.078 286.709 93.538 286.397 93.134C286.089 92.726 285.629 92.522 285.017 92.522C284.597 92.522 284.251 92.618 283.979 92.81C283.707 92.998 283.505 93.26 283.373 93.596C283.241 93.928 283.175 94.314 283.175 94.754C283.175 95.434 283.331 95.978 283.643 96.386C283.955 96.794 284.413 96.998 285.017 96.998ZM288.556 100.88V99.692H288.886C289.218 99.692 289.46 99.612 289.612 99.452C289.768 99.292 289.846 99.046 289.846 98.714V91.52H291.106V99.224C291.106 99.752 290.96 100.16 290.668 100.448C290.38 100.736 289.966 100.88 289.426 100.88H288.556ZM289.846 90.458V89.24H291.106V90.458H289.846ZM295.694 98.18C295.05 98.18 294.484 98.04 293.996 97.76C293.512 97.476 293.134 97.082 292.862 96.578C292.594 96.07 292.46 95.482 292.46 94.814C292.46 94.106 292.592 93.492 292.856 92.972C293.124 92.452 293.496 92.05 293.972 91.766C294.448 91.482 295.002 91.34 295.634 91.34C296.294 91.34 296.856 91.494 297.32 91.802C297.784 92.106 298.13 92.54 298.358 93.104C298.59 93.668 298.682 94.338 298.634 95.114H297.38V94.658C297.372 93.906 297.228 93.35 296.948 92.99C296.672 92.63 296.25 92.45 295.682 92.45C295.054 92.45 294.582 92.648 294.266 93.044C293.95 93.44 293.792 94.012 293.792 94.76C293.792 95.472 293.95 96.024 294.266 96.416C294.582 96.804 295.038 96.998 295.634 96.998C296.026 96.998 296.364 96.91 296.648 96.734C296.936 96.554 297.16 96.298 297.32 95.966L298.55 96.356C298.298 96.936 297.916 97.386 297.404 97.706C296.892 98.022 296.322 98.18 295.694 98.18ZM293.384 95.114V94.136H298.01V95.114H293.384ZM302.753 98.18C302.089 98.18 301.525 98.032 301.061 97.736C300.597 97.44 300.241 97.034 299.993 96.518C299.749 96.002 299.625 95.416 299.621 94.76C299.625 94.092 299.753 93.502 300.005 92.99C300.257 92.474 300.617 92.07 301.085 91.778C301.553 91.486 302.115 91.34 302.771 91.34C303.479 91.34 304.083 91.516 304.583 91.868C305.087 92.22 305.419 92.702 305.579 93.314L304.331 93.674C304.207 93.31 304.003 93.028 303.719 92.828C303.439 92.624 303.117 92.522 302.753 92.522C302.341 92.522 302.003 92.62 301.739 92.816C301.475 93.008 301.279 93.272 301.151 93.608C301.023 93.944 300.957 94.328 300.953 94.76C300.957 95.428 301.109 95.968 301.409 96.38C301.713 96.792 302.161 96.998 302.753 96.998C303.157 96.998 303.483 96.906 303.731 96.722C303.983 96.534 304.175 96.266 304.307 95.918L305.579 96.218C305.367 96.85 305.017 97.336 304.529 97.676C304.041 98.012 303.449 98.18 302.753 98.18ZM310.509 98C310.101 98.08 309.701 98.114 309.309 98.102C308.917 98.09 308.567 98.014 308.259 97.874C307.951 97.734 307.719 97.514 307.563 97.214C307.423 96.946 307.347 96.674 307.335 96.398C307.327 96.118 307.323 95.802 307.323 95.45V89.72H308.583V95.39C308.583 95.65 308.585 95.876 308.589 96.068C308.597 96.26 308.639 96.422 308.715 96.554C308.859 96.802 309.087 96.944 309.399 96.98C309.715 97.012 310.085 96.998 310.509 96.938V98ZM306.081 92.528V91.52H310.509V92.528H306.081ZM314.353 98.174C313.565 98.174 312.923 98 312.427 97.652C311.931 97.304 311.627 96.814 311.515 96.182L312.799 95.984C312.879 96.32 313.063 96.586 313.351 96.782C313.643 96.974 314.005 97.07 314.437 97.07C314.829 97.07 315.135 96.99 315.355 96.83C315.579 96.67 315.691 96.45 315.691 96.17C315.691 96.006 315.651 95.874 315.571 95.774C315.495 95.67 315.333 95.572 315.085 95.48C314.837 95.388 314.459 95.274 313.951 95.138C313.395 94.994 312.953 94.84 312.625 94.676C312.301 94.508 312.069 94.314 311.929 94.094C311.793 93.87 311.725 93.6 311.725 93.284C311.725 92.892 311.829 92.55 312.037 92.258C312.245 91.966 312.537 91.74 312.913 91.58C313.293 91.42 313.737 91.34 314.245 91.34C314.741 91.34 315.183 91.418 315.571 91.574C315.959 91.73 316.273 91.952 316.513 92.24C316.753 92.524 316.897 92.858 316.945 93.242L315.661 93.476C315.617 93.164 315.471 92.918 315.223 92.738C314.975 92.558 314.653 92.46 314.257 92.444C313.877 92.428 313.569 92.492 313.333 92.636C313.097 92.776 312.979 92.97 312.979 93.218C312.979 93.362 313.023 93.484 313.111 93.584C313.203 93.684 313.379 93.78 313.639 93.872C313.899 93.964 314.283 94.074 314.791 94.202C315.335 94.342 315.767 94.498 316.087 94.67C316.407 94.838 316.635 95.04 316.771 95.276C316.911 95.508 316.981 95.79 316.981 96.122C316.981 96.762 316.747 97.264 316.279 97.628C315.815 97.992 315.173 98.174 314.353 98.174ZM318.525 98V96.674H319.851V98H318.525Z" fill="white"/>
<path d="M25.8295 53H23.6136L30.0227 35.5455H32.2045L38.6136 53H36.3977L31.1818 38.3068H31.0455L25.8295 53ZM26.6477 46.1818H35.5795V48.0568H26.6477V46.1818ZM45.9325 39.9091V41.6136H39.1484V39.9091H45.9325ZM41.1257 36.7727H43.1371V49.25C43.1371 49.8182 43.2195 50.2443 43.3842 50.5284C43.5547 50.8068 43.7706 50.9943 44.032 51.0909C44.299 51.1818 44.5803 51.2273 44.8757 51.2273C45.0973 51.2273 45.2791 51.2159 45.4212 51.1932C45.5632 51.1648 45.6768 51.142 45.7621 51.125L46.1712 52.9318C46.0348 52.983 45.8445 53.0341 45.6001 53.0852C45.3558 53.142 45.0462 53.1705 44.6712 53.1705C44.103 53.1705 43.5462 53.0483 43.0007 52.804C42.4609 52.5597 42.0121 52.1875 41.6541 51.6875C41.3018 51.1875 41.1257 50.5568 41.1257 49.7955V36.7727ZM62.6626 35.5455H64.7763V48.0227C64.7763 49.1364 64.5717 50.0824 64.1626 50.8608C63.7536 51.6392 63.1768 52.2301 62.4325 52.6335C61.6882 53.0369 60.8104 53.2386 59.799 53.2386C58.8445 53.2386 57.995 53.0653 57.2507 52.7188C56.5064 52.3665 55.9212 51.8665 55.495 51.2188C55.0689 50.571 54.8558 49.8011 54.8558 48.9091H56.9354C56.9354 49.4034 57.0575 49.8352 57.3018 50.2045C57.5518 50.5682 57.8928 50.8523 58.3246 51.0568C58.7564 51.2614 59.2479 51.3636 59.799 51.3636C60.407 51.3636 60.924 51.2358 61.3501 50.9801C61.7763 50.7244 62.1001 50.3494 62.3217 49.8551C62.549 49.3551 62.6626 48.7443 62.6626 48.0227V35.5455ZM76.9893 47.6477V39.9091H79.0007V53H76.9893V50.7841H76.853C76.5462 51.4489 76.0689 52.0142 75.4212 52.4801C74.7734 52.9403 73.9553 53.1705 72.9666 53.1705C72.1484 53.1705 71.4212 52.9915 70.7848 52.6335C70.1484 52.2699 69.6484 51.7244 69.2848 50.9972C68.9212 50.2642 68.7393 49.3409 68.7393 48.2273V39.9091H70.7507V48.0909C70.7507 49.0455 71.0178 49.8068 71.5518 50.375C72.0916 50.9432 72.7791 51.2273 73.6143 51.2273C74.1143 51.2273 74.6229 51.0994 75.1399 50.8438C75.6626 50.5881 76.1001 50.196 76.4524 49.6676C76.8104 49.1392 76.9893 48.4659 76.9893 47.6477ZM91.9574 42.8409L90.1506 43.3523C90.0369 43.0511 89.8693 42.7585 89.6477 42.4744C89.4318 42.1847 89.1364 41.946 88.7614 41.7585C88.3864 41.571 87.9062 41.4773 87.321 41.4773C86.5199 41.4773 85.8523 41.6619 85.3182 42.0312C84.7898 42.3949 84.5256 42.858 84.5256 43.4205C84.5256 43.9205 84.7074 44.3153 85.071 44.6051C85.4347 44.8949 86.0028 45.1364 86.7756 45.3295L88.7188 45.8068C89.8892 46.0909 90.7614 46.5256 91.3352 47.1108C91.9091 47.6903 92.196 48.4375 92.196 49.3523C92.196 50.1023 91.9801 50.7727 91.5483 51.3636C91.1222 51.9545 90.5256 52.4205 89.7585 52.7614C88.9915 53.1023 88.0994 53.2727 87.0824 53.2727C85.7472 53.2727 84.642 52.983 83.767 52.4034C82.892 51.8239 82.3381 50.9773 82.1051 49.8636L84.0142 49.3864C84.196 50.0909 84.5398 50.6193 85.0455 50.9716C85.5568 51.3239 86.2244 51.5 87.0483 51.5C87.9858 51.5 88.7301 51.3011 89.2812 50.9034C89.8381 50.5 90.1165 50.017 90.1165 49.4545C90.1165 49 89.9574 48.6193 89.6392 48.3125C89.321 48 88.8324 47.767 88.1733 47.6136L85.9915 47.1023C84.7926 46.8182 83.9119 46.3778 83.3494 45.7812C82.7926 45.179 82.5142 44.4261 82.5142 43.5227C82.5142 42.7841 82.7216 42.1307 83.1364 41.5625C83.5568 40.9943 84.1278 40.5483 84.8494 40.2244C85.5767 39.9006 86.4006 39.7386 87.321 39.7386C88.6165 39.7386 89.6335 40.0227 90.3722 40.5909C91.1165 41.1591 91.6449 41.9091 91.9574 42.8409ZM100.917 39.9091V41.6136H94.1328V39.9091H100.917ZM96.1101 36.7727H98.1214V49.25C98.1214 49.8182 98.2038 50.2443 98.3686 50.5284C98.5391 50.8068 98.755 50.9943 99.0163 51.0909C99.2834 51.1818 99.5646 51.2273 99.8601 51.2273C100.082 51.2273 100.263 51.2159 100.406 51.1932C100.548 51.1648 100.661 51.142 100.746 51.125L101.156 52.9318C101.019 52.983 100.829 53.0341 100.585 53.0852C100.34 53.142 100.031 53.1705 99.6555 53.1705C99.0874 53.1705 98.5305 53.0483 97.9851 52.804C97.4453 52.5597 96.9964 52.1875 96.6385 51.6875C96.2862 51.1875 96.1101 50.5568 96.1101 49.7955V36.7727ZM120.771 39.8068L120.165 42.0398H108.856L109.469 39.8068H120.771ZM115.086 53L109.12 45.8239L109.112 43.9318H112.06C112.765 43.9318 113.353 43.8153 113.825 43.5824C114.302 43.3437 114.663 43.0114 114.907 42.5852C115.157 42.1534 115.282 41.6477 115.282 41.0682C115.282 40.1989 115.026 39.5 114.515 38.9716C114.004 38.4432 113.185 38.179 112.06 38.179H108.856L109.521 35.5455H112.06C113.492 35.5455 114.677 35.767 115.614 36.2102C116.558 36.6477 117.262 37.267 117.728 38.0682C118.2 38.8693 118.435 39.8068 118.435 40.8807C118.435 41.8295 118.262 42.6761 117.915 43.4205C117.569 44.1648 117.023 44.7756 116.279 45.2528C115.535 45.7301 114.56 46.0483 113.356 46.2074L113.254 46.2415L118.64 52.8466V53H115.086ZM120.788 35.5455L120.165 37.8125L110.995 37.7784L111.617 35.5455H120.788ZM122.79 49.7614V47.2472L130.197 35.5455H132.293V39.125H131.015L126.029 47.0256V47.1619H136.367V49.7614H122.79ZM131.117 53V48.9943L131.151 47.8693V35.5455H134.134V53H131.117ZM145.15 35.3068C145.985 35.3125 146.798 35.4602 147.587 35.75C148.383 36.0341 149.099 36.5 149.735 37.1477C150.371 37.7898 150.877 38.6506 151.252 39.7301C151.627 40.8097 151.815 42.1449 151.815 43.7358C151.82 45.2358 151.661 46.5767 151.337 47.7585C151.019 48.9347 150.562 49.929 149.965 50.7415C149.369 51.554 148.65 52.1733 147.809 52.5994C146.968 53.0256 146.022 53.2386 144.971 53.2386C143.869 53.2386 142.891 53.0227 142.039 52.5909C141.192 52.1591 140.508 51.5682 139.985 50.8182C139.462 50.0682 139.141 49.2102 139.022 48.2443H142.133C142.292 48.9375 142.616 49.4886 143.104 49.8977C143.599 50.3011 144.221 50.5028 144.971 50.5028C146.181 50.5028 147.113 49.9773 147.766 48.9261C148.42 47.875 148.746 46.4148 148.746 44.5455H148.627C148.349 45.0455 147.988 45.4773 147.545 45.8409C147.102 46.1989 146.599 46.4744 146.036 46.6676C145.479 46.8608 144.888 46.9574 144.263 46.9574C143.241 46.9574 142.32 46.7131 141.502 46.2244C140.69 45.7358 140.045 45.0653 139.567 44.2131C139.096 43.3608 138.857 42.3864 138.852 41.2898C138.852 40.1534 139.113 39.1335 139.636 38.2301C140.164 37.321 140.9 36.6051 141.843 36.0824C142.786 35.554 143.888 35.2955 145.15 35.3068ZM145.158 37.8636C144.545 37.8636 143.991 38.0142 143.496 38.3153C143.008 38.6108 142.621 39.0142 142.337 39.5256C142.059 40.0312 141.92 40.5966 141.92 41.2216C141.925 41.8409 142.065 42.4034 142.337 42.9091C142.616 43.4148 142.994 43.8153 143.471 44.1108C143.954 44.4062 144.505 44.554 145.124 44.554C145.585 44.554 146.013 44.4659 146.411 44.2898C146.809 44.1136 147.156 43.8693 147.451 43.5568C147.752 43.2386 147.985 42.8778 148.15 42.4744C148.32 42.071 148.403 41.6449 148.397 41.196C148.397 40.5994 148.255 40.0483 147.971 39.5426C147.692 39.0369 147.309 38.6307 146.82 38.3239C146.337 38.017 145.783 37.8636 145.158 37.8636ZM160.712 35.3068C161.548 35.3125 162.36 35.4602 163.15 35.75C163.945 36.0341 164.661 36.5 165.298 37.1477C165.934 37.7898 166.44 38.6506 166.815 39.7301C167.19 40.8097 167.377 42.1449 167.377 43.7358C167.383 45.2358 167.224 46.5767 166.9 47.7585C166.582 48.9347 166.124 49.929 165.528 50.7415C164.931 51.554 164.212 52.1733 163.371 52.5994C162.531 53.0256 161.585 53.2386 160.533 53.2386C159.431 53.2386 158.454 53.0227 157.602 52.5909C156.755 52.1591 156.07 51.5682 155.548 50.8182C155.025 50.0682 154.704 49.2102 154.585 48.2443H157.695C157.854 48.9375 158.178 49.4886 158.667 49.8977C159.161 50.3011 159.783 50.5028 160.533 50.5028C161.744 50.5028 162.675 49.9773 163.329 48.9261C163.982 47.875 164.309 46.4148 164.309 44.5455H164.19C163.911 45.0455 163.55 45.4773 163.107 45.8409C162.664 46.1989 162.161 46.4744 161.599 46.6676C161.042 46.8608 160.451 46.9574 159.826 46.9574C158.803 46.9574 157.883 46.7131 157.065 46.2244C156.252 45.7358 155.607 45.0653 155.13 44.2131C154.658 43.3608 154.42 42.3864 154.414 41.2898C154.414 40.1534 154.675 39.1335 155.198 38.2301C155.727 37.321 156.462 36.6051 157.406 36.0824C158.349 35.554 159.451 35.2955 160.712 35.3068ZM160.721 37.8636C160.107 37.8636 159.553 38.0142 159.059 38.3153C158.57 38.6108 158.184 39.0142 157.9 39.5256C157.621 40.0312 157.482 40.5966 157.482 41.2216C157.488 41.8409 157.627 42.4034 157.9 42.9091C158.178 43.4148 158.556 43.8153 159.033 44.1108C159.516 44.4062 160.067 44.554 160.687 44.554C161.147 44.554 161.576 44.4659 161.974 44.2898C162.371 44.1136 162.718 43.8693 163.013 43.5568C163.315 43.2386 163.548 42.8778 163.712 42.4744C163.883 42.071 163.965 41.6449 163.96 41.196C163.96 40.5994 163.817 40.0483 163.533 39.5426C163.255 39.0369 162.871 38.6307 162.383 38.3239C161.9 38.017 161.346 37.8636 160.721 37.8636ZM177.374 34.7273L171.749 55.625H169.048L174.673 34.7273H177.374ZM187.278 44.4602V47H179.42V44.4602H187.278Z" fill="white"/>
<path d="M26.9716 70.4545V71.4773H23.2727V70.4545H26.9716ZM24.2869 77V69.696C24.2869 69.2869 24.3764 68.9474 24.5554 68.6776C24.7344 68.4048 24.9716 68.2017 25.267 68.0682C25.5625 67.9318 25.8835 67.8636 26.2301 67.8636C26.4858 67.8636 26.7045 67.8849 26.8864 67.9276C27.0682 67.9673 27.2031 68.0043 27.2912 68.0384L26.9929 69.0696C26.9332 69.0526 26.8565 69.0327 26.7628 69.0099C26.669 68.9844 26.5554 68.9716 26.4219 68.9716C26.1122 68.9716 25.8906 69.0483 25.7571 69.2017C25.6264 69.3551 25.5611 69.5767 25.5611 69.8665V77H24.2869ZM30.7855 77.1321C30.1719 77.1321 29.6364 76.9915 29.179 76.7102C28.7216 76.429 28.3665 76.0355 28.1136 75.5298C27.8608 75.0241 27.7344 74.4332 27.7344 73.7571C27.7344 73.0781 27.8608 72.4844 28.1136 71.9759C28.3665 71.4673 28.7216 71.0724 29.179 70.7912C29.6364 70.5099 30.1719 70.3693 30.7855 70.3693C31.3991 70.3693 31.9347 70.5099 32.392 70.7912C32.8494 71.0724 33.2045 71.4673 33.4574 71.9759C33.7102 72.4844 33.8366 73.0781 33.8366 73.7571C33.8366 74.4332 33.7102 75.0241 33.4574 75.5298C33.2045 76.0355 32.8494 76.429 32.392 76.7102C31.9347 76.9915 31.3991 77.1321 30.7855 77.1321ZM30.7898 76.0625C31.1875 76.0625 31.517 75.9574 31.7784 75.7472C32.0398 75.5369 32.233 75.2571 32.358 74.9077C32.4858 74.5582 32.5497 74.1733 32.5497 73.7528C32.5497 73.3352 32.4858 72.9517 32.358 72.6023C32.233 72.25 32.0398 71.9673 31.7784 71.7543C31.517 71.5412 31.1875 71.4347 30.7898 71.4347C30.3892 71.4347 30.0568 71.5412 29.7926 71.7543C29.5313 71.9673 29.3366 72.25 29.2088 72.6023C29.0838 72.9517 29.0213 73.3352 29.0213 73.7528C29.0213 74.1733 29.0838 74.5582 29.2088 74.9077C29.3366 75.2571 29.5313 75.5369 29.7926 75.7472C30.0568 75.9574 30.3892 76.0625 30.7898 76.0625ZM35.2589 77V70.4545H36.4904V71.4943H36.5586C36.6779 71.142 36.8881 70.8651 37.1893 70.6634C37.4933 70.4588 37.837 70.3565 38.2205 70.3565C38.3001 70.3565 38.3938 70.3594 38.5018 70.3651C38.6126 70.3707 38.6992 70.3778 38.7617 70.3864V71.6051C38.7106 71.5909 38.6197 71.5753 38.489 71.5582C38.3583 71.5384 38.2276 71.5284 38.0969 71.5284C37.7958 71.5284 37.5273 71.5923 37.2915 71.7202C37.0586 71.8452 36.8739 72.0199 36.7376 72.2443C36.6012 72.4659 36.533 72.7187 36.533 73.0028V77H35.2589ZM44.945 77.1449C44.5302 77.1449 44.1552 77.0682 43.82 76.9148C43.4847 76.7585 43.2191 76.5327 43.0231 76.2372C42.8299 75.9418 42.7333 75.5795 42.7333 75.1506C42.7333 74.7812 42.8043 74.4773 42.9464 74.2386C43.0884 74 43.2802 73.8111 43.5217 73.6719C43.7631 73.5327 44.033 73.4276 44.3313 73.3565C44.6296 73.2855 44.9336 73.2315 45.2433 73.1946C45.6353 73.1491 45.9535 73.1122 46.1978 73.0838C46.4421 73.0526 46.6197 73.0028 46.7305 72.9347C46.8413 72.8665 46.8967 72.7557 46.8967 72.6023V72.5724C46.8967 72.2003 46.7915 71.9119 46.5813 71.7074C46.3739 71.5028 46.0643 71.4006 45.6523 71.4006C45.2234 71.4006 44.8853 71.4957 44.6381 71.6861C44.3938 71.8736 44.2248 72.0824 44.131 72.3125L42.9336 72.0398C43.0756 71.642 43.283 71.321 43.5558 71.0767C43.8313 70.8295 44.1481 70.6506 44.506 70.5398C44.864 70.4261 45.2404 70.3693 45.6353 70.3693C45.8967 70.3693 46.1737 70.4006 46.4663 70.4631C46.7617 70.5227 47.0373 70.6335 47.293 70.7955C47.5515 70.9574 47.7631 71.1889 47.9279 71.4901C48.0927 71.7884 48.1751 72.1761 48.1751 72.6534V77H46.9308V76.1051H46.8796C46.7972 76.2699 46.6737 76.4318 46.5089 76.5909C46.3441 76.75 46.1325 76.8821 45.8739 76.9872C45.6154 77.0923 45.3058 77.1449 44.945 77.1449ZM45.2219 76.1222C45.5742 76.1222 45.8754 76.0526 46.1254 75.9134C46.3782 75.7741 46.57 75.5923 46.7006 75.3679C46.8342 75.1406 46.9009 74.8977 46.9009 74.6392V73.7955C46.8555 73.8409 46.7674 73.8835 46.6367 73.9233C46.5089 73.9602 46.3626 73.9929 46.1978 74.0213C46.033 74.0469 45.8725 74.071 45.7163 74.0938C45.56 74.1136 45.4293 74.1307 45.3242 74.1449C45.0771 74.1761 44.8512 74.2287 44.6467 74.3026C44.445 74.3764 44.283 74.483 44.1609 74.6222C44.0415 74.7585 43.9819 74.9403 43.9819 75.1676C43.9819 75.483 44.0984 75.7216 44.3313 75.8835C44.5643 76.0426 44.8612 76.1222 45.2219 76.1222ZM52.8477 75.2955V74.2301L56.619 68.2727H57.4585V69.8409H56.9258L54.2283 74.1108V74.179H59.3974V75.2955H52.8477ZM56.9854 77V74.9716L56.994 74.4858V68.2727H58.2425V77H56.9854ZM63.7631 77.1193C63.229 77.1193 62.7489 77.017 62.3228 76.8125C61.8995 76.6051 61.5614 76.321 61.3086 75.9602C61.0558 75.5994 60.9208 75.1875 60.9038 74.7244H62.1822C62.2134 75.0994 62.3796 75.4077 62.6808 75.6491C62.9819 75.8906 63.3427 76.0114 63.7631 76.0114C64.0984 76.0114 64.3952 75.9347 64.6538 75.7812C64.9151 75.625 65.1197 75.4105 65.2674 75.1378C65.418 74.8651 65.4933 74.554 65.4933 74.2045C65.4933 73.8494 65.4165 73.5327 65.2631 73.2543C65.1097 72.9759 64.8981 72.7571 64.6282 72.598C64.3612 72.4389 64.0543 72.358 63.7077 72.3551C63.4435 72.3551 63.1779 72.4006 62.9109 72.4915C62.6438 72.5824 62.4279 72.7017 62.2631 72.8494L61.0572 72.6705L61.5472 68.2727H66.3455V69.402H62.6424L62.3654 71.8438H62.4165C62.587 71.679 62.8129 71.5412 63.0941 71.4304C63.3782 71.3196 63.6822 71.2642 64.006 71.2642C64.5373 71.2642 65.0103 71.3906 65.4251 71.6435C65.8427 71.8963 66.1708 72.2415 66.4094 72.679C66.6509 73.1136 66.7702 73.6136 66.7674 74.179C66.7702 74.7443 66.6424 75.2486 66.3839 75.6918C66.1282 76.1349 65.7731 76.4844 65.3185 76.7401C64.8668 76.9929 64.3484 77.1193 63.7631 77.1193ZM71.5167 77V70.4545H72.7397V71.5199H72.8207C72.957 71.1591 73.18 70.8778 73.4897 70.6761C73.7994 70.4716 74.1701 70.3693 74.6019 70.3693C75.0394 70.3693 75.4059 70.4716 75.7013 70.6761C75.9996 70.8807 76.2198 71.1619 76.3619 71.5199H76.43C76.5863 71.1705 76.8349 70.892 77.1758 70.6847C77.5167 70.4744 77.9229 70.3693 78.3945 70.3693C78.9883 70.3693 79.4727 70.5554 79.8477 70.9276C80.2255 71.2997 80.4144 71.8608 80.4144 72.6108V77H79.1403V72.7301C79.1403 72.2869 79.0195 71.9659 78.7781 71.767C78.5366 71.5682 78.2482 71.4688 77.913 71.4688C77.4982 71.4688 77.1758 71.5966 76.9457 71.8523C76.7156 72.1051 76.6005 72.4304 76.6005 72.8281V77H75.3306V72.6491C75.3306 72.294 75.2198 72.0085 74.9982 71.7926C74.7766 71.5767 74.4883 71.4688 74.1332 71.4688C73.8917 71.4688 73.6687 71.5327 73.4641 71.6605C73.2624 71.7855 73.0991 71.9602 72.9741 72.1847C72.8519 72.4091 72.7908 72.669 72.7908 72.9645V77H71.5167ZM82.1222 77V70.4545H83.3963V77H82.1222ZM82.7656 69.4446C82.544 69.4446 82.3537 69.3707 82.1946 69.223C82.0384 69.0724 81.9602 68.8935 81.9602 68.6861C81.9602 68.4759 82.0384 68.2969 82.1946 68.1491C82.3537 67.9986 82.544 67.9233 82.7656 67.9233C82.9872 67.9233 83.1761 67.9986 83.3324 68.1491C83.4915 68.2969 83.571 68.4759 83.571 68.6861C83.571 68.8935 83.4915 69.0724 83.3324 69.223C83.1761 69.3707 82.9872 69.4446 82.7656 69.4446ZM86.3846 73.1136V77H85.1104V70.4545H86.3335V71.5199H86.4144C86.565 71.1733 86.8008 70.8949 87.1218 70.6847C87.4457 70.4744 87.8533 70.3693 88.3448 70.3693C88.7908 70.3693 89.1815 70.4631 89.5167 70.6506C89.8519 70.8352 90.1119 71.1108 90.2965 71.4773C90.4812 71.8437 90.5735 72.2969 90.5735 72.8366V77H89.2994V72.9901C89.2994 72.5156 89.1758 72.1449 88.9286 71.8778C88.6815 71.608 88.342 71.473 87.9102 71.473C87.6147 71.473 87.3519 71.5369 87.1218 71.6648C86.8945 71.7926 86.7141 71.9801 86.5806 72.2273C86.4499 72.4716 86.3846 72.767 86.3846 73.1136ZM97.1871 72.0526L96.0323 72.2571C95.984 72.1094 95.9073 71.9687 95.8022 71.8352C95.6999 71.7017 95.5607 71.5923 95.3846 71.5071C95.2085 71.4219 94.9883 71.3793 94.7241 71.3793C94.3633 71.3793 94.0621 71.4602 93.8207 71.6222C93.5792 71.7812 93.4585 71.9872 93.4585 72.2401C93.4585 72.4588 93.5394 72.6349 93.7013 72.7685C93.8633 72.902 94.1246 73.0114 94.4854 73.0966L95.5252 73.3352C96.1275 73.4744 96.5763 73.6889 96.8718 73.9787C97.1673 74.2685 97.315 74.6449 97.315 75.108C97.315 75.5 97.2013 75.8494 96.9741 76.1562C96.7496 76.4602 96.4357 76.6989 96.0323 76.8722C95.6317 77.0455 95.1673 77.1321 94.6388 77.1321C93.9059 77.1321 93.3079 76.9759 92.8448 76.6634C92.3817 76.348 92.0977 75.9006 91.9925 75.321L93.2241 75.1335C93.3008 75.4545 93.4585 75.6974 93.6971 75.8622C93.9357 76.0241 94.2468 76.1051 94.6303 76.1051C95.0479 76.1051 95.3817 76.0185 95.6317 75.8452C95.8817 75.669 96.0067 75.4545 96.0067 75.2017C96.0067 74.9972 95.93 74.8253 95.7766 74.6861C95.6261 74.5469 95.3945 74.4418 95.082 74.3707L93.9741 74.1278C93.3633 73.9886 92.9116 73.767 92.619 73.4631C92.3292 73.1591 92.1843 72.7741 92.1843 72.3082C92.1843 71.9219 92.2923 71.5838 92.5082 71.294C92.7241 71.0043 93.0224 70.7784 93.4031 70.6165C93.7837 70.4517 94.2198 70.3693 94.7113 70.3693C95.4187 70.3693 95.9755 70.5227 96.3817 70.8295C96.788 71.1335 97.0565 71.5412 97.1871 72.0526ZM104.649 77.1321C104.015 77.1321 103.47 76.9886 103.012 76.7017C102.558 76.4119 102.208 76.0128 101.964 75.5043C101.72 74.9957 101.598 74.4134 101.598 73.7571C101.598 73.0923 101.723 72.5057 101.973 71.9972C102.223 71.4858 102.575 71.0866 103.029 70.7997C103.484 70.5128 104.02 70.3693 104.636 70.3693C105.133 70.3693 105.576 70.4616 105.966 70.6463C106.355 70.8281 106.669 71.0838 106.907 71.4134C107.149 71.7429 107.292 72.1278 107.338 72.5682H106.098C106.029 72.2614 105.873 71.9972 105.629 71.7756C105.387 71.554 105.064 71.4432 104.657 71.4432C104.302 71.4432 103.991 71.5369 103.724 71.7244C103.46 71.9091 103.254 72.1733 103.106 72.517C102.958 72.858 102.885 73.2614 102.885 73.7273C102.885 74.2045 102.957 74.6165 103.102 74.9631C103.247 75.3097 103.451 75.5781 103.716 75.7685C103.983 75.9588 104.297 76.054 104.657 76.054C104.899 76.054 105.118 76.0099 105.314 75.9219C105.512 75.831 105.679 75.7017 105.812 75.5341C105.949 75.3665 106.044 75.1648 106.098 74.929H107.338C107.292 75.3523 107.154 75.7301 106.924 76.0625C106.694 76.3949 106.386 76.6562 106 76.8466C105.616 77.0369 105.166 77.1321 104.649 77.1321ZM110.605 77.1449C110.19 77.1449 109.815 77.0682 109.48 76.9148C109.145 76.7585 108.879 76.5327 108.683 76.2372C108.49 75.9418 108.393 75.5795 108.393 75.1506C108.393 74.7812 108.464 74.4773 108.607 74.2386C108.749 74 108.94 73.8111 109.182 73.6719C109.423 73.5327 109.693 73.4276 109.991 73.3565C110.29 73.2855 110.594 73.2315 110.903 73.1946C111.295 73.1491 111.614 73.1122 111.858 73.0838C112.102 73.0526 112.28 73.0028 112.391 72.9347C112.501 72.8665 112.557 72.7557 112.557 72.6023V72.5724C112.557 72.2003 112.452 71.9119 112.241 71.7074C112.034 71.5028 111.724 71.4006 111.312 71.4006C110.884 71.4006 110.545 71.4957 110.298 71.6861C110.054 71.8736 109.885 72.0824 109.791 72.3125L108.594 72.0398C108.736 71.642 108.943 71.321 109.216 71.0767C109.491 70.8295 109.808 70.6506 110.166 70.5398C110.524 70.4261 110.901 70.3693 111.295 70.3693C111.557 70.3693 111.834 70.4006 112.126 70.4631C112.422 70.5227 112.697 70.6335 112.953 70.7955C113.212 70.9574 113.423 71.1889 113.588 71.4901C113.753 71.7884 113.835 72.1761 113.835 72.6534V77H112.591V76.1051H112.54C112.457 76.2699 112.334 76.4318 112.169 76.5909C112.004 76.75 111.793 76.8821 111.534 76.9872C111.276 77.0923 110.966 77.1449 110.605 77.1449ZM110.882 76.1222C111.234 76.1222 111.536 76.0526 111.786 75.9134C112.038 75.7741 112.23 75.5923 112.361 75.3679C112.494 75.1406 112.561 74.8977 112.561 74.6392V73.7955C112.516 73.8409 112.428 73.8835 112.297 73.9233C112.169 73.9602 112.023 73.9929 111.858 74.0213C111.693 74.0469 111.533 74.071 111.376 74.0938C111.22 74.1136 111.089 74.1307 110.984 74.1449C110.737 74.1761 110.511 74.2287 110.307 74.3026C110.105 74.3764 109.943 74.483 109.821 74.6222C109.702 74.7585 109.642 74.9403 109.642 75.1676C109.642 75.483 109.759 75.7216 109.991 75.8835C110.224 76.0426 110.521 76.1222 110.882 76.1222ZM116.806 68.2727V77H115.532V68.2727H116.806ZM119.795 68.2727V77H118.521V68.2727H119.795ZM125.055 73.3778C125.055 72.3097 125.196 71.3267 125.477 70.429C125.759 69.5312 126.169 68.7031 126.709 67.9446H127.876C127.666 68.2259 127.47 68.571 127.288 68.9801C127.107 69.3892 126.947 69.8381 126.811 70.3267C126.675 70.8125 126.568 71.3168 126.491 71.8395C126.415 72.3594 126.376 72.8722 126.376 73.3778C126.376 74.054 126.443 74.7386 126.577 75.4318C126.71 76.125 126.891 76.7685 127.118 77.3622C127.345 77.956 127.598 78.4403 127.876 78.8153H126.709C126.169 78.0568 125.759 77.2287 125.477 76.331C125.196 75.4332 125.055 74.4489 125.055 73.3778ZM134.961 75.5341V69.7727H136.107V75.5341H134.961ZM132.656 73.2244V72.0824H138.417V73.2244H132.656ZM143.682 68.2727V77H142.361V69.5938H142.31L140.222 70.9574V69.696L142.399 68.2727H143.682ZM148.923 77.1193C148.389 77.1193 147.909 77.017 147.483 76.8125C147.06 76.6051 146.722 76.321 146.469 75.9602C146.216 75.5994 146.081 75.1875 146.064 74.7244H147.342C147.374 75.0994 147.54 75.4077 147.841 75.6491C148.142 75.8906 148.503 76.0114 148.923 76.0114C149.259 76.0114 149.555 75.9347 149.814 75.7812C150.075 75.625 150.28 75.4105 150.428 75.1378C150.578 74.8651 150.653 74.554 150.653 74.2045C150.653 73.8494 150.577 73.5327 150.423 73.2543C150.27 72.9759 150.058 72.7571 149.788 72.598C149.521 72.4389 149.214 72.358 148.868 72.3551C148.604 72.3551 148.338 72.4006 148.071 72.4915C147.804 72.5824 147.588 72.7017 147.423 72.8494L146.217 72.6705L146.707 68.2727H151.506V69.402H147.803L147.526 71.8438H147.577C147.747 71.679 147.973 71.5412 148.254 71.4304C148.538 71.3196 148.842 71.2642 149.166 71.2642C149.697 71.2642 150.17 71.3906 150.585 71.6435C151.003 71.8963 151.331 72.2415 151.57 72.679C151.811 73.1136 151.93 73.6136 151.928 74.179C151.93 74.7443 151.803 75.2486 151.544 75.6918C151.288 76.1349 150.933 76.4844 150.479 76.7401C150.027 76.9929 149.509 77.1193 148.923 77.1193ZM156.677 77V70.4545H157.9V71.5199H157.981C158.117 71.1591 158.34 70.8778 158.65 70.6761C158.96 70.4716 159.33 70.3693 159.762 70.3693C160.2 70.3693 160.566 70.4716 160.862 70.6761C161.16 70.8807 161.38 71.1619 161.522 71.5199H161.59C161.746 71.1705 161.995 70.892 162.336 70.6847C162.677 70.4744 163.083 70.3693 163.555 70.3693C164.148 70.3693 164.633 70.5554 165.008 70.9276C165.386 71.2997 165.575 71.8608 165.575 72.6108V77H164.3V72.7301C164.3 72.2869 164.18 71.9659 163.938 71.767C163.697 71.5682 163.408 71.4688 163.073 71.4688C162.658 71.4688 162.336 71.5966 162.106 71.8523C161.876 72.1051 161.761 72.4304 161.761 72.8281V77H160.491V72.6491C160.491 72.294 160.38 72.0085 160.158 71.7926C159.937 71.5767 159.648 71.4688 159.293 71.4688C159.052 71.4688 158.829 71.5327 158.624 71.6605C158.423 71.7855 158.259 71.9602 158.134 72.1847C158.012 72.4091 157.951 72.669 157.951 72.9645V77H156.677ZM167.282 77V70.4545H168.556V77H167.282ZM167.926 69.4446C167.704 69.4446 167.514 69.3707 167.355 69.223C167.199 69.0724 167.12 68.8935 167.12 68.6861C167.12 68.4759 167.199 68.2969 167.355 68.1491C167.514 67.9986 167.704 67.9233 167.926 67.9233C168.147 67.9233 168.336 67.9986 168.493 68.1491C168.652 68.2969 168.731 68.4759 168.731 68.6861C168.731 68.8935 168.652 69.0724 168.493 69.223C168.336 69.3707 168.147 69.4446 167.926 69.4446ZM171.545 73.1136V77H170.271V70.4545H171.494V71.5199H171.575C171.725 71.1733 171.961 70.8949 172.282 70.6847C172.606 70.4744 173.013 70.3693 173.505 70.3693C173.951 70.3693 174.342 70.4631 174.677 70.6506C175.012 70.8352 175.272 71.1108 175.457 71.4773C175.641 71.8437 175.734 72.2969 175.734 72.8366V77H174.46V72.9901C174.46 72.5156 174.336 72.1449 174.089 71.8778C173.842 71.608 173.502 71.473 173.07 71.473C172.775 71.473 172.512 71.5369 172.282 71.6648C172.055 71.7926 171.874 71.9801 171.741 72.2273C171.61 72.4716 171.545 72.767 171.545 73.1136ZM182.347 72.0526L181.192 72.2571C181.144 72.1094 181.067 71.9687 180.962 71.8352C180.86 71.7017 180.721 71.5923 180.545 71.5071C180.369 71.4219 180.148 71.3793 179.884 71.3793C179.523 71.3793 179.222 71.4602 178.981 71.6222C178.739 71.7812 178.619 71.9872 178.619 72.2401C178.619 72.4588 178.7 72.6349 178.862 72.7685C179.023 72.902 179.285 73.0114 179.646 73.0966L180.685 73.3352C181.288 73.4744 181.737 73.6889 182.032 73.9787C182.327 74.2685 182.475 74.6449 182.475 75.108C182.475 75.5 182.362 75.8494 182.134 76.1562C181.91 76.4602 181.596 76.6989 181.192 76.8722C180.792 77.0455 180.327 77.1321 179.799 77.1321C179.066 77.1321 178.468 76.9759 178.005 76.6634C177.542 76.348 177.258 75.9006 177.153 75.321L178.384 75.1335C178.461 75.4545 178.619 75.6974 178.857 75.8622C179.096 76.0241 179.407 76.1051 179.79 76.1051C180.208 76.1051 180.542 76.0185 180.792 75.8452C181.042 75.669 181.167 75.4545 181.167 75.2017C181.167 74.9972 181.09 74.8253 180.937 74.6861C180.786 74.5469 180.555 74.4418 180.242 74.3707L179.134 74.1278C178.523 73.9886 178.072 73.767 177.779 73.4631C177.489 73.1591 177.344 72.7741 177.344 72.3082C177.344 71.9219 177.452 71.5838 177.668 71.294C177.884 71.0043 178.183 70.7784 178.563 70.6165C178.944 70.4517 179.38 70.3693 179.871 70.3693C180.579 70.3693 181.136 70.5227 181.542 70.8295C181.948 71.1335 182.217 71.5412 182.347 72.0526ZM189.502 77.1278C188.974 77.1278 188.502 76.9929 188.087 76.723C187.675 76.4503 187.352 76.0625 187.116 75.5597C186.883 75.054 186.766 74.4474 186.766 73.7401C186.766 73.0327 186.884 72.4276 187.12 71.9247C187.359 71.4219 187.685 71.0369 188.1 70.7699C188.515 70.5028 188.985 70.3693 189.511 70.3693C189.917 70.3693 190.244 70.4375 190.491 70.5739C190.741 70.7074 190.934 70.8636 191.07 71.0426C191.21 71.2216 191.317 71.3793 191.394 71.5156H191.471V68.2727H192.745V77H191.501V75.9815H191.394C191.317 76.1207 191.207 76.2798 191.062 76.4588C190.92 76.6378 190.724 76.794 190.474 76.9276C190.224 77.0611 189.9 77.1278 189.502 77.1278ZM189.783 76.0412C190.15 76.0412 190.46 75.9446 190.712 75.7514C190.968 75.5554 191.161 75.2841 191.292 74.9375C191.425 74.5909 191.492 74.1875 191.492 73.7273C191.492 73.2727 191.427 72.875 191.296 72.5341C191.165 72.1932 190.974 71.9276 190.721 71.7372C190.468 71.5469 190.156 71.4517 189.783 71.4517C189.4 71.4517 189.08 71.5511 188.825 71.75C188.569 71.9489 188.376 72.2202 188.245 72.5639C188.117 72.9077 188.053 73.2955 188.053 73.7273C188.053 74.1648 188.119 74.5582 188.249 74.9077C188.38 75.2571 188.573 75.5341 188.829 75.7386C189.087 75.9403 189.406 76.0412 189.783 76.0412ZM194.564 77V70.4545H195.838V77H194.564ZM195.207 69.4446C194.985 69.4446 194.795 69.3707 194.636 69.223C194.48 69.0724 194.402 68.8935 194.402 68.6861C194.402 68.4759 194.48 68.2969 194.636 68.1491C194.795 67.9986 194.985 67.9233 195.207 67.9233C195.429 67.9233 195.618 67.9986 195.774 68.1491C195.933 68.2969 196.012 68.4759 196.012 68.6861C196.012 68.8935 195.933 69.0724 195.774 69.223C195.618 69.3707 195.429 69.4446 195.207 69.4446ZM202.457 72.0526L201.302 72.2571C201.254 72.1094 201.177 71.9687 201.072 71.8352C200.969 71.7017 200.83 71.5923 200.654 71.5071C200.478 71.4219 200.258 71.3793 199.994 71.3793C199.633 71.3793 199.332 71.4602 199.09 71.6222C198.849 71.7812 198.728 71.9872 198.728 72.2401C198.728 72.4588 198.809 72.6349 198.971 72.7685C199.133 72.902 199.394 73.0114 199.755 73.0966L200.795 73.3352C201.397 73.4744 201.846 73.6889 202.141 73.9787C202.437 74.2685 202.585 74.6449 202.585 75.108C202.585 75.5 202.471 75.8494 202.244 76.1562C202.019 76.4602 201.705 76.6989 201.302 76.8722C200.901 77.0455 200.437 77.1321 199.908 77.1321C199.175 77.1321 198.577 76.9759 198.114 76.6634C197.651 76.348 197.367 75.9006 197.262 75.321L198.494 75.1335C198.57 75.4545 198.728 75.6974 198.967 75.8622C199.205 76.0241 199.516 76.1051 199.9 76.1051C200.317 76.1051 200.651 76.0185 200.901 75.8452C201.151 75.669 201.276 75.4545 201.276 75.2017C201.276 74.9972 201.2 74.8253 201.046 74.6861C200.896 74.5469 200.664 74.4418 200.352 74.3707L199.244 74.1278C198.633 73.9886 198.181 73.767 197.888 73.4631C197.599 73.1591 197.454 72.7741 197.454 72.3082C197.454 71.9219 197.562 71.5838 197.778 71.294C197.994 71.0043 198.292 70.7784 198.673 70.6165C199.053 70.4517 199.489 70.3693 199.981 70.3693C200.688 70.3693 201.245 70.5227 201.651 70.8295C202.058 71.1335 202.326 71.5412 202.457 72.0526ZM206.743 77.1321C206.109 77.1321 205.564 76.9886 205.106 76.7017C204.652 76.4119 204.302 76.0128 204.058 75.5043C203.814 74.9957 203.691 74.4134 203.691 73.7571C203.691 73.0923 203.816 72.5057 204.066 71.9972C204.316 71.4858 204.669 71.0866 205.123 70.7997C205.578 70.5128 206.113 70.3693 206.73 70.3693C207.227 70.3693 207.67 70.4616 208.059 70.6463C208.449 70.8281 208.762 71.0838 209.001 71.4134C209.243 71.7429 209.386 72.1278 209.431 72.5682H208.191C208.123 72.2614 207.967 71.9972 207.723 71.7756C207.481 71.554 207.157 71.4432 206.751 71.4432C206.396 71.4432 206.085 71.5369 205.818 71.7244C205.554 71.9091 205.348 72.1733 205.2 72.517C205.052 72.858 204.978 73.2614 204.978 73.7273C204.978 74.2045 205.051 74.6165 205.196 74.9631C205.341 75.3097 205.545 75.5781 205.809 75.7685C206.076 75.9588 206.39 76.054 206.751 76.054C206.993 76.054 207.211 76.0099 207.407 75.9219C207.606 75.831 207.772 75.7017 207.906 75.5341C208.042 75.3665 208.137 75.1648 208.191 74.929H209.431C209.386 75.3523 209.248 75.7301 209.018 76.0625C208.788 76.3949 208.48 76.6562 208.093 76.8466C207.71 77.0369 207.26 77.1321 206.743 77.1321ZM214.94 74.2855V70.4545H216.219V77H214.966V75.8665H214.898C214.747 76.2159 214.506 76.5071 214.173 76.7401C213.844 76.9702 213.433 77.0852 212.942 77.0852C212.521 77.0852 212.149 76.9929 211.825 76.8082C211.504 76.6207 211.251 76.3438 211.067 75.9773C210.885 75.6108 210.794 75.1577 210.794 74.6179V70.4545H212.068V74.4645C212.068 74.9105 212.192 75.2656 212.439 75.5298C212.686 75.794 213.007 75.9261 213.402 75.9261C213.641 75.9261 213.878 75.8665 214.114 75.7472C214.352 75.6278 214.55 75.4474 214.706 75.206C214.865 74.9645 214.943 74.6577 214.94 74.2855ZM222.836 72.0526L221.681 72.2571C221.632 72.1094 221.556 71.9687 221.451 71.8352C221.348 71.7017 221.209 71.5923 221.033 71.5071C220.857 71.4219 220.637 71.3793 220.373 71.3793C220.012 71.3793 219.711 71.4602 219.469 71.6222C219.228 71.7812 219.107 71.9872 219.107 72.2401C219.107 72.4588 219.188 72.6349 219.35 72.7685C219.512 72.902 219.773 73.0114 220.134 73.0966L221.174 73.3352C221.776 73.4744 222.225 73.6889 222.52 73.9787C222.816 74.2685 222.963 74.6449 222.963 75.108C222.963 75.5 222.85 75.8494 222.623 76.1562C222.398 76.4602 222.084 76.6989 221.681 76.8722C221.28 77.0455 220.816 77.1321 220.287 77.1321C219.554 77.1321 218.956 76.9759 218.493 76.6634C218.03 76.348 217.746 75.9006 217.641 75.321L218.873 75.1335C218.949 75.4545 219.107 75.6974 219.346 75.8622C219.584 76.0241 219.895 76.1051 220.279 76.1051C220.696 76.1051 221.03 76.0185 221.28 75.8452C221.53 75.669 221.655 75.4545 221.655 75.2017C221.655 74.9972 221.578 74.8253 221.425 74.6861C221.275 74.5469 221.043 74.4418 220.73 74.3707L219.623 74.1278C219.012 73.9886 218.56 73.767 218.267 73.4631C217.978 73.1591 217.833 72.7741 217.833 72.3082C217.833 71.9219 217.941 71.5838 218.157 71.294C218.373 71.0043 218.671 70.7784 219.051 70.6165C219.432 70.4517 219.868 70.3693 220.36 70.3693C221.067 70.3693 221.624 70.5227 222.03 70.8295C222.436 71.1335 222.705 71.5412 222.836 72.0526ZM229.269 72.0526L228.114 72.2571C228.066 72.1094 227.989 71.9687 227.884 71.8352C227.782 71.7017 227.643 71.5923 227.467 71.5071C227.29 71.4219 227.07 71.3793 226.806 71.3793C226.445 71.3793 226.144 71.4602 225.903 71.6222C225.661 71.7812 225.54 71.9872 225.54 72.2401C225.54 72.4588 225.621 72.6349 225.783 72.7685C225.945 72.902 226.207 73.0114 226.567 73.0966L227.607 73.3352C228.21 73.4744 228.658 73.6889 228.954 73.9787C229.249 74.2685 229.397 74.6449 229.397 75.108C229.397 75.5 229.283 75.8494 229.056 76.1562C228.832 76.4602 228.518 76.6989 228.114 76.8722C227.714 77.0455 227.249 77.1321 226.721 77.1321C225.988 77.1321 225.39 76.9759 224.927 76.6634C224.464 76.348 224.18 75.9006 224.075 75.321L225.306 75.1335C225.383 75.4545 225.54 75.6974 225.779 75.8622C226.018 76.0241 226.329 76.1051 226.712 76.1051C227.13 76.1051 227.464 76.0185 227.714 75.8452C227.964 75.669 228.089 75.4545 228.089 75.2017C228.089 74.9972 228.012 74.8253 227.859 74.6861C227.708 74.5469 227.477 74.4418 227.164 74.3707L226.056 74.1278C225.445 73.9886 224.994 73.767 224.701 73.4631C224.411 73.1591 224.266 72.7741 224.266 72.3082C224.266 71.9219 224.374 71.5838 224.59 71.294C224.806 71.0043 225.104 70.7784 225.485 70.6165C225.866 70.4517 226.302 70.3693 226.793 70.3693C227.501 70.3693 228.058 70.5227 228.464 70.8295C228.87 71.1335 229.138 71.5412 229.269 72.0526ZM230.798 77V70.4545H232.072V77H230.798ZM231.441 69.4446C231.22 69.4446 231.029 69.3707 230.87 69.223C230.714 69.0724 230.636 68.8935 230.636 68.6861C230.636 68.4759 230.714 68.2969 230.87 68.1491C231.029 67.9986 231.22 67.9233 231.441 67.9233C231.663 67.9233 231.852 67.9986 232.008 68.1491C232.167 68.2969 232.247 68.4759 232.247 68.6861C232.247 68.8935 232.167 69.0724 232.008 69.223C231.852 69.3707 231.663 69.4446 231.441 69.4446ZM236.543 77.1321C235.93 77.1321 235.394 76.9915 234.937 76.7102C234.479 76.429 234.124 76.0355 233.871 75.5298C233.619 75.0241 233.492 74.4332 233.492 73.7571C233.492 73.0781 233.619 72.4844 233.871 71.9759C234.124 71.4673 234.479 71.0724 234.937 70.7912C235.394 70.5099 235.93 70.3693 236.543 70.3693C237.157 70.3693 237.692 70.5099 238.15 70.7912C238.607 71.0724 238.962 71.4673 239.215 71.9759C239.468 72.4844 239.594 73.0781 239.594 73.7571C239.594 74.4332 239.468 75.0241 239.215 75.5298C238.962 76.0355 238.607 76.429 238.15 76.7102C237.692 76.9915 237.157 77.1321 236.543 77.1321ZM236.548 76.0625C236.945 76.0625 237.275 75.9574 237.536 75.7472C237.798 75.5369 237.991 75.2571 238.116 74.9077C238.244 74.5582 238.308 74.1733 238.308 73.7528C238.308 73.3352 238.244 72.9517 238.116 72.6023C237.991 72.25 237.798 71.9673 237.536 71.7543C237.275 71.5412 236.945 71.4347 236.548 71.4347C236.147 71.4347 235.815 71.5412 235.55 71.7543C235.289 71.9673 235.094 72.25 234.967 72.6023C234.842 72.9517 234.779 73.3352 234.779 73.7528C234.779 74.1733 234.842 74.5582 234.967 74.9077C235.094 75.2571 235.289 75.5369 235.55 75.7472C235.815 75.9574 236.147 76.0625 236.548 76.0625ZM242.291 73.1136V77H241.017V70.4545H242.24V71.5199H242.321C242.471 71.1733 242.707 70.8949 243.028 70.6847C243.352 70.4744 243.76 70.3693 244.251 70.3693C244.697 70.3693 245.088 70.4631 245.423 70.6506C245.758 70.8352 246.018 71.1108 246.203 71.4773C246.387 71.8437 246.48 72.2969 246.48 72.8366V77H245.206V72.9901C245.206 72.5156 245.082 72.1449 244.835 71.8778C244.588 71.608 244.248 71.473 243.816 71.473C243.521 71.473 243.258 71.5369 243.028 71.6648C242.801 71.7926 242.62 71.9801 242.487 72.2273C242.356 72.4716 242.291 72.767 242.291 73.1136ZM254.42 70.4545V71.4773H250.844V70.4545H254.42ZM251.803 68.8864H253.077V75.0781C253.077 75.3253 253.114 75.5114 253.188 75.6364C253.262 75.7585 253.357 75.8423 253.474 75.8878C253.593 75.9304 253.722 75.9517 253.862 75.9517C253.964 75.9517 254.053 75.9446 254.13 75.9304C254.207 75.9162 254.266 75.9048 254.309 75.8963L254.539 76.9489C254.465 76.9773 254.36 77.0057 254.224 77.0341C254.087 77.0653 253.917 77.0824 253.712 77.0852C253.377 77.0909 253.065 77.0312 252.775 76.9062C252.485 76.7812 252.251 76.5881 252.072 76.3267C251.893 76.0653 251.803 75.7372 251.803 75.3423V68.8864ZM255.829 77V70.4545H257.103V77H255.829ZM256.473 69.4446C256.251 69.4446 256.061 69.3707 255.902 69.223C255.745 69.0724 255.667 68.8935 255.667 68.6861C255.667 68.4759 255.745 68.2969 255.902 68.1491C256.061 67.9986 256.251 67.9233 256.473 67.9233C256.694 67.9233 256.883 67.9986 257.039 68.1491C257.199 68.2969 257.278 68.4759 257.278 68.6861C257.278 68.8935 257.199 69.0724 257.039 69.223C256.883 69.3707 256.694 69.4446 256.473 69.4446ZM258.817 77V70.4545H260.04V71.5199H260.121C260.258 71.1591 260.481 70.8778 260.79 70.6761C261.1 70.4716 261.471 70.3693 261.903 70.3693C262.34 70.3693 262.707 70.4716 263.002 70.6761C263.3 70.8807 263.521 71.1619 263.663 71.5199H263.731C263.887 71.1705 264.136 70.892 264.477 70.6847C264.817 70.4744 265.224 70.3693 265.695 70.3693C266.289 70.3693 266.773 70.5554 267.148 70.9276C267.526 71.2997 267.715 71.8608 267.715 72.6108V77H266.441V72.7301C266.441 72.2869 266.32 71.9659 266.079 71.767C265.837 71.5682 265.549 71.4688 265.214 71.4688C264.799 71.4688 264.477 71.5966 264.246 71.8523C264.016 72.1051 263.901 72.4304 263.901 72.8281V77H262.631V72.6491C262.631 72.294 262.521 72.0085 262.299 71.7926C262.077 71.5767 261.789 71.4688 261.434 71.4688C261.192 71.4688 260.969 71.5327 260.765 71.6605C260.563 71.7855 260.4 71.9602 260.275 72.1847C260.153 72.4091 260.092 72.669 260.092 72.9645V77H258.817ZM272.244 77.1321C271.599 77.1321 271.044 76.9943 270.578 76.7188C270.115 76.4403 269.757 76.0497 269.504 75.5469C269.254 75.0412 269.129 74.4489 269.129 73.7699C269.129 73.0994 269.254 72.5085 269.504 71.9972C269.757 71.4858 270.109 71.0866 270.561 70.7997C271.015 70.5128 271.547 70.3693 272.154 70.3693C272.524 70.3693 272.882 70.4304 273.228 70.5526C273.575 70.6747 273.886 70.8665 274.162 71.1278C274.437 71.3892 274.654 71.7287 274.814 72.1463C274.973 72.5611 275.052 73.0653 275.052 73.6591V74.1108H269.849V73.1562H273.804C273.804 72.821 273.735 72.5241 273.599 72.2656C273.463 72.0043 273.271 71.7983 273.024 71.6477C272.779 71.4972 272.493 71.4219 272.163 71.4219C271.805 71.4219 271.493 71.5099 271.225 71.6861C270.961 71.8594 270.757 72.0866 270.612 72.3679C270.47 72.6463 270.399 72.9489 270.399 73.2756V74.0213C270.399 74.4588 270.475 74.831 270.629 75.1378C270.785 75.4446 271.002 75.679 271.281 75.8409C271.559 76 271.885 76.0795 272.257 76.0795C272.498 76.0795 272.718 76.0455 272.917 75.9773C273.116 75.9062 273.288 75.8011 273.433 75.6619C273.578 75.5227 273.689 75.3509 273.765 75.1463L274.971 75.3636C274.875 75.7187 274.701 76.0298 274.451 76.2969C274.204 76.5611 273.893 76.767 273.518 76.9148C273.146 77.0597 272.721 77.1321 272.244 77.1321ZM278.916 73.3778C278.916 74.4489 278.776 75.4332 278.494 76.331C278.213 77.2287 277.803 78.0568 277.263 78.8153H276.095C276.305 78.5341 276.501 78.1889 276.683 77.7798C276.865 77.3707 277.024 76.9233 277.161 76.4375C277.297 75.9489 277.403 75.4432 277.48 74.9205C277.557 74.3977 277.595 73.8835 277.595 73.3778C277.595 72.7045 277.528 72.0213 277.395 71.3281C277.261 70.6349 277.081 69.9915 276.854 69.3977C276.626 68.804 276.374 68.3196 276.095 67.9446H277.263C277.803 68.7031 278.213 69.5312 278.494 70.429C278.776 71.3267 278.916 72.3097 278.916 73.3778Z" fill="white"/>
<defs>
<filter id="filter0_d_356_897" x="0.503356" y="0.503356" width="334.993" height="166.993" filterUnits="userSpaceOnUse" color-interpolation-filters="sRGB">
<feFlood flood-opacity="0" result="BackgroundImageFix"/>
<feColorMatrix in="SourceAlpha" type="matrix" values="0 0 0 0 0 0 0 0 0 0 0 0 0 0 0 0 0 0 127 0" result="hardAlpha"/>
<feOffset/>
<feGaussianBlur stdDeviation="2.24832"/>
<feComposite in2="hardAlpha" operator="out"/>
<feColorMatrix type="matrix" values="0 0 0 0 0 0 0 0 0 0 0 0 0 0 0 0 0 0 0.1 0"/>
<feBlend mode="normal" in2="BackgroundImageFix" result="effect1_dropShadow_356_897"/>
<feBlend mode="normal" in="SourceGraphic" in2="effect1_dropShadow_356_897" result="shape"/>
</filter>
<linearGradient id="paint0_linear_356_897" x1="5" y1="10.1562" x2="163.84" y2="167.207" gradientUnits="userSpaceOnUse">
<stop offset="0.0212929" stop-color="#3B5998"/>
<stop offset="1" stop-color="#3A6BD1"/>
</linearGradient>
</defs>
</svg>
