<svg width="51" height="51" viewBox="0 0 51 51" fill="none" xmlns="http://www.w3.org/2000/svg">
<path d="M23.1724 30.3761H18.119C18.119 17.8184 28.3016 7.63576 40.8593 7.63576V12.6892C31.081 12.6892 23.1724 20.5977 23.1724 30.3761ZM40.8593 22.796V17.7426C33.8856 17.7426 28.2258 23.4024 28.2258 30.3761H33.2792C33.2792 26.1817 36.665 22.796 40.8593 22.796ZM13.0656 5.10906C13.0656 2.30443 10.8169 0.0556641 8.01223 0.0556641C5.20759 0.0556641 2.95883 2.30443 2.95883 5.10906C2.95883 7.9137 5.20759 10.1625 8.01223 10.1625C10.8169 10.1625 13.0656 7.9137 13.0656 5.10906ZM24.3094 6.37241H19.256C18.6496 9.96032 15.5671 12.6892 11.8023 12.6892H4.22218C2.12502 12.6892 0.432129 14.382 0.432129 16.4792V22.796H15.5923V17.0856C20.292 15.5949 23.8041 11.4511 24.3094 6.37241ZM43.386 37.9562C46.1906 37.9562 48.4394 35.7074 48.4394 32.9028C48.4394 30.0981 46.1906 27.8494 43.386 27.8494C40.5814 27.8494 38.3326 30.0981 38.3326 32.9028C38.3326 35.7074 40.5814 37.9562 43.386 37.9562ZM47.1761 40.4828H39.596C35.8312 40.4828 32.7486 37.754 32.1422 34.1661H27.0888C27.5941 39.2448 31.1063 43.3886 35.8059 44.8793V50.5896H50.9661V44.2729C50.9661 42.1757 49.2732 40.4828 47.1761 40.4828Z" fill="#3B5998"/>
</svg>
