<svg width="25" height="25" viewBox="0 0 25 25" fill="none" xmlns="http://www.w3.org/2000/svg">
<path d="M21.2498 6.875C21.2498 6.0462 20.9205 5.25134 20.3345 4.66529C19.7484 4.07924 18.9536 3.75 18.1248 3.75H6.87476C6.04595 3.75 5.2511 4.07924 4.66505 4.66529C4.079 5.25134 3.74976 6.0462 3.74976 6.875V18.125C3.74976 18.9538 4.079 19.7487 4.66505 20.3347C5.2511 20.9208 6.04595 21.25 6.87476 21.25H11.9998C11.7953 20.8505 11.6308 20.4318 11.5085 20H6.87476C6.37748 20 5.90056 19.8025 5.54893 19.4508C5.1973 19.0992 4.99976 18.6223 4.99976 18.125V8.75H19.9998V11.5087C20.436 11.6325 20.8535 11.7963 21.2498 12V6.875ZM6.87476 5H18.1248C18.622 5 19.099 5.19754 19.4506 5.54917C19.8022 5.90081 19.9998 6.37772 19.9998 6.875V7.5H4.99976V6.875C4.99976 6.37772 5.1973 5.90081 5.54893 5.54917C5.90056 5.19754 6.37748 5 6.87476 5ZM18.1248 23.75C19.6166 23.75 21.0473 23.1574 22.1022 22.1025C23.1571 21.0476 23.7498 19.6168 23.7498 18.125C23.7498 16.6332 23.1571 15.2024 22.1022 14.1475C21.0473 13.0926 19.6166 12.5 18.1248 12.5C16.6329 12.5 15.2022 13.0926 14.1473 14.1475C13.0924 15.2024 12.4998 16.6332 12.4998 18.125C12.4998 19.6168 13.0924 21.0476 14.1473 22.1025C15.2022 23.1574 16.6329 23.75 18.1248 23.75ZM17.4998 15.625C17.4998 15.4592 17.5656 15.3003 17.6828 15.1831C17.8 15.0658 17.959 15 18.1248 15C18.2905 15 18.4495 15.0658 18.5667 15.1831C18.6839 15.3003 18.7498 15.4592 18.7498 15.625V17.5H19.9998C20.1655 17.5 20.3245 17.5658 20.4417 17.6831C20.5589 17.8003 20.6248 17.9592 20.6248 18.125C20.6248 18.2908 20.5589 18.4497 20.4417 18.5669C20.3245 18.6842 20.1655 18.75 19.9998 18.75H18.1248C17.959 18.75 17.8 18.6842 17.6828 18.5669C17.5656 18.4497 17.4998 18.2908 17.4998 18.125V15.625Z" fill="black"/>
</svg>
